<?xml version="1.0" encoding="utf-8"?>
<!-- Generator: Adobe Illustrator 19.1.0, SVG Export Plug-In . SVG Version: 6.00 Build 0)  -->
<svg version="1.1" id="Layer_1" xmlns="http://www.w3.org/2000/svg" xmlns:xlink="http://www.w3.org/1999/xlink" x="0px" y="0px"
	 viewBox="0 0 838.3 394.6" style="enable-background:new 0 0 838.3 394.6;" xml:space="preserve">
<style type="text/css">
	.st0{fill:none;}
	.st1{display:none;}
	.st2{display:inline;}
	.st3{font-family:'MyriadPro-Regular';}
	.st4{font-size:12px;}
	.st5{font-family:'Avenir-Heavy';}
	.st6{font-size:21px;}
	.st7{fill:none;stroke:#00FFFF;stroke-width:5;stroke-miterlimit:10;}
	.st8{opacity:0.44;fill:#CCCCCC;stroke:#29ABE2;stroke-width:3;stroke-miterlimit:10;}
	.st9{opacity:0.48;fill:#FF7BAC;stroke:#C1272D;stroke-width:3;stroke-miterlimit:10;}
	.st10{fill:#337AB7;}
	.st11{font-family:'Avenir-Black';}
	.st12{font-size:36px;}
	.st13{font-size:24px;}
	.st14{font-size:18px;}
	.st15{font-family:'Avenir-Light';}
	.st16{opacity:0.25;fill:#A67C52;}
	.st17{opacity:0.1091;fill:#A67C52;}
</style>
<rect x="12.1" y="-21.6" class="st0" width="200.5" height="319.8"/>
<text transform="matrix(1 0 0 1 12.136 -13.0968)" class="st1"><tspan x="0" y="0" class="st2 st3 st4">Simple accounting example</tspan><tspan x="0" y="28.8" class="st2 st3 st4">$1000</tspan><tspan x="0" y="57.6" class="st2 st3 st4">500</tspan><tspan x="0" y="86.4" class="st2 st3 st4">300</tspan><tspan x="0" y="115.2" class="st2 st3 st4">Amortized debt loan</tspan><tspan x="0" y="144" class="st2 st3 st4">S1 </tspan><tspan x="0" y="158.4" class="st2 st3 st4">S2</tspan><tspan x="0" y="187.2" class="st2 st3 st4">Formula NPV</tspan><tspan x="0" y="216" class="st2 st3 st4">Formula total</tspan><tspan x="0" y="244.8" class="st2 st3 st4">Expample</tspan></text>
<rect x="317.8" y="29" class="st0" width="146.9" height="34.4"/>
<text transform="matrix(1 0 0 1 317.8288 44.8997)" class="st5 st6" style="text-decoration: underline;">Loan Portfolio</text>
<path class="st7" d="M360.8,107.4c-13.4,12.2-1.9,24.3-17.6,50.7c-7.9,13.3-12.1,12.4-26.4,33.4c-11,16.1-16.7,24.2-17.6,34.7
	c-0.2,2.1-1.9,26.7,17.6,42.7c10.5,8.6,21.9,10.5,39.6,13.4c4.7,0.8,17.6,2.7,48.4,1.3c35.3-1.5,53.2-2.5,66-10.7
	c3.5-2.2,19.8-12.7,23.5-30.7c2.9-14.4-3.6-26.4-10.3-38.7c-5.5-10.2-7.5-9.8-23.5-32c-9.7-13.5-14.5-20.2-17.6-26.7
	c-9.8-20.7-4.1-27.4-11.7-36.1C417.4,93.2,378,91.7,360.8,107.4z"/>
<path class="st7" d="M267.9,178.9"/>
<path class="st8" d="M334.5,193.5c-18.8,15.2-21.4,45.8-4.2,63.5c14.1,14.6,37.7,16.6,53.1,6.2c23.1-15.5,23.3-55.8,1-71.9
	C370.4,181.2,348.9,181.9,334.5,193.5z"/>
<path class="st9" d="M420.9,207.9c-13.9,13.4-14.7,38.1,0,51c12.1,10.6,31,10.1,42.7,0.9c17.2-13.4,17.3-43.9,0-56.2
	C451.2,194.7,432.3,196.9,420.9,207.9z"/>
<rect x="343.1" y="206.3" class="st0" width="48.1" height="53.7"/>
<text transform="matrix(1 0 0 1 343.1441 233.4925)" class="st10 st11 st12">S</text>
<text transform="matrix(0.583 0 0 0.583 363.8077 245.4808)" class="st10 st11 st12">1</text>
<rect x="433" y="216.3" class="st0" width="37.9" height="41.5"/>
<text transform="matrix(1 0 0 1 432.9605 234.4208)" class="st10 st11 st13">S</text>
<text transform="matrix(0.583 0 0 0.583 446.7364 242.4125)" class="st10 st11 st13">2</text>
<rect x="423.2" y="179" class="st0" width="47.7" height="25.1"/>
<text transform="matrix(1 0 0 1 423.215 192.6491)" class="st11 st14" style="text-decoration: underline;">300</text>
<rect x="343.4" y="166.4" class="st0" width="47.7" height="25.1"/>
<text transform="matrix(1 0 0 1 343.3591 180.0046)" class="st11 st14" style="text-decoration: underline;">500</text>
<rect x="511.5" y="54.8" class="st0" width="306" height="71.9"/>
<text transform="matrix(1 0 0 1 511.5251 68.3985)"><tspan x="0" y="0" class="st15 st14">We need to calculate the expected </tspan><tspan x="0" y="21.6" class="st15 st14">losses for each basket of loans within </tspan><tspan x="0" y="43.2" class="st15 st14">the portfolio separately.</tspan></text>
<path class="st16" d="M800.3,118.4h-285c-6.6,0-12-5.4-12-12V63.3c0-6.6,5.4-12,12-12h285c6.6,0,12,5.4,12,12v43.1
	C812.3,113,806.9,118.4,800.3,118.4z"/>
<g>
	<g>
		<g>
			<path class="st17" d="M502.6,112.3c-2.1,0.8-4.1,1.9-5.8,3.3c-2,1.3-3.8,2.8-5.4,4.6c-3.5,3.5-6.5,7.4-9.6,11.3
				c-3,3.7-5.9,7.5-9.4,10.7c-1.1,1-2.2,1.9-3.3,2.9c-2.2,1.7-4.6,3.1-7.2,4c0.1,0,0.3-0.1,0.4-0.1c-1.3,0.3-2.6,0.6-3.9,0.9
				c-0.5,0.1-0.4,0.1-0.1,0.3c0.4,0.1,0.7,0.2,1.1,0.3c1.3,0.3,2.5,0.6,3.8,0.9c2,0.4,3.9,0.8,5.9,1.2c0.7,0.1,1.9,0.5,2.6,0.2
				c2.7-0.8,5.2-2.1,7.5-3.7c1.2-0.9,2.3-1.8,3.5-2.7c4.1-3.2,7.6-7.1,11.2-10.9c3-3.2,6-6.4,9.4-9.2c1.5-1.3,3.2-2.5,4.9-3.6
				c2.2-1.4,4.6-2.6,7.1-3.4c-0.3-0.5-0.7-0.8-1.2-1c-1.6-1-3.3-2-4.9-2.9c-1.7-0.9-3.3-1.9-5-2.8
				C503.6,112.5,503.1,112.3,502.6,112.3z"/>
			<path class="st17" d="M503.5,114.1c-2.1,0.8-4.1,1.9-5.8,3.2c-2,1.3-3.8,2.8-5.4,4.5c-2.9,2.9-5.6,6.1-8.2,9.3
				c-2.6,3.1-5.1,6.4-7.8,9.3c-1.1,1.1-2.1,2.2-3.2,3.3c-2.1,2-4.3,3.8-6.8,5.2c0.1-0.1,0.2-0.1,0.3-0.2c-2.3,1.4-4.8,2.3-7.5,2.7
				c-1.4,0.3,3.4,0.9,2.7,0.8c1.8,0.2,3.5,0.4,5.3,0.6c0.9,0.1,1.9,0.2,2.8,0.1c1.4-0.4,2.8-0.9,4.1-1.6c2.6-1.4,5-3,7.2-4.9
				c3.4-2.9,6.6-6.1,9.6-9.4c3.1-3.3,6.1-6.7,9.4-9.7c2-1.9,4.2-3.6,6.6-5.1c2.2-1.5,4.6-2.6,7.2-3.5c-0.2-0.4-0.5-0.6-1-0.8
				c-1.3-0.7-2.7-1.3-4.1-1.9c-1.4-0.6-2.7-1.2-4.1-1.8C504.4,114.1,504,114,503.5,114.1z"/>
			<path class="st17" d="M500.1,109.5c-2.8,1.2-5.3,2.8-7.5,4.8c-1.2,1.1-2.4,2.2-3.7,3.4c-4.3,4.2-7.9,9.1-11.6,13.7
				c-2.9,3.6-5.9,7.2-9.5,10.3c-1.5,1.5-3.2,2.7-5.1,3.7c-2.3,1.3-4.8,2.1-7.4,2.5c-0.8,0.2,0.9,0.8,0.8,0.8c0.7,0.3,2,0.9,2.8,0.7
				c2.6-0.6,5-1.5,7.2-2.9c2.4-1.5,4.6-3.2,6.7-5.2c2.3-2.2,4.4-4.6,6.5-7c3.3-3.8,6.5-7.8,10.1-11.4c2.3-2.3,4.7-4.5,7.3-6.5
				c2.2-1.8,4.5-3.2,7.1-4.2c0.4-0.2-1.7-1.6-1.6-1.5C501.8,110.2,500.7,109.2,500.1,109.5z"/>
			<path class="st17" d="M499,114.8c-2,1-3.7,2.2-5.3,3.8c-1.8,1.6-3.6,3.2-5.3,4.9c-3,3.1-5.7,6.4-8.3,9.8c-2.5,3.2-5,6.6-7.9,9.6
				c-1.1,1.1-2.1,2.2-3.2,3.3c-3.9,4.1-8.6,6.5-14.2,7.4c-0.5,0.1-0.2,0.4,0,0.6c0.3,0.3,1.5,0.1,1.9,0c2.7-0.4,5.3-1.3,7.7-2.6
				c1.3-0.7,2.5-1.5,3.7-2.4c3.6-2.8,6.7-6.3,9.6-9.8c3.2-3.8,6.1-7.8,9.3-11.6c2.2-2.5,4.5-4.8,7-7c1.7-2.1,3.7-3.8,6-5.3
				C500.5,115.2,499.2,114.7,499,114.8z"/>
			<path class="st17" d="M503.1,114.7c-2.1,0.8-4.1,1.9-5.8,3.3c-2,1.3-3.8,2.8-5.4,4.5c-2.9,2.9-5.6,6.1-8.2,9.3
				c-2.6,3.1-5.1,6.4-7.9,9.3c-1.1,1.1-2.1,2.2-3.2,3.3c-2.1,2-4.3,3.8-6.8,5.2c0.1-0.1,0.2-0.1,0.4-0.2c-2.3,1.4-4.8,2.3-7.5,2.7
				c-1.6,0.4,4.2,0.8,3.3,0.7c2.1,0.1,4.3,0.3,6.4,0.3c1.1,0.1,2.2,0.1,3.4,0c1.4-0.5,2.8-1.1,4.2-1.8c2.6-1.4,5-3,7.2-5
				c3.4-2.9,6.5-6,9.6-9.3c3-3.2,6-6.5,9.3-9.4c2-1.8,4.2-3.4,6.5-4.9c2.2-1.4,4.6-2.6,7.2-3.4c-0.3-0.4-0.7-0.7-1.2-0.8
				c-1.6-0.7-3.3-1.3-5-2c-1.7-0.6-3.3-1.2-5-1.8C504.1,114.7,503.6,114.6,503.1,114.7z"/>
			<path class="st17" d="M503.1,113.2c-2.1,0.8-4.1,1.9-5.8,3.3c-2,1.3-3.8,2.8-5.4,4.5c-3.5,3.5-6.6,7.4-9.7,11.2
				c-3,3.7-5.9,7.5-9.4,10.7c-1.1,1-2.2,1.9-3.3,2.9c-2.2,1.7-4.6,3.1-7.2,4.1c0.1,0,0.3-0.1,0.4-0.1c-1.3,0.3-2.6,0.6-3.8,0.9
				c-0.5,0.1-0.4,0.1-0.1,0.3c0.4,0.1,0.7,0.2,1.1,0.3c1.3,0.3,2.6,0.5,3.8,0.7c2,0.3,4,0.7,5.9,0.9c0.7,0.1,1.9,0.4,2.6,0.1
				c2.7-0.9,5.2-2.1,7.6-3.8c1.2-0.9,2.3-1.8,3.5-2.7c4.1-3.2,7.6-7.1,11.2-10.9c3-3.2,6-6.3,9.3-9.1c1.5-1.3,3.2-2.5,4.9-3.6
				c2.2-1.4,4.6-2.5,7.1-3.3c-0.3-0.4-0.7-0.8-1.2-0.9c-1.6-0.9-3.3-1.8-4.9-2.6c-1.7-0.9-3.3-1.7-5-2.5
				C504.1,113.3,503.6,113.1,503.1,113.2z"/>
			<path class="st17" d="M501.4,114.7c-3.9,1.9-4.4,2-7.9,4.7c-3.8,3.1-7.2,7-10.3,10.8c-4,4.9-7.8,10.3-12.5,14.6
				c-1.1,1-2.2,1.9-3.3,2.9c-3.2,2.5-6.8,4.2-10.9,4.9c-1,0.2,2.3,0.6,1.8,0.6c1.6,0.1,3.6,0.4,5.1-0.1c2-0.4,3.9-1.2,5.7-2.3
				c1.9-0.9,3.7-2.1,5.4-3.5c2.9-2.4,5.6-5.2,8.1-8.1c2.6-3,5.1-6.1,7.8-9.1c5-5.6,9.8-10,17.1-13.2c0.8-0.4-1.5-1-1.4-1
				c-1-0.3-2-0.7-3-0.9C502.5,114.9,502,114.7,501.4,114.7z"/>
			<path class="st17" d="M501.1,111c-3.7,2-4.4,2.2-7.6,4.9c-3.3,2.7-6.1,5.9-8.9,9.1c-3.7,4.5-7.2,9.2-11.1,13.5
				c-2,2.3-4.2,4.3-6.5,6.2c-3.2,2.5-6.8,4.1-10.9,4.7c-0.7,0.2,0.8,0.8,0.7,0.7c0.6,0.2,1.7,0.6,2.4,0.4c2.6-0.8,5.1-1.6,7.5-2.9
				c3.1-1.8,5.8-4.2,8.3-6.8c9.6-9.7,15.9-21.1,28.9-27.8C504.5,112.6,501.6,110.7,501.1,111z"/>
			<path class="st17" d="M502.6,115.5c-2.1,0.8-4,1.9-5.7,3.3c-2,1.3-3.8,2.8-5.4,4.5c-3.6,3.5-6.7,7.4-9.9,11.3
				c-3.8,4.7-7.7,9.9-12.6,13.5c-1.2,0.8-2.3,1.6-3.5,2.3c-2.3,1.4-4.8,2.2-7.4,2.6c-1.2,0.3,3,0.5,2.4,0.5c1.5,0,3,0,4.5-0.1
				c0.8,0,1.6-0.1,2.3-0.2c2.7-0.8,5.2-2,7.5-3.6c2.4-1.7,4.7-3.5,6.8-5.6c2.3-2.2,4.4-4.5,6.5-6.8c3.1-3.4,6-7,9.4-10.1
				c2.1-2,4.3-3.8,6.7-5.5c2.2-1.5,4.6-2.7,7.1-3.6c-0.2-0.3-0.5-0.5-0.8-0.6c-1.1-0.4-2.3-0.8-3.4-1.1
				C506.1,116.1,503.6,115,502.6,115.5z"/>
			<path class="st17" d="M502.9,113.9c-2.1,0.8-4.1,1.9-5.8,3.3c-2,1.3-3.8,2.8-5.4,4.5c-3.6,3.5-6.6,7.4-9.8,11.2
				c-3,3.7-5.9,7.5-9.5,10.7c-1.1,1-2.2,1.9-3.3,2.9c-2.2,1.7-4.6,3.1-7.2,4.1c0.1-0.1,0.3-0.1,0.4-0.2c-1.3,0.3-2.5,0.6-3.8,0.9
				c-0.5,0.1-0.4,0.1,0,0.3c0.4,0.1,0.7,0.2,1.1,0.2c1.3,0.2,2.6,0.4,3.9,0.5c2,0.2,4,0.4,6.1,0.6c0.8,0.1,1.9,0.3,2.7,0
				c2.7-0.9,5.2-2.2,7.6-3.8c1.2-0.9,2.3-1.8,3.5-2.7c4-3.3,7.6-7.1,11.2-10.9c3-3.2,6-6.3,9.4-9.1c1.5-1.3,3.2-2.5,4.9-3.6
				c2.2-1.4,4.6-2.6,7.1-3.3c-0.3-0.4-0.7-0.7-1.2-0.9c-1.7-0.8-3.4-1.6-5.1-2.3c-1.7-0.8-3.4-1.5-5.1-2.2
				C503.9,114,503.4,113.9,502.9,113.9z"/>
			<path class="st17" d="M502.8,114.7c-2.1,0.8-4,1.9-5.7,3.3c-2,1.3-3.8,2.8-5.4,4.5c-3.6,3.5-6.7,7.4-9.8,11.3
				c-3.8,4.7-7.7,9.9-12.6,13.5c-1.2,0.8-2.3,1.6-3.5,2.3c-2.3,1.4-4.8,2.3-7.4,2.6c-1.2,0.3,2.8,0.6,2.1,0.6
				c1.4,0.1,2.7,0.1,4.1,0.1c0.7,0.1,1.4,0,2.1-0.1c2.7-0.7,5.2-1.9,7.5-3.5c2.4-1.6,4.7-3.5,6.8-5.5c2.3-2.2,4.4-4.5,6.5-6.8
				c3.1-3.4,6.1-7,9.4-10.3c2.1-2,4.3-3.9,6.7-5.5c2.2-1.6,4.6-2.8,7.1-3.6c-0.1-0.3-0.4-0.5-0.7-0.6c-1-0.4-2.1-0.9-3.1-1.2
				C506.2,115.5,503.8,114.2,502.8,114.7z"/>
			<path class="st17" d="M499.4,115.3c-4.6,3.1-2.5,1.4-6.7,5.3c-3.8,3.6-7.2,7.1-10.5,11.2c-4,5-7.7,10.5-12.5,14.8
				c-1.1,1-2.2,1.9-3.3,2.9c-3.2,2.4-6.7,3.9-10.8,4.5c-0.3,0.1-0.6,0.2-0.4,0.5c0.2,0.3,1,0.2,1.2,0.2c1.4-0.2,2.9-0.6,4.3-1
				c2.6-0.9,5-2.2,7.2-3.9c2.4-1.9,4.6-4.1,6.6-6.3c3.3-3.6,6.2-7.6,9.2-11.4c2.1-2.7,4.3-5.2,6.7-7.6c3.1-2.9,6.3-5.7,9.5-8.5
				C500.5,115.6,499.8,115,499.4,115.3z"/>
		</g>
	</g>
</g>
<rect x="266.2" y="326.2" class="st0" width="305.8" height="57.9"/>
<text transform="matrix(1 0 0 1 266.2446 339.7824)" class="st5 st14">Total Expected losses = EL</text>
<text transform="matrix(0.583 0 0 0.583 492.1953 345.7755)" class="st5 st14">S1</text>
<text transform="matrix(1 0 0 1 504.4306 339.7824)" class="st5 st14"> + EL</text>
<text transform="matrix(0.583 0 0 0.583 547.414 345.7755)" class="st5 st14">S2</text>
<rect x="23.5" y="109.6" class="st0" width="306" height="71.9"/>
<text transform="matrix(1 0 0 1 23.5251 123.2077)"><tspan x="0" y="0" class="st15 st14">With each loan having contractual </tspan><tspan x="0" y="21.6" class="st15 st14">cash flows of </tspan><tspan x="106.4" y="21.6" class="st10 st15 st14">$15</tspan><tspan x="134.5" y="21.6" class="st15 st14">/</tspan><tspan x="141.2" y="21.6" class="st10 st15 st14">month</tspan><tspan x="193.2" y="21.6" class="st15 st14"> for the next </tspan><tspan x="0" y="43.2" class="st10 st15 st14">10y</tspan><tspan x="27.1" y="43.2" class="st15 st14">.</tspan></text>
<path class="st16" d="M312.3,174.1h-285c-6.6,0-12-5.4-12-12v-47.5c0-6.6,5.4-12,12-12h285c6.6,0,12,5.4,12,12v47.5
	C324.3,168.7,318.9,174.1,312.3,174.1z"/>
<g>
	<g>
		<g>
			<path class="st17" d="M251.9,176.6c0.8,2.1,1.9,4,3.3,5.8c1.3,2,2.8,3.7,4.5,5.3c2.9,2.9,6.1,5.5,9.3,8.1c3.1,2.5,6.4,5,9.4,7.7
				c1.1,1.1,2.2,2.1,3.3,3.2c2,2.1,3.8,4.3,5.3,6.8c-0.1-0.1-0.1-0.2-0.2-0.3c1.4,2.3,2.3,4.8,2.8,7.5c0.4,1.4,0.9-3.4,0.8-2.7
				c0.2-1.8,0.4-3.6,0.6-5.3c0.1-0.9,0.2-1.9,0.1-2.8c-0.5-1.4-1-2.8-1.7-4.1c-1.4-2.6-3.1-4.9-5-7.1c-2.9-3.4-6.1-6.5-9.4-9.5
				c-3.2-3-6.6-6-9.6-9.3c-1.8-2-3.5-4.2-5-6.4c-1.5-2.2-2.6-4.5-3.5-7c-0.4,0.2-0.7,0.5-0.8,1c-0.7,1.3-1.4,2.7-2.1,4.1
				c-0.7,1.4-1.3,2.7-2,4.1C252,175.7,251.9,176.1,251.9,176.6z"/>
			<path class="st17" d="M252.2,178.6c0.8,2.1,1.9,4.1,3.3,5.8c1.3,2,2.8,3.8,4.6,5.4c3,2.9,6.1,5.5,9.4,8.1c3.2,2.5,6.4,5,9.4,7.8
				c1.1,1.1,2.2,2.1,3.3,3.2c2,2,3.8,4.3,5.3,6.8c-0.1-0.1-0.1-0.2-0.2-0.3c1.4,2.3,2.3,4.8,2.7,7.5c0.4,1.4,0.8-3.7,0.7-2.9
				c0.1-1.9,0.3-3.8,0.4-5.7c0.1-1,0.1-2,0-3c-0.4-1.5-1-2.8-1.7-4.2c-1.4-2.6-3-5-4.9-7.1c-2.9-3.4-6.2-6.5-9.5-9.5
				c-3.3-3-6.8-6-9.8-9.3c-1.9-2-3.6-4.2-5.2-6.5c-1.5-2.2-2.7-4.6-3.5-7.2c-0.4,0.3-0.6,0.6-0.7,1.1c-0.6,1.5-1.2,2.9-1.8,4.4
				c-0.6,1.5-1.1,3-1.6,4.5C252.2,177.8,252.1,178.2,252.2,178.6z"/>
			<path class="st17" d="M249.6,179.2c1.1,1.9,2.4,3.6,4,5.1c1.7,1.7,3.4,3.5,5,5.3c3.7,3.6,7.8,6.7,11.8,9.8
				c3.8,2.9,7.8,5.8,11,9.4c1.7,2.2,3.4,4.4,5.1,6.6c1.3,2.3,2.2,4.8,2.5,7.5c0.2,0.8,1-0.6,0.9-1.1c-0.4-2.7-1.3-5.2-2.7-7.6
				c-0.6-1.3-1.4-2.5-2.4-3.6c-2.9-3.6-6.3-6.6-9.9-9.5c-3.9-3.2-8-6.1-11.7-9.4c-2.5-2.2-4.8-4.6-7-7.1c-2.2-1.8-4.2-3.8-5.9-6.1
				C250,178,249.3,178.8,249.6,179.2z"/>
			<path class="st17" d="M250.1,183.9c1.2,2.8,2.8,5.3,4.8,7.5c1.1,1.2,2.2,2.4,3.4,3.6c2.5,2.4,5.1,4.5,7.8,6.7
				c3.9,3.1,8,6,11.7,9.3c2.3,2,4.4,4.1,6.3,6.5c2.6,3.2,4.2,6.8,4.8,10.9c0.2,0.8,0.7-1.4,0.6-1.1c0.2-1,0.5-2.4,0.2-3.4
				c-0.3-2-1-3.9-2-5.6c-0.9-1.9-2-3.7-3.3-5.3c-2.4-2.9-5.2-5.5-8.1-8c-3.1-2.6-6.4-5.1-9.5-7.7c-3.5-3.4-7-6.8-10.5-10.2
				c-1.8-2.1-3.3-4.5-4.4-7.1c-0.3-0.6-0.8,0.7-0.9,0.8C250.8,181.4,249.8,183.3,250.1,183.9z"/>
			<path class="st17" d="M251.6,179.4c0.8,2.1,1.9,4.1,3.4,5.8c1.3,2,2.9,3.8,4.6,5.4c3.5,3.5,7.5,6.6,11.4,9.7
				c3.7,3,7.6,5.9,10.8,9.4c1,1.1,1.9,2.2,2.9,3.3c1.7,2.2,3.1,4.6,4.1,7.2c-0.1-0.1-0.1-0.3-0.2-0.4c0.3,1.3,0.6,2.5,1,3.8
				c0.1,0.4,0.2,0.4,0.3,0c0.1-0.4,0.2-0.8,0.2-1.2c0.2-1.4,0.3-2.8,0.5-4.2c0.2-2.1,0.4-4.3,0.6-6.4c0.1-0.8,0.3-2-0.1-2.8
				c-0.9-2.7-2.2-5.2-3.9-7.5c-0.9-1.2-1.8-2.3-2.7-3.5c-3.3-4-7.2-7.5-11-11.1c-3.2-3-6.4-5.9-9.2-9.3c-1.3-1.5-2.6-3.2-3.6-4.9
				c-1.5-2.2-2.6-4.6-3.4-7.1c-0.4,0.3-0.7,0.8-0.9,1.3c-0.8,1.8-1.6,3.6-2.3,5.4c-0.8,1.8-1.5,3.7-2.2,5.5
				C251.6,178.4,251.5,178.9,251.6,179.4z"/>
			<path class="st17" d="M252.1,177.3c0.8,2.1,1.9,4,3.3,5.8c1.3,2,2.8,3.7,4.5,5.4c2.9,2.9,6.1,5.5,9.3,8.1c3.1,2.5,6.4,5,9.4,7.7
				c1.1,1.1,2.2,2.1,3.3,3.2c2,2.1,3.8,4.3,5.3,6.8c-0.1-0.1-0.1-0.2-0.2-0.3c0.6,1.3,1.3,2.7,1.9,4c-0.1-0.1-0.1-0.2-0.2-0.3
				c0.3,1.3,0.7,2.5,1,3.8c0.1,0.4,0.1,0.3,0.3,0c0.1-0.3,0.1-0.7,0.2-1c0.2-1.2,0.3-2.4,0.4-3.6c0.2-1.8,0.3-3.7,0.5-5.5
				c0-0.8,0.2-1.7-0.1-2.4c-0.5-1.3-1-2.6-1.6-3.8c-1.4-2.6-3.1-4.9-5-7.1c-2.9-3.4-6.1-6.5-9.3-9.5c-3.2-3-6.6-6-9.5-9.2
				c-1.8-2-3.5-4.2-4.9-6.4c-1.5-2.2-2.6-4.6-3.4-7.1c-0.4,0.3-0.7,0.6-0.8,1.1c-0.7,1.5-1.5,3-2.1,4.6c-0.7,1.5-1.4,3.1-2,4.6
				C252.1,176.4,252,176.8,252.1,177.3z"/>
			<path class="st17" d="M250.7,181.5c0.8,2.1,2,4,3.4,5.8c1.4,2,2.9,3.8,4.7,5.4c3.6,3.5,7.6,6.6,11.6,9.7c3.7,3,7.7,5.8,10.9,9.4
				c1.7,2.2,3.4,4.4,5.1,6.5c1.4,2.3,2.3,4.8,2.6,7.5c0.3,1.2,0.9-2.7,0.8-2.1c0.2-1.4,0.3-2.8,0.5-4.2c0.1-0.7,0.1-1.5,0.1-2.2
				c-0.6-2.7-1.8-5.2-3.4-7.5c-0.8-1.2-1.7-2.3-2.6-3.5c-2.4-3-5.3-5.7-8.2-8.2c-4.1-3.6-8.5-7.1-12.4-11c-2.1-2.1-4.1-4.3-5.9-6.7
				c-1.6-2.2-2.9-4.6-3.8-7.2c-0.3,0.1-0.5,0.4-0.6,0.8c-0.5,1.1-1,2.2-1.4,3.3C251.8,177.9,250.2,180.6,250.7,181.5z"/>
			<path class="st17" d="M250.9,179.9c0.9,2.1,2.2,4,3.7,5.7c1.5,2,3.1,3.8,4.9,5.4c3.7,3.6,7.8,6.6,11.9,9.8c3.8,3,7.7,5.9,11,9.4
				c1,1.1,1.9,2.2,2.9,3.3c2.6,3.2,4.1,6.8,4.6,10.8c0.1,0.4,0.4,0.3,0.6,0.1c0.3-0.2,0.4-1.5,0.3-1.8c-0.4-2.7-1.4-5.3-2.7-7.7
				c-0.8-1.2-1.6-2.5-2.4-3.7c-2.9-3.6-6.3-6.6-9.9-9.5c-3.8-3.1-7.9-6.1-11.6-9.3c-2.5-2.2-4.8-4.5-7-7c-2.1-2.2-3.8-4.6-5.1-7.2
				C251.6,177.5,250.7,179.5,250.9,179.9z"/>
			<path class="st17" d="M251.5,181.4c0.8,2.1,1.9,4.1,3.4,5.8c1.3,2,2.9,3.8,4.7,5.4c3,2.9,6.2,5.6,9.5,8.2c3.2,2.5,6.5,5,9.5,7.8
				c1.1,1.1,2.2,2.1,3.3,3.2c2,2,3.8,4.3,5.3,6.8c-0.1-0.1-0.1-0.2-0.2-0.3c1.4,2.3,2.3,4.8,2.6,7.5c0.4,1.5,0.8-3.8,0.8-3
				c0.2-2,0.3-4,0.4-5.9c0.1-1,0.1-2.1,0-3.1c-0.4-1.4-0.9-2.8-1.6-4.2c-1.4-2.6-3-5-4.9-7.1c-2.9-3.4-6.2-6.5-9.6-9.5
				c-3.4-3-7-6-10.1-9.3c-2-2.1-3.8-4.3-5.4-6.6c-1.5-2.2-2.7-4.6-3.6-7.2c-0.4,0.3-0.6,0.7-0.7,1.1c-0.6,1.5-1.2,3.1-1.8,4.6
				c-0.6,1.5-1.1,3.1-1.6,4.7C251.4,180.5,251.4,181,251.5,181.4z"/>
			<path class="st17" d="M251.7,178.3c0.8,2.1,1.9,4,3.3,5.8c1.3,2,2.8,3.8,4.6,5.4c3.5,3.5,7.4,6.6,11.3,9.6
				c3.7,3,7.5,5.9,10.8,9.4c1,1.1,1.9,2.2,2.9,3.3c1.8,2.2,3.1,4.6,4.1,7.2c-0.1-0.1-0.1-0.2-0.2-0.4c0.3,1.3,0.7,2.5,1,3.8
				c0.1,0.5,0.1,0.4,0.3,0c0.1-0.4,0.2-0.7,0.2-1.1c0.2-1.3,0.3-2.6,0.5-3.9c0.2-2,0.4-4,0.6-6c0.1-0.8,0.3-1.9-0.1-2.6
				c-0.9-2.7-2.2-5.2-3.9-7.5c-0.9-1.2-1.8-2.3-2.7-3.5c-3.3-4-7.2-7.5-11-11.1c-3.2-3-6.4-5.9-9.2-9.3c-1.3-1.5-2.5-3.2-3.6-4.9
				c-1.5-2.2-2.6-4.6-3.4-7.1c-0.4,0.3-0.7,0.7-0.9,1.2c-0.8,1.7-1.6,3.3-2.3,5c-0.8,1.7-1.5,3.4-2.2,5.1
				C251.7,177.3,251.6,177.8,251.7,178.3z"/>
			<path class="st17" d="M251.9,180.4c0.7,1.3,1.3,2.6,2,3.9c1.2,2,2.7,3.8,4.3,5.5c2.8,3.1,5.9,5.8,9.2,8.4
				c2.6,2.1,5.2,4.1,7.8,6.2c3.7,3,6.8,6.1,9.9,9.6c-0.1-0.1-0.1-0.2-0.2-0.3c0.9,1.2,1.7,2.5,2.6,3.7c-0.1-0.1-0.1-0.2-0.2-0.3
				c1.4,2.3,2.3,4.8,2.7,7.4c0.3,1.4,0.7-3.4,0.7-2.6c0.1-1.7,0.2-3.4,0.3-5.2c0.1-0.9,0.1-1.8,0-2.7c-0.8-2.7-2-5.2-3.6-7.5
				c-0.8-1.3-1.8-2.6-2.8-3.7c-2.9-3.4-6.3-6.5-9.6-9.5c-3.4-3.1-7-6-10.2-9.3c-2-2.1-3.8-4.3-5.5-6.6c-1.5-2.2-2.8-4.6-3.6-7.2
				c-0.3,0.2-0.6,0.5-0.7,1c-0.5,1.3-1,2.6-1.5,4c-0.5,1.3-0.9,2.7-1.3,4C251.8,179.7,251.8,180,251.9,180.4z"/>
			<path class="st17" d="M250.6,184.6c0.9,2.1,2,4,3.5,5.7c1.4,2,3,3.8,4.8,5.4c3.7,3.6,7.8,6.6,11.8,9.8c3.8,3,7.7,5.8,11,9.4
				c1,1.1,1.9,2.2,2.9,3.3c2.5,3.1,4.1,6.7,4.8,10.6c0.2,0.8,0.5,0.3,0.7-0.3c0.2-1,0.5-2.4,0.2-3.3c-1.2-4.1-2.6-7.7-5.4-11.2
				c-2.9-3.5-6.3-6.5-9.9-9.4c-3.8-3.1-7.8-6-11.4-9.3c-2.5-2.1-4.8-4.4-6.9-6.9c-1.9-2.2-3.4-4.6-4.6-7.2c-0.3-0.6-0.8,0.6-0.8,0.7
				C251.1,182.5,250.3,184,250.6,184.6z"/>
		</g>
	</g>
</g>
</svg>
