<?xml version="1.0" encoding="utf-8"?>
<!-- Generator: Adobe Illustrator 19.1.0, SVG Export Plug-In . SVG Version: 6.00 Build 0)  -->
<svg version="1.1" id="Layer_1" xmlns="http://www.w3.org/2000/svg" xmlns:xlink="http://www.w3.org/1999/xlink" x="0px" y="0px"
	 viewBox="0 0 824.2 369.9" style="enable-background:new 0 0 824.2 369.9;" xml:space="preserve">
<style type="text/css">
	.st0{fill:none;}
	.st1{display:none;}
	.st2{display:inline;}
	.st3{font-family:'MyriadPro-Regular';}
	.st4{font-size:12px;}
	.st5{fill:none;stroke:#9FFF5C;stroke-width:5;stroke-miterlimit:10;}
	.st6{fill:none;stroke:#00FFFF;stroke-width:5;stroke-miterlimit:10;}
	.st7{opacity:0.44;fill:#CCCCCC;stroke:#29ABE2;stroke-width:3;stroke-miterlimit:10;}
	.st8{opacity:0.48;fill:#FF7BAC;stroke:#C1272D;stroke-width:3;stroke-miterlimit:10;}
	.st9{fill:#337AB7;}
	.st10{font-family:'Avenir-Black';}
	.st11{font-size:36px;}
	.st12{font-size:24px;}
	.st13{font-size:18px;}
	.st14{font-family:'Avenir-Light';}
	.st15{opacity:0.25;fill:#9BFF45;}
	.st16{fill:#00FF00;}
	.st17{opacity:0.1091;fill:#00FF00;}
	.st18{font-family:'Avenir-Heavy';}
	.st19{fill:#9BFF45;}
</style>
<rect x="12.1" y="-21.6" class="st0" width="200.5" height="319.8"/>
<text transform="matrix(1 0 0 1 12.136 -13.0968)" class="st1"><tspan x="0" y="0" class="st2 st3 st4">Simple accounting example</tspan><tspan x="0" y="28.8" class="st2 st3 st4">$1000</tspan><tspan x="0" y="57.6" class="st2 st3 st4">500</tspan><tspan x="0" y="86.4" class="st2 st3 st4">300</tspan><tspan x="0" y="115.2" class="st2 st3 st4">Amortized debt loan</tspan><tspan x="0" y="144" class="st2 st3 st4">S1 </tspan><tspan x="0" y="158.4" class="st2 st3 st4">S2</tspan><tspan x="0" y="187.2" class="st2 st3 st4">Formula NPV</tspan><tspan x="0" y="216" class="st2 st3 st4">Formula total</tspan><tspan x="0" y="244.8" class="st2 st3 st4">Expample</tspan></text>
<path class="st5" d="M360.8,107.4c-13.4,12.2-1.9,24.3-17.6,50.7c-7.9,13.3-12.1,12.4-26.4,33.4c-11,16.1-16.7,24.2-17.6,34.7
	c-0.2,2.1-1.9,26.7,17.6,42.7c10.5,8.6,21.9,10.5,39.6,13.4c4.7,0.8,17.6,2.7,48.4,1.3c35.3-1.5,53.2-2.5,66-10.7
	c3.5-2.2,19.8-12.7,23.5-30.7c2.9-14.4-3.6-26.4-10.3-38.7c-5.5-10.2-7.5-9.8-23.5-32c-9.7-13.5-14.5-20.2-17.6-26.7
	c-9.8-20.7-4.1-27.4-11.7-36.1C417.4,93.2,378,91.7,360.8,107.4z"/>
<path class="st6" d="M267.9,178.9"/>
<path class="st7" d="M334.5,193.5c-18.8,15.2-21.4,45.8-4.2,63.5c14.1,14.6,37.7,16.6,53.1,6.2c23.1-15.5,23.3-55.8,1-71.9
	C370.4,181.2,348.9,181.9,334.5,193.5z"/>
<path class="st8" d="M420.9,207.9c-13.9,13.4-14.7,38.1,0,51c12.1,10.6,31,10.1,42.7,0.9c17.2-13.4,17.3-43.9,0-56.2
	C451.2,194.7,432.3,196.9,420.9,207.9z"/>
<rect x="343.1" y="206.3" class="st0" width="48.1" height="53.7"/>
<text transform="matrix(1 0 0 1 343.1441 233.4925)" class="st9 st10 st11">S</text>
<text transform="matrix(0.583 0 0 0.583 363.8077 245.4808)" class="st9 st10 st11">1</text>
<rect x="433" y="216.3" class="st0" width="37.9" height="41.5"/>
<text transform="matrix(1 0 0 1 432.9605 234.4208)" class="st9 st10 st12">S</text>
<text transform="matrix(0.583 0 0 0.583 446.7364 242.4125)" class="st9 st10 st12">2</text>
<rect x="423.2" y="179" class="st0" width="47.7" height="25.1"/>
<text transform="matrix(1 0 0 1 423.215 192.6491)" class="st10 st13" style="text-decoration: underline;">300</text>
<rect x="298.5" y="26.5" class="st0" width="205.1" height="30.9"/>
<text transform="matrix(1 0 0 1 298.4616 40.1156)" class="st10 st13" style="text-decoration: underline;">Portfolio of 800 Loans</text>
<rect x="525.3" y="100.2" class="st0" width="306" height="71.9"/>
<text transform="matrix(1 0 0 1 525.2999 113.8095)" class="st14 st13">Lifetime Expected Credit Losses</text>
<path class="st15" d="M796.5,136.9h-285c-6.6,0-12-5.4-12-12V94.3c0-6.6,5.4-12,12-12h285c6.6,0,12,5.4,12,12v30.6
	C808.5,131.5,803.1,136.9,796.5,136.9z"/>
<g>
	<path class="st16" d="M525.6,146.5c-17.1,8.5-23.2,32-40.9,39.3"/>
	<g>
		<g>
			<path class="st17" d="M514.6,141.4c-2,1-3.9,2.3-5.5,3.8c-1.8,1.5-3.5,3.2-4.9,5c-3.2,3.8-5.8,8-8.6,12.1
				c-2.6,3.9-5.2,8-8.4,11.5c-1,1.1-2,2.1-3.1,3.2c-2,1.9-4.3,3.5-6.8,4.7c0.1,0,0.2-0.1,0.4-0.1c-1.3,0.4-2.5,0.8-3.8,1.3
				c-0.4,0.1-0.4,0.1,0,0.3c0.4,0.1,0.7,0.2,1.1,0.2c1.3,0.2,2.5,0.4,3.8,0.5c2,0.2,3.9,0.5,5.9,0.6c0.7,0.1,1.9,0.3,2.6,0
				c2.6-1.1,5-2.5,7.2-4.4c1.1-1,2.2-2,3.2-3c3.7-3.6,6.9-7.8,10.1-11.9c2.7-3.4,5.4-6.9,8.5-10c1.4-1.5,2.9-2.8,4.5-4.1
				c2.1-1.6,4.3-3,6.7-4c-0.3-0.4-0.7-0.7-1.2-0.9c-1.7-0.8-3.4-1.6-5.1-2.4c-1.7-0.8-3.4-1.5-5.2-2.3
				C515.6,141.4,515.1,141.3,514.6,141.4z"/>
			<path class="st17" d="M515.4,143.1c-2,1-3.9,2.2-5.5,3.8c-1.9,1.5-3.5,3.1-5,5c-2.6,3.2-5,6.6-7.3,10c-2.3,3.4-4.4,6.8-6.9,10
				c-1,1.2-1.9,2.4-2.9,3.6c-1.9,2.2-4,4.2-6.3,5.8c0.1-0.1,0.2-0.1,0.3-0.2c-2.2,1.6-4.6,2.7-7.2,3.4c-1.3,0.5,3.5,0.6,2.8,0.6
				c1.8,0,3.6,0.1,5.4,0c0.9,0,1.9,0,2.8-0.2c1.4-0.5,2.7-1.2,4-2c2.4-1.6,4.7-3.4,6.7-5.5c3.2-3.2,6-6.7,8.7-10.2
				c2.8-3.5,5.4-7.2,8.4-10.6c1.9-2.1,3.9-4,6.1-5.7c2.1-1.7,4.4-3.1,6.8-4.1c-0.2-0.4-0.6-0.6-1-0.7c-1.4-0.5-2.8-1.1-4.2-1.5
				c-1.4-0.5-2.8-1-4.3-1.4C516.3,143,515.8,142.9,515.4,143.1z"/>
			<path class="st17" d="M511.9,138.8c-2.6,1.4-5,3.3-7,5.5c-1.1,1.2-2.2,2.5-3.4,3.7c-3.9,4.6-7,9.8-10.3,14.8
				c-2.6,3.9-5.2,7.7-8.5,11.1c-1.4,1.6-3,3-4.7,4.1c-2.2,1.5-4.6,2.5-7.2,3.1c-0.7,0.2,0.9,0.8,0.7,0.7c0.6,0.2,1.9,0.7,2.6,0.4
				c2.5-0.8,4.8-2,7-3.5c1-0.8,2.1-1.7,3.1-2.5c3.4-3,6.2-7,8.8-10.7c2.5-3.5,4.9-7,7.5-10.4c4.3-5.7,8.9-10.5,15-14.3
				c0.4-0.2-1.7-1.4-1.6-1.3C513.4,139.2,512.4,138.4,511.9,138.8z"/>
			<path class="st17" d="M510.7,144.2c-1.9,1.2-3.5,2.6-4.9,4.3c-1.6,1.7-3.3,3.5-4.8,5.4c-3.3,4-5.9,8.4-8.7,12.7
				c-2.6,4-5.1,8.3-8.4,11.8c-2,1.9-4.1,3.7-6.1,5.6c-2.2,1.5-4.7,2.6-7.3,3.1c-0.5,0.1-0.1,0.5,0.1,0.6c0.3,0.3,1.6,0,2-0.2
				c2.7-0.7,5.2-1.8,7.5-3.4c1.2-0.8,2.4-1.7,3.5-2.7c3.3-3.2,6.1-6.8,8.7-10.6c2.8-4.1,5.3-8.4,8.2-12.4c1.9-2.7,4-5.2,6.3-7.6
				c1.5-2.2,3.3-4.2,5.5-5.8C512.4,144.4,511,144,510.7,144.2z"/>
			<path class="st17" d="M515,143.7c-2,1-3.9,2.2-5.5,3.8c-1.9,1.5-3.5,3.1-5,5c-2.7,3.2-5,6.6-7.3,10c-2.3,3.4-4.5,6.8-7,10
				c-1,1.2-1.9,2.4-2.9,3.6c-1.9,2.2-4,4.1-6.3,5.8c0.1-0.1,0.2-0.1,0.3-0.2c-2.2,1.6-4.6,2.7-7.2,3.4c-1.5,0.5,4.2,0.4,3.4,0.4
				c2.2-0.1,4.3-0.1,6.5-0.3c1.1,0,2.3-0.1,3.4-0.3c1.4-0.6,2.7-1.4,4-2.1c2.4-1.6,4.7-3.5,6.7-5.6c3.1-3.2,5.9-6.6,8.7-10.1
				c2.7-3.4,5.4-7,8.4-10.3c1.9-2,3.9-3.8,6.1-5.5c2.1-1.7,4.4-3,6.9-4c-0.3-0.4-0.8-0.6-1.3-0.7c-1.7-0.5-3.4-1-5.2-1.5
				c-1.7-0.5-3.5-0.9-5.2-1.4C515.9,143.6,515.5,143.5,515,143.7z"/>
			<path class="st17" d="M515,142.2c-2,1-3.9,2.2-5.5,3.8c-1.8,1.5-3.5,3.1-4.9,5c-3.2,3.8-5.9,8-8.6,12.1c-2.6,3.9-5.2,8-8.4,11.5
				c-1,1.1-2,2.1-3.1,3.2c-2,1.9-4.3,3.5-6.8,4.7c0.1-0.1,0.2-0.1,0.4-0.2c-1.2,0.4-2.5,0.9-3.7,1.3c-0.4,0.2-0.4,0.1,0,0.3
				c0.4,0.1,0.7,0.1,1.1,0.2c1.3,0.1,2.6,0.2,3.9,0.3c2,0.1,4,0.3,6,0.4c0.7,0,1.9,0.2,2.6-0.2c2.6-1.1,5-2.6,7.2-4.5
				c1.1-1,2.1-2,3.2-3c3.7-3.6,6.9-7.8,10.1-11.8c2.7-3.4,5.4-6.8,8.5-9.9c1.4-1.5,2.9-2.8,4.5-4c2.1-1.6,4.3-3,6.7-4
				c-0.3-0.4-0.7-0.7-1.3-0.8c-1.7-0.8-3.4-1.5-5.1-2.2c-1.7-0.7-3.4-1.4-5.2-2C516,142.2,515.5,142.1,515,142.2z"/>
			<path class="st17" d="M513.3,143.8c-3.7,2.3-4.2,2.4-7.4,5.5c-3.5,3.4-6.5,7.6-9.2,11.7c-3.5,5.3-6.8,11-11.1,15.7
				c-1,1.1-2,2.1-3,3.2c-2.9,2.8-6.4,4.8-10.4,5.9c-1,0.3,2.4,0.4,1.8,0.4c1.6-0.1,3.7,0,5.2-0.6c2-0.6,3.8-1.5,5.4-2.8
				c1.8-1.1,3.5-2.5,5-4c2.2-2.1,4.2-4.6,6-7c2.9-3.7,5.4-7.7,8.2-11.5c4.5-6.1,8.8-10.9,15.8-14.7c0.8-0.5-1.6-0.9-1.5-0.9
				c-1-0.3-2.1-0.5-3.2-0.7C514.4,143.9,513.8,143.8,513.3,143.8z"/>
			<path class="st17" d="M512.8,140.2c-3.5,2.3-4.1,2.6-7.1,5.6c-3,3-5.6,6.5-8,10c-3.3,4.8-6.3,9.8-9.8,14.4
				c-1.8,2.4-3.8,4.7-5.9,6.8c-3,2.8-6.4,4.7-10.4,5.7c-0.7,0.2,0.8,0.7,0.7,0.7c0.6,0.2,1.7,0.4,2.3,0.2c1.2-0.5,2.5-1,3.7-1.5
				c1.8-0.9,3.5-2,5-3.4c2.8-2.3,5.3-5.1,7.5-8c2-2.6,3.8-5.3,5.6-8c2.3-3.6,4.9-6.9,7.8-10c3-4.5,6.8-8.1,11.5-10.8
				C516.3,141.5,513.3,139.9,512.8,140.2z"/>
			<path class="st17" d="M514.4,144.5c-2,1-3.8,2.2-5.4,3.8c-1.8,1.5-3.5,3.2-5,5c-3.3,3.8-6,8-8.8,12.2c-3.4,5-6.7,10.6-11.3,14.6
				c-1.1,0.9-2.2,1.8-3.2,2.7c-2.2,1.6-4.5,2.7-7.1,3.3c-1.2,0.4,3.1,0.2,2.4,0.3c1.5-0.2,3.1-0.3,4.6-0.5c0.8-0.1,1.6-0.2,2.4-0.5
				c2.6-1,5-2.4,7.2-4.3c2.3-1.9,4.3-3.9,6.2-6.2c2.1-2.4,4-4.9,5.8-7.4c2.7-3.7,5.4-7.5,8.4-11c1.9-2.2,3.9-4.2,6.1-6
				c2.1-1.7,4.3-3.2,6.8-4.3c-0.2-0.3-0.5-0.4-0.9-0.5c-1.2-0.3-2.4-0.5-3.6-0.8C518.1,144.9,515.4,143.9,514.4,144.5z"/>
			<path class="st17" d="M514.8,142.9c-2,1-3.9,2.2-5.5,3.8c-1.8,1.5-3.5,3.1-5,5c-3.2,3.8-5.9,8-8.7,12.1c-2.7,3.9-5.2,8-8.4,11.5
				c-1,1.1-2,2.1-3.1,3.2c-2,1.9-4.3,3.5-6.8,4.7c0.1-0.1,0.2-0.1,0.4-0.2c-1.2,0.4-2.5,0.9-3.7,1.3c-0.5,0.2-0.4,0.2,0,0.4
				c0.4,0,0.7,0.1,1.1,0.1c1.3,0.1,2.6,0.1,4,0.1c2,0,4.1,0.1,6.1,0c0.8,0,1.9,0.1,2.6-0.3c2.6-1.1,5-2.6,7.2-4.5c1.1-1,2.1-2,3.2-3
				c3.7-3.6,6.9-7.8,10.1-11.9c2.7-3.4,5.4-6.8,8.5-9.9c1.4-1.5,2.9-2.8,4.6-4c2.1-1.6,4.4-3,6.8-4c-0.3-0.4-0.8-0.6-1.3-0.8
				c-1.7-0.7-3.5-1.3-5.3-1.8c-1.8-0.6-3.5-1.2-5.3-1.7C515.8,142.9,515.3,142.8,514.8,142.9z"/>
			<path class="st17" d="M514.7,143.7c-2,1-3.8,2.2-5.4,3.8c-1.8,1.5-3.5,3.2-5,5c-3.2,3.8-6,8-8.7,12.2c-3.4,5-6.7,10.6-11.3,14.6
				c-1.1,0.9-2.2,1.8-3.2,2.7c-2.2,1.6-4.6,2.7-7.2,3.3c-1.2,0.4,2.8,0.4,2.2,0.4c1.4-0.1,2.8-0.1,4.2-0.3c0.7,0,1.4-0.1,2.2-0.3
				c2.6-1,5-2.4,7.2-4.2c2.3-1.9,4.3-3.9,6.2-6.2c2.1-2.4,4-4.9,5.8-7.4c2.8-3.7,5.4-7.6,8.4-11.1c1.9-2.2,3.9-4.3,6.2-6.1
				c2-1.7,4.3-3.2,6.7-4.3c-0.2-0.3-0.4-0.5-0.8-0.5c-1.1-0.3-2.2-0.7-3.2-0.9C518.1,144.3,515.6,143.2,514.7,143.7z"/>
			<path class="st17" d="M511.1,144.6c-1.1,0.9-2.2,1.7-3.3,2.7c-1,1.1-1.9,2.2-2.9,3.2c-2.4,2.4-4.6,5-6.6,7.8
				c-1.5,2.1-2.9,4.2-4.3,6.4c-2.6,4.1-5.2,8.2-8.3,12c-1.3,1.8-2.8,3.4-4.4,4.9c-2.9,2.7-6.3,4.5-10.3,5.5
				c-0.3,0.1-0.7,0.3-0.3,0.6c0.3,0.3,1.2,0,1.5-0.1c1.3-0.4,2.6-0.8,3.9-1.3c2.5-1.2,4.8-2.7,6.9-4.5c3.4-3.2,6.2-7,8.8-10.8
				c2.8-4.1,5.3-8.5,8.2-12.5c2-2.7,4.2-5.3,6.6-7.6c1.4-2.2,3.2-4.1,5.2-5.7C512.4,144.9,511.5,144.3,511.1,144.6z"/>
		</g>
	</g>
</g>
<rect x="198.7" y="326.2" class="st0" width="430.7" height="43.7"/>
<text transform="matrix(1 0 0 1 198.7045 339.7824)" class="st18 st13">Total Portfolio Expected Losses = EL</text>
<text transform="matrix(0.583 0 0 0.583 508.2822 345.7755)" class="st18 st13">S1</text>
<text transform="matrix(1 0 0 1 520.5175 339.7824)" class="st18 st13"> + EL</text>
<text transform="matrix(0.583 0 0 0.583 563.5009 345.7755)" class="st18 st13">S2</text>
<rect x="23.5" y="132.2" class="st0" width="306" height="71.9"/>
<text transform="matrix(1 0 0 1 23.5251 145.7808)" class="st14 st13">12 month Expected Credit Losses </text>
<path class="st15" d="M306.8,166.4h-285c-6.6,0-12-5.4-12-12v-26.8c0-6.6,5.4-12,12-12h285c6.6,0,12,5.4,12,12v26.8
	C318.8,161,313.4,166.4,306.8,166.4z"/>
<g>
	<path class="st19" d="M263.2,162.1c7.1,17.8,30,25.8,35.7,44.1"/>
	<g>
		<g>
			<path class="st17" d="M258.9,170.6c0.8,2.1,1.9,4,3.3,5.8c1.3,2,2.8,3.7,4.5,5.3c2.9,2.9,6.1,5.5,9.3,8.1c3.1,2.5,6.4,5,9.4,7.7
				c1.1,1.1,2.2,2.1,3.3,3.2c2,2.1,3.8,4.3,5.3,6.8c-0.1-0.1-0.1-0.2-0.2-0.3c1.4,2.3,2.3,4.8,2.8,7.5c0.4,1.4,0.9-3.4,0.8-2.7
				c0.2-1.8,0.4-3.6,0.6-5.3c0.1-0.9,0.2-1.9,0.1-2.8c-0.5-1.4-1-2.8-1.7-4.1c-1.4-2.6-3.1-4.9-5-7.1c-2.9-3.4-6.1-6.5-9.4-9.5
				c-3.2-3-6.6-6-9.6-9.3c-1.8-2-3.5-4.2-5-6.4c-1.5-2.2-2.6-4.5-3.5-7c-0.4,0.2-0.7,0.5-0.8,1c-0.7,1.3-1.4,2.7-2.1,4.1
				c-0.7,1.4-1.3,2.7-2,4.1C259,169.7,258.9,170.1,258.9,170.6z"/>
			<path class="st17" d="M259.2,172.6c0.8,2.1,1.9,4.1,3.3,5.8c1.3,2,2.8,3.8,4.6,5.4c3,2.9,6.1,5.5,9.4,8.1c3.2,2.5,6.4,5,9.4,7.8
				c1.1,1.1,2.2,2.1,3.3,3.2c2,2,3.8,4.3,5.3,6.8c-0.1-0.1-0.1-0.2-0.2-0.3c1.4,2.3,2.3,4.8,2.7,7.5c0.4,1.4,0.8-3.7,0.7-2.9
				c0.1-1.9,0.3-3.8,0.4-5.7c0.1-1,0.1-2,0-3c-0.4-1.5-1-2.8-1.7-4.2c-1.4-2.6-3-5-4.9-7.1c-2.9-3.4-6.2-6.5-9.5-9.5
				c-3.3-3-6.8-6-9.8-9.3c-1.9-2-3.6-4.2-5.2-6.5c-1.5-2.2-2.7-4.6-3.5-7.2c-0.4,0.3-0.6,0.6-0.7,1.1c-0.6,1.5-1.2,2.9-1.8,4.4
				c-0.6,1.5-1.1,3-1.6,4.5C259.2,171.8,259.1,172.2,259.2,172.6z"/>
			<path class="st17" d="M256.6,173.2c1.1,1.9,2.4,3.6,4,5.1c1.7,1.7,3.4,3.5,5,5.3c3.7,3.6,7.8,6.7,11.8,9.8
				c3.8,2.9,7.8,5.8,11,9.4c1.7,2.2,3.4,4.4,5.1,6.6c1.3,2.3,2.2,4.8,2.5,7.5c0.2,0.8,1-0.6,0.9-1.1c-0.4-2.7-1.3-5.2-2.7-7.6
				c-0.6-1.3-1.4-2.5-2.4-3.6c-2.9-3.6-6.3-6.6-9.9-9.5c-3.9-3.2-8-6.1-11.7-9.4c-2.5-2.2-4.8-4.6-7-7.1c-2.2-1.8-4.2-3.8-5.9-6.1
				C257,172,256.3,172.8,256.6,173.2z"/>
			<path class="st17" d="M257.1,177.9c1.2,2.8,2.8,5.3,4.8,7.5c1.1,1.2,2.2,2.4,3.4,3.6c2.5,2.4,5.1,4.5,7.8,6.7
				c3.9,3.1,8,6,11.7,9.3c2.3,2,4.4,4.1,6.3,6.5c2.6,3.2,4.2,6.8,4.8,10.9c0.2,0.8,0.7-1.4,0.6-1.1c0.2-1,0.5-2.4,0.2-3.4
				c-0.3-2-1-3.9-2-5.6c-0.9-1.9-2-3.7-3.3-5.3c-2.4-2.9-5.2-5.5-8.1-8c-3.1-2.6-6.4-5.1-9.5-7.7c-3.5-3.4-7-6.8-10.5-10.2
				c-1.8-2.1-3.3-4.5-4.4-7.1c-0.3-0.6-0.8,0.7-0.9,0.8C257.8,175.4,256.8,177.3,257.1,177.9z"/>
			<path class="st17" d="M258.6,173.4c0.8,2.1,1.9,4.1,3.4,5.8c1.3,2,2.9,3.8,4.6,5.4c3.5,3.5,7.5,6.6,11.4,9.7
				c3.7,3,7.6,5.9,10.8,9.4c1,1.1,1.9,2.2,2.9,3.3c1.7,2.2,3.1,4.6,4.1,7.2c-0.1-0.1-0.1-0.3-0.2-0.4c0.3,1.3,0.6,2.5,1,3.8
				c0.1,0.4,0.2,0.4,0.3,0c0.1-0.4,0.2-0.8,0.2-1.2c0.2-1.4,0.3-2.8,0.5-4.2c0.2-2.1,0.4-4.3,0.6-6.4c0.1-0.8,0.3-2-0.1-2.8
				c-0.9-2.7-2.2-5.2-3.9-7.5c-0.9-1.2-1.8-2.3-2.7-3.5c-3.3-4-7.2-7.5-11-11.1c-3.2-3-6.4-5.9-9.2-9.3c-1.3-1.5-2.6-3.2-3.6-4.9
				c-1.5-2.2-2.6-4.6-3.4-7.1c-0.4,0.3-0.7,0.8-0.9,1.3c-0.8,1.8-1.6,3.6-2.3,5.4c-0.8,1.8-1.5,3.7-2.2,5.5
				C258.6,172.4,258.5,172.9,258.6,173.4z"/>
			<path class="st17" d="M259.1,171.3c0.8,2.1,1.9,4,3.3,5.8c1.3,2,2.8,3.7,4.5,5.4c2.9,2.9,6.1,5.5,9.3,8.1c3.1,2.5,6.4,5,9.4,7.7
				c1.1,1.1,2.2,2.1,3.3,3.2c2,2.1,3.8,4.3,5.3,6.8c-0.1-0.1-0.1-0.2-0.2-0.3c0.6,1.3,1.3,2.7,1.9,4c-0.1-0.1-0.1-0.2-0.2-0.3
				c0.3,1.3,0.7,2.5,1,3.8c0.1,0.4,0.1,0.3,0.3,0c0.1-0.3,0.1-0.7,0.2-1c0.2-1.2,0.3-2.4,0.4-3.6c0.2-1.8,0.3-3.7,0.5-5.5
				c0-0.8,0.2-1.7-0.1-2.4c-0.5-1.3-1-2.6-1.6-3.8c-1.4-2.6-3.1-4.9-5-7.1c-2.9-3.4-6.1-6.5-9.3-9.5c-3.2-3-6.6-6-9.5-9.2
				c-1.8-2-3.5-4.2-4.9-6.4c-1.5-2.2-2.6-4.6-3.4-7.1c-0.4,0.3-0.7,0.6-0.8,1.1c-0.7,1.5-1.5,3-2.1,4.6c-0.7,1.5-1.4,3.1-2,4.6
				C259.1,170.4,259,170.8,259.1,171.3z"/>
			<path class="st17" d="M257.7,175.5c0.8,2.1,2,4,3.4,5.8c1.4,2,2.9,3.8,4.7,5.4c3.6,3.5,7.6,6.6,11.6,9.7c3.7,3,7.7,5.8,10.9,9.4
				c1.7,2.2,3.4,4.4,5.1,6.5c1.4,2.3,2.3,4.8,2.6,7.5c0.3,1.2,0.9-2.7,0.8-2.1c0.2-1.4,0.3-2.8,0.5-4.2c0.1-0.7,0.1-1.5,0.1-2.2
				c-0.6-2.7-1.8-5.2-3.4-7.5c-0.8-1.2-1.7-2.3-2.6-3.5c-2.4-3-5.3-5.7-8.2-8.2c-4.1-3.6-8.5-7.1-12.4-11c-2.1-2.1-4.1-4.3-5.9-6.7
				c-1.6-2.2-2.9-4.6-3.8-7.2c-0.3,0.1-0.5,0.4-0.6,0.8c-0.5,1.1-1,2.2-1.4,3.3C258.8,171.9,257.2,174.6,257.7,175.5z"/>
			<path class="st17" d="M257.9,173.9c0.9,2.1,2.2,4,3.7,5.7c1.5,2,3.1,3.8,4.9,5.4c3.7,3.6,7.8,6.6,11.9,9.8c3.8,3,7.7,5.9,11,9.4
				c1,1.1,1.9,2.2,2.9,3.3c2.6,3.2,4.1,6.8,4.6,10.8c0.1,0.4,0.4,0.3,0.6,0.1c0.3-0.2,0.4-1.5,0.3-1.8c-0.4-2.7-1.4-5.3-2.7-7.7
				c-0.8-1.2-1.6-2.5-2.4-3.7c-2.9-3.6-6.3-6.6-9.9-9.5c-3.8-3.1-7.9-6.1-11.6-9.3c-2.5-2.2-4.8-4.5-7-7c-2.1-2.2-3.8-4.6-5.1-7.2
				C258.6,171.5,257.7,173.5,257.9,173.9z"/>
			<path class="st17" d="M258.5,175.4c0.8,2.1,1.9,4.1,3.4,5.8c1.3,2,2.9,3.8,4.7,5.4c3,2.9,6.2,5.6,9.5,8.2c3.2,2.5,6.5,5,9.5,7.8
				c1.1,1.1,2.2,2.1,3.3,3.2c2,2,3.8,4.3,5.3,6.8c-0.1-0.1-0.1-0.2-0.2-0.3c1.4,2.3,2.3,4.8,2.6,7.5c0.4,1.5,0.8-3.8,0.8-3
				c0.2-2,0.3-4,0.4-5.9c0.1-1,0.1-2.1,0-3.1c-0.4-1.4-0.9-2.8-1.6-4.2c-1.4-2.6-3-5-4.9-7.1c-2.9-3.4-6.2-6.5-9.6-9.5
				c-3.4-3-7-6-10.1-9.3c-2-2.1-3.8-4.3-5.4-6.6c-1.5-2.2-2.7-4.6-3.6-7.2c-0.4,0.3-0.6,0.7-0.7,1.1c-0.6,1.5-1.2,3.1-1.8,4.6
				c-0.6,1.5-1.1,3.1-1.6,4.7C258.4,174.5,258.4,175,258.5,175.4z"/>
			<path class="st17" d="M258.7,172.3c0.8,2.1,1.9,4,3.3,5.8c1.3,2,2.8,3.8,4.6,5.4c3.5,3.5,7.4,6.6,11.3,9.6
				c3.7,3,7.5,5.9,10.8,9.4c1,1.1,1.9,2.2,2.9,3.3c1.8,2.2,3.1,4.6,4.1,7.2c-0.1-0.1-0.1-0.2-0.2-0.4c0.3,1.3,0.7,2.5,1,3.8
				c0.1,0.5,0.1,0.4,0.3,0c0.1-0.4,0.2-0.7,0.2-1.1c0.2-1.3,0.3-2.6,0.5-3.9c0.2-2,0.4-4,0.6-6c0.1-0.8,0.3-1.9-0.1-2.6
				c-0.9-2.7-2.2-5.2-3.9-7.5c-0.9-1.2-1.8-2.3-2.7-3.5c-3.3-4-7.2-7.5-11-11.1c-3.2-3-6.4-5.9-9.2-9.3c-1.3-1.5-2.5-3.2-3.6-4.9
				c-1.5-2.2-2.6-4.6-3.4-7.1c-0.4,0.3-0.7,0.7-0.9,1.2c-0.8,1.7-1.6,3.3-2.3,5c-0.8,1.7-1.5,3.4-2.2,5.1
				C258.7,171.3,258.6,171.8,258.7,172.3z"/>
			<path class="st17" d="M258.9,174.4c0.7,1.3,1.3,2.6,2,3.9c1.2,2,2.7,3.8,4.3,5.5c2.8,3.1,5.9,5.8,9.2,8.4
				c2.6,2.1,5.2,4.1,7.8,6.2c3.7,3,6.8,6.1,9.9,9.6c-0.1-0.1-0.1-0.2-0.2-0.3c0.9,1.2,1.7,2.5,2.6,3.7c-0.1-0.1-0.1-0.2-0.2-0.3
				c1.4,2.3,2.3,4.8,2.7,7.4c0.3,1.4,0.7-3.4,0.7-2.6c0.1-1.7,0.2-3.4,0.3-5.2c0.1-0.9,0.1-1.8,0-2.7c-0.8-2.7-2-5.2-3.6-7.5
				c-0.8-1.3-1.8-2.6-2.8-3.7c-2.9-3.4-6.3-6.5-9.6-9.5c-3.4-3.1-7-6-10.2-9.3c-2-2.1-3.8-4.3-5.5-6.6c-1.5-2.2-2.8-4.6-3.6-7.2
				c-0.3,0.2-0.6,0.5-0.7,1c-0.5,1.3-1,2.6-1.5,4c-0.5,1.3-0.9,2.7-1.3,4C258.8,173.7,258.8,174,258.9,174.4z"/>
			<path class="st17" d="M257.6,178.6c0.9,2.1,2,4,3.5,5.7c1.4,2,3,3.8,4.8,5.4c3.7,3.6,7.8,6.6,11.8,9.8c3.8,3,7.7,5.8,11,9.4
				c1,1.1,1.9,2.2,2.9,3.3c2.5,3.1,4.1,6.7,4.8,10.6c0.2,0.8,0.5,0.3,0.7-0.3c0.2-1,0.5-2.4,0.2-3.3c-1.2-4.1-2.6-7.7-5.4-11.2
				c-2.9-3.5-6.3-6.5-9.9-9.4c-3.8-3.1-7.8-6-11.4-9.3c-2.5-2.1-4.8-4.4-6.9-6.9c-1.9-2.2-3.4-4.6-4.6-7.2c-0.3-0.6-0.8,0.6-0.8,0.7
				C258.1,176.5,257.3,178,257.6,178.6z"/>
		</g>
	</g>
</g>
<rect x="349.3" y="165" class="st0" width="47.7" height="25.1"/>
<text transform="matrix(1 0 0 1 349.2996 178.6452)" class="st10 st13" style="text-decoration: underline;">500</text>
</svg>
