<?xml version="1.0" encoding="utf-8"?>
<!-- Generator: Adobe Illustrator 19.1.0, SVG Export Plug-In . SVG Version: 6.00 Build 0)  -->
<svg version="1.1" xmlns="http://www.w3.org/2000/svg" xmlns:xlink="http://www.w3.org/1999/xlink" x="0px" y="0px"
	 viewBox="0 0 444.2 205.7" style="enable-background:new 0 0 444.2 205.7;" xml:space="preserve">
<style type="text/css">
	.st0{fill:#FFFFFF;}
	.st1{opacity:0.1091;}
	.st2{fill:#ED1C24;}
	.st3{fill:#337AB7;}
	.st4{fill:none;}
	.st5{font-family:'PalatinoLinotype-Roman';}
	.st6{font-size:14px;}
	.st7{font-family:'Avenir-Heavy';}
	.st8{font-size:12px;}
	.st9{fill:#3F3F3F;}
	.st10{font-family:'BookmanOldStyle-Bold';}
	.st11{font-size:16px;}
	.st12{fill:#3284FF;}
	.st13{letter-spacing:20;}
	.st14{font-family:'Avenir-Black';}
	.st15{font-size:36px;}
</style>
<g id="Layer_1">
	<g>
		<path class="st0" d="M35.8,91.5c-19.3,21.2-20.4,55.6,0,77c21.5,22.6,59,22.1,81,0c21.8-21.8,22.8-58.9,0-80.7
			C93.7,65.6,56.3,68.9,35.8,91.5z"/>
		<g>
			<g>
				<path class="st1" d="M29.5,91.9c-2.8,3-5.2,6.3-7.1,9.9c-2,3.7-3.6,7.5-4.8,11.5c-2.4,8.1-3,16.7-2,25c1,8.5,3.8,16.8,8.3,24.1
					c3.5,5.7,8,10.7,13.2,14.9c11.5,9.6,27.5,14,42.3,12.9c16.4-1.2,31.8-8.6,42.6-21c10.6-12.2,16.2-28.5,15.2-44.7
					c-1-16.3-8.4-31.8-21.1-42.2C103.9,72.6,88.6,67.8,73,69c-8,0.6-15.9,2.8-23.1,6.3c-3.6,1.8-7.1,3.9-10.3,6.3
					c-3.3,2.5-6.3,5.2-9,8.3c-0.8,0.9-0.1,1.5,0.7,2c0.7,0.4,3.1,1.6,3.9,0.8c2.5-2.8,5.2-5.3,8.2-7.6c3-2.2,6.1-4.2,9.4-5.8
					c6.6-3.2,13.9-5.1,21.2-5.7c13.2-1,26.5,2.5,37.2,10.4c12.9,9.6,21.1,25.2,21.6,41.3c0.4,14.1-3.6,28.1-12.6,39.2
					c-8.9,11-22.1,18.3-36.1,20.3c-15.7,2.3-32.3-1.8-44.5-12.1c-10.7-9.1-17.3-22.4-18.6-36.3c-0.7-7.9,0.3-15.9,2.7-23.4
					c1.2-3.8,2.8-7.5,4.8-10.9c2-3.4,4.3-6.6,7-9.4c0.9-1.1-1.1-1.5-1.6-1.5C32.9,91.1,30.4,90.9,29.5,91.9z"/>
				<path class="st1" d="M30.4,88.9c-1.3,1.6-2.5,3.1-3.8,4.7c-1.9,2.5-3.4,5.2-4.6,8c-1.8,3.8-3.2,7.7-4.2,11.8
					c-2.2,9.3-2.4,19-0.3,28.3c2.1,9.6,6.7,18.5,13.1,25.9c6.6,7.5,14.9,13.2,24.3,16.5c18.2,6.5,39.4,3.8,55.6-6.8
					c8.3-5.4,15.1-13,19.8-21.7c2.1-3.8,3.7-7.8,5-11.9c1.5-5,2.7-10.4,2.8-15.7c0.3-14.1-3.7-27.9-12.2-39.2
					c-5.9-7.8-13.7-13.7-22.5-17.8c-8.3-3.8-17.6-5.4-26.6-5c-6.9,0.3-13.8,1.6-20.3,4c-3.8,1.4-7.4,3.2-10.8,5.3
					c-5.4,3.2-9.7,7.3-14,11.7c-0.9,0.9-0.1,1.5,0.7,2c0.7,0.4,3.2,1.6,4,0.9c2.6-2.7,5.4-5.2,8.5-7.3c2.2-1.6,4.6-3,7.2-4.2
					c5-2.5,10.1-4.2,15.5-5.2c6.1-1.1,12.7-1.6,18.9-0.4c12.4,7.8,24.8,15.5,37.2,23.3c4.2,6.6,7,13.6,8.3,21.2
					c1.9,11.5,0.3,23.6-4.5,34.2c-5.5,12.1-15.3,21.6-27.3,27.2c-11.7,5.5-25.7,7.2-38.3,3.9c-12.2-3.1-23.1-9.9-30.6-20
					c-7.4-9.9-10.7-22-10.7-34.3c0-6.1,1.4-12.1,3.2-17.8c1.3-3.9,2.9-7.6,5-11.1c2-3.4,4.4-6.6,7.1-9.5c0.8-1-0.9-1.5-1.4-1.5
					C33.2,88.1,31.2,88,30.4,88.9z"/>
				<path class="st1" d="M31.2,91.4c-2.7,3-5.1,6.3-7.1,9.9c-2,3.7-3.6,7.5-4.8,11.5c-2.4,8.1-3.1,16.7-2.1,25.1
					c1.8,15.2,9.4,29.5,21.4,39.1c13.4,10.7,31.8,15.3,48.7,12.1c15.1-2.9,28.8-10.5,38.4-22.8c9.2-11.8,14-27.2,13-42.2
					c-1.1-17.4-9.5-33.8-23.6-44.2c-11.6-8.5-26.1-12.5-40.4-11.4c-8,0.6-15.9,2.7-23.1,6.2c-3.6,1.8-7.1,3.9-10.3,6.3
					c-3.3,2.5-6.3,5.2-9,8.3c-0.7,0.7-0.3,1.5,0.5,1.9c0.6,0.4,2.5,1.3,3.2,0.6c2.5-2.8,5.3-5.4,8.4-7.7c3-2.2,6.3-4.2,9.7-5.8
					c6.8-3.2,14.1-5,21.6-5.4c13.2-0.7,26.5,3,37,11.2c12.6,9.8,20.3,25.2,20.7,41.1c0.3,13.8-3.7,27.5-12.4,38.4
					c-8.7,10.9-21.5,18.2-35.3,20.4c-15.6,2.6-32.2-1.2-44.6-11.2c-11-9-18-22.3-19.4-36.4c-0.8-8,0.1-16.1,2.5-23.7
					c1.2-3.9,2.8-7.6,4.8-11.1c2-3.4,4.3-6.6,6.9-9.5c0.8-0.9-0.7-1.5-1.3-1.5C33.7,90.6,31.9,90.5,31.2,91.4z"/>
				<path class="st1" d="M33.2,93.5c-3,3.8-5,6-7.3,10.3c-2,3.7-3.5,7.6-4.8,11.6c-1.8,5.8-2.7,12.7-2.4,18.7
					c0.2,5.3,1,10.6,2.5,15.7c3.1,10.7,8.8,20,17.1,27.5c5.7,5.1,12.3,9.2,19.6,11.8c4.2,1.5,8.6,2.6,13.1,3.2
					c6.3,0.8,12.5,0.6,18.7-0.4c10.6-1.7,21.3-6.5,29.5-13.5c8.4-7.3,14.5-16.4,18.3-26.8c2.1-5.9,3.3-12.3,3.6-18.5
					c0.2-6.1-0.5-13-2.2-18.9c-3.1-10.6-8.5-20-16.5-27.7c-7.5-7.3-17.4-12.1-27.5-14.5c-10.8-2.6-22.5-1.6-33,1.8
					c-4.8,1.6-9.5,3.6-13.7,6.3c-1.7,1.1-3.4,2.3-5.1,3.4c-3.3,2.5-6.3,5.3-9.1,8.4c-1.4,1.4,1.3,3,2.3,2c3.4-3.6,6.8-6.8,10.9-9.7
					c4-2.7,8.2-5,12.8-6.7c8.9-3.3,19-4.8,28.5-3.3c8.8,1.3,17.1,4.4,24.4,9.7c8.4,6.1,14.7,14.3,18.5,24c3.2,8.3,4.3,17.2,3.5,26.1
					c-0.3,2.9-0.8,5.8-1.5,8.6c-3.4,17.9-19.9,22.3-49.5,13.3c-16.3,3.5-32.6,7-48.8,10.5c-1.2-1.6-2.4-3.3-3.6-4.9
					c-0.9-1.7-1.9-3.4-2.8-5c-4.3-8.7-6.4-19.2-5.5-28.9c0.4-4,1.1-8,2.1-11.8c2.1-7.7,6.2-14.1,11.1-20.4c0.4-0.5,0.6-1.4-0.1-1.8
					C35.7,93,33.6,93,33.2,93.5z"/>
				<path class="st1" d="M33.4,91.1c-3.3,4.1-4.5,5.3-7,9.9c-1.7,3-2.9,5.8-4,9c-3.5,10.1-4.4,20.7-2.5,31.2
					c0.9,5.3,2.5,10.4,4.7,15.3c1.3,3,3,5.8,4.9,8.4c1.8,2.8,3.9,5.4,6.4,7.8c7.9,7.6,17.5,13.1,28.2,15.7
					c25.8,6.2,54.3-4.9,68-27.8c5.5-9.2,8.8-19.9,9.1-30.6c0.3-11.7-2.8-23.2-8.7-33.2c-8.2-13.8-22-23.1-37.5-26.9
					c-9.8-2.4-20.2-1.8-30,0.7c-5.7,1.4-11.7,4-16.7,7.1c-1.7,1.1-3.4,2.3-5.1,3.4c-3.3,2.5-6.3,5.3-9,8.3c-1.4,1.5,1.7,3.1,2.7,2.1
					c3.5-3.5,6.9-6.7,11-9.4c4-2.6,8.3-4.8,12.8-6.4c8.8-3.1,18.9-4.1,28.1-2.5c8.5,1.5,16.5,4.7,23.4,9.8c8.2,6,14.2,13.9,18,23.3
					c1.8,4.4,3.1,9.2,3.6,14c0.1,1.9,0.2,3.8,0.4,5.7c-26.9,17.9-53.9,35.8-80.8,53.8c-4.6-1.8-8.9-5-12.6-8.2
					c-3.9-3.4-7.4-7.3-10.1-11.7c-5.2-8.3-8.3-18.7-8.3-28.6c0-4,0.4-8.1,1.1-12c1.7-9.9,6.6-18.5,12.8-26.4
					c0.4-0.5,0.6-1.4-0.1-1.8C35.8,90.6,33.8,90.6,33.4,91.1z"/>
				<path class="st1" d="M27.7,88.2c-1.3,1.6-2.6,3.1-3.8,4.7c-1.8,2.5-3.4,5.2-4.6,8c-2.2,4.7-4,9.7-4.8,14.9
					c-1.5,9.5-1.2,19,1.4,28.3c1.4,5.1,3.4,10.3,6.2,14.8c2.4,3.8,5.1,7.3,8.2,10.6c7.5,7.9,17.9,13.5,28.4,16
					c20.2,4.9,42.2-1,57.4-15.1c7.2-6.7,12.7-15.1,16-24.4c3.5-9.9,4.6-21.1,2.7-31.5c-1.8-9.6-5.4-18.6-11.3-26.3
					c-3.5-4.6-7.5-8.5-12.1-11.9c-8.2-6.2-18.2-9.7-28.3-11C73.2,63.9,63,65.6,53.7,69c-3.9,1.4-7.8,3.4-11.3,5.6
					c-5.1,3.2-9.3,7.1-13.5,11.5c-1,1,0.2,1.7,1.2,2.1c1.1,0.5,2.2,0.9,3.3,1.2c0.6,0.3,1.3,0.3,1.9,0.1c12-13.9,27.8-14.2,47.4-1.1
					c20.9-6.9,35-3.3,42.2,10.8c2.3,4.3,4.1,8.8,5.3,13.6c2.6,10.5,2.3,21.8-1.1,32.1c-3.5,11-10.3,20.4-19.5,27.4
					c-9,6.8-20.2,11.2-31.5,11.8c-10.5,0.6-20.6-1.3-30-6c-5.5-2.7-11.1-6.9-15.1-11.6c-4.1-4.7-7.7-10-9.9-15.9
					c-3.6-9.6-4.7-19.6-3.4-29.8c0.7-5.7,2.6-12.2,5.2-17.4c0.9-1.8,1.9-3.5,2.8-5.3c2-3.4,4.4-6.6,7.1-9.4c1-1.2-1.4-1.5-1.9-1.5
					c-1.2,0-2.3,0-3.5,0.2C28.8,87.5,28.2,87.7,27.7,88.2z"/>
				<path class="st1" d="M27.6,91.2c-2.6,3.2-5.1,6.3-7.1,9.9c-2,3.6-3.6,7.6-4.8,11.6c-2.2,7.1-2.7,14.8-2.1,22.2
					c0.7,9.5,3.6,18.8,8.5,27c6.3,10.4,16.1,18.4,27.3,23.1c7.9,3.4,16.5,5,25.1,4.9c9.6-0.2,19.5-2.4,27.9-6.9
					c7.8-4.1,14.8-9.7,20.2-16.7c5.3-6.8,9.2-15,11.2-23.3c4.4-17.7,0.8-37.1-10.3-51.7C112.6,77,95.3,68.4,77.4,68.1
					c-9-0.2-18.1,1.8-26.4,5.3c-3.7,1.6-7.2,3.5-10.6,5.8c-4.3,2.9-7.9,6.3-11.5,10c-1,1,0.1,1.6,1,2.1c0.7,0.4,4,2,4.8,1.2
					c2.4-2.7,5.1-5.2,8-7.4c2.9-2.2,6-4.1,9.2-5.6c6.5-3.2,13.5-5.1,20.7-5.7c13-1.1,26.2,2.1,36.8,9.7
					c13.1,9.3,21.6,24.8,22.3,40.9c0.7,14.3-3.2,28.6-12.2,39.9c-9,11.3-22.4,18.8-36.7,20.8c-16,2.2-32.8-2.2-44.9-12.9
					c-10.5-9.3-16.9-22.7-17.9-36.7c-0.6-7.8,0.5-15.8,3-23.2c1.3-3.8,2.9-7.4,4.9-10.8c2-3.4,4.3-6.5,7.1-9.4
					c1.1-1.3-1.6-1.5-2-1.5c-1.2,0-2.5,0-3.7,0.2C28.7,90.5,28.1,90.7,27.6,91.2z"/>
				<path class="st1" d="M30.1,94.6c-2.1,2.2-3.9,4.7-5.5,7.3c-1.2,1.7-2.2,3.5-3,5.4c-2.3,4.7-4,9.7-5,14.9
					c-1.6,8.5-1.4,17.4,0.6,25.8c2.5,10.5,7.7,20.6,15.5,28.1c7.9,7.6,17.4,12.9,28.1,15.5c10.3,2.5,21.5,2.3,31.7-0.7
					c4.2-1.3,8.3-2.9,12.2-4.9c8.7-4.4,16.2-11.3,21.7-19.2c6.2-8.9,9.9-19.2,11-30c1-9.6-0.4-19.2-3.7-28.3
					c-3.8-10.2-10.9-19.4-19.7-25.8c-8.2-6-18.3-10.1-28.5-11.1c-9.1-0.9-18.2,0-26.8,2.9c-4.8,1.6-9.4,3.6-13.7,6.3
					c-1.7,1.1-3.3,2.3-5,3.4c-3.2,2.5-6.2,5.3-8.9,8.3c-0.7,0.7-0.3,1.5,0.5,1.9c0.6,0.3,2.5,1.3,3.2,0.6c2.4-2.9,5.1-5.5,8.1-7.9
					c1.5-1.1,3.1-2.2,4.6-3.3c4.6-3.1,10.1-5.4,15.3-7c10.7-3.1,23.1-3.3,33.7,0.3c10.8,3.7,20,10.2,26.8,19.4
					c7.3,10,10.8,21.9,10.4,34.3c-0.3,11.3-3.8,21.9-10,31.3c-3.3,5-7.9,9.6-12.7,13.2c-4.7,3.5-10.1,6.3-15.7,8.1
					c-26.4,8.9-64.8-1.2-72.2-38.9c-1.1-5.7-1.7-11.5-1.1-17.3c0.5-4.9,1.6-9.7,3.3-14.3c0.9-2.8,2.1-5.5,3.6-8.1
					c1.9-3.4,4.2-6.6,6.9-9.5c0.9-1.1-1-1.5-1.5-1.5C33.2,93.8,30.9,93.6,30.1,94.6z"/>
				<path class="st1" d="M33.3,88c-4.2,4.7-3.5,3.6-6.1,7.7c-2.8,4.4-5,9.2-6.5,14.2c-1.5,5.1-2.3,10.4-2.5,15.7
					c-0.2,5.3,0.1,10.8,1.4,15.9c2.6,10.5,7.7,20.9,15.6,28.5c7.8,7.5,17.6,13.2,28.3,15.6c9.5,2.1,19.1,2.1,28.6-0.1
					c10.7-2.4,20.4-7.4,28.4-14.9c11.4-10.5,18.2-24.9,19.8-40.3c1-9.6-0.4-19.6-4.1-28.5c-4.8-12-13.5-22.1-24.8-28.5
					c-8.8-5-19-7.9-29.1-7.9c-7,0-14,1-20.7,3.2c-4.8,1.6-9.4,3.5-13.7,6.1c-5.3,3.2-9.7,7.2-14.1,11.6c-1.6,1.6,2.5,3.3,3.5,2.4
					c3.6-3.4,7-6.4,11.2-9c4.1-2.5,8.3-4.4,12.8-5.9c8.8-2.9,18.3-3.2,27.4-1.7c17.9,2.3,24.4,17.2,19.4,44.8
					c19.8,19.2,23.2,35.3,10.3,48.2c-2.8,2.9-5.8,5.5-9.1,7.9c-8.8,6.3-19.6,9.6-30.3,10.1c-10.1,0.5-20.1-1.5-29.1-6.3
					c-9.4-4.9-16.9-12.5-21.9-21.8c-4.9-9.2-7.1-19.4-6.5-29.8c0.3-5.2,1.2-10.3,2.8-15.2c0.7-1.9,1.5-3.9,2.2-5.8
					c2.4-5.4,5.6-10.3,9.8-14.7c0.4-0.5,0.6-1.4-0.1-1.8C35.8,87.5,33.8,87.5,33.3,88z"/>
				<path class="st1" d="M28.2,93.5c-1.3,1.6-2.6,3.1-3.9,4.7c-1.9,2.5-3.4,5.2-4.7,8c-2.3,4.7-4.1,9.7-4.9,14.9
					c-1.1,6.4-1.3,12.8-0.5,19.2c1.4,10.7,5.6,20.7,12.1,29.3c6.1,8,14.6,13.9,23.8,17.7c9,3.7,18.8,5.3,28.5,4.4
					c9.5-0.8,18.6-3.7,26.9-8.4c8.7-5,15.8-12,21.2-20.4c2.9-4.5,5.1-9.7,6.6-14.8c1.6-5.1,2.6-10.4,2.9-15.8
					c0.4-9.6-1.5-19.3-5.5-28c-4.6-10.1-11.7-18.4-21-24.5c-7.7-5.1-16.6-8.2-25.8-9.3c-9.8-1.1-20.4,0.2-29.6,3.8
					c-3.8,1.5-7.4,3.2-10.8,5.3c-5.4,3.2-9.7,7.3-14,11.7c-0.9,0.9,0,1.6,0.8,2c0.7,0.3,3.4,1.7,4.1,0.9c2.4-2.8,5-5.4,7.9-7.6
					c1.5-1.1,3-2.1,4.5-3.2c4.6-3,9.7-5.2,15-6.8c10.7-3.3,22.4-3,33,0c11.7,3.3,21.7,11.3,28.6,21.2c7.6,10.8,10.2,24.7,8.8,37.5
					c-1.3,12.4-6.4,23.9-14.9,33c-8.4,9-19.5,14.8-31.6,16.9c-5.9,1-11.7,1.2-17.6,0.4c-22.8-2.3-38.5-18.5-47-48.4
					c-0.3-2.9-0.3-5.8,0-8.7c0.3-5.9,1.6-11.6,3.7-17.1c0.9-2.8,2.2-5.5,3.7-8c1.9-3.4,4.3-6.5,7-9.4c1-1.2-1.4-1.5-1.9-1.5
					c-1.2,0-2.3,0-3.5,0.2C29.3,92.8,28.7,93,28.2,93.5z"/>
				<path class="st1" d="M31.4,87.2c-1.3,1.6-2.5,3.1-3.8,4.7c-1.9,2.5-3.4,5.2-4.7,8c-1.9,3.8-3.2,7.7-4.3,11.8
					c-2.3,9.3-2.5,19.2-0.4,28.5c2.2,9.6,6.8,18.6,13.4,25.9c6.7,7.5,15,12.9,24.4,16.4c9,3.4,19.1,4.3,28.6,3
					c9.7-1.3,18.8-4.7,27-10c4.6-3,8.7-6.9,12.3-11c3.5-4.1,6.7-8.7,9-13.6c3.6-7.8,6.1-16.5,6.4-25.1c0.2-9.7-1.5-19.2-5.5-28
					C128.3,85.8,119,76,107,70.1c-11-5.4-23.2-7.3-35.3-5.5c-4.9,0.7-9.6,1.9-14.3,3.6c-3.8,1.4-7.4,3.2-10.8,5.3
					c-5.4,3.2-9.7,7.3-14,11.7c-0.8,0.8-0.2,1.5,0.6,1.9c0.7,0.4,2.9,1.5,3.6,0.8c3.6-3.3,7-6.2,11.2-8.7c4-2.4,8.2-4.3,12.7-5.7
					c2.6-0.8,5.3-1.4,8-1.8c2.7-0.5,5.4-0.8,8.1-0.8c17.1,26.2,34.2,52.4,51.3,78.6c-0.9,1.8-1.8,3.5-2.7,5.3
					c-4.8,8.9-12.6,15.9-21.2,21c-9.6,5.6-21.1,7.9-32,7.2c-10.4-0.6-20.3-4-28.8-10c-8.8-6.2-15.4-14.7-19.3-24.7
					c-3.8-9.8-4.6-20.2-2.8-30.5c0.9-5.1,2.3-10.1,4.5-14.8c0.9-1.8,1.9-3.6,2.8-5.4c2-3.4,4.4-6.6,7.1-9.6c0.7-0.9-0.6-1.5-1.2-1.5
					C33.6,86.4,32,86.3,31.4,87.2z"/>
				<path class="st1" d="M26.3,89.6c-1.3,1.6-2.6,3.2-3.8,4.7c-1.8,2.5-3.4,5.2-4.6,8c-1.8,3.8-3.2,7.7-4.1,11.8
					c-1.6,7.2-2,14.6-1.1,22c2.2,17.4,12,33.6,26.9,43c16.6,10.5,37.9,12.2,56.1,5c9.3-3.7,17.4-9.5,23.9-17.1
					c6.3-7.3,11.2-16.3,13.4-25.8c1.9-8.4,2.2-16.8,0.9-25.4c-1.5-9.5-5.6-18.7-11.4-26.3c-10.4-13.6-26.4-21.8-43.4-23
					c-9-0.6-18.2,0.8-26.7,4c-3.9,1.5-7.6,3.3-11.1,5.5c-5.1,3.2-9.4,7.1-13.6,11.4c-1,1.1,0.3,1.7,1.3,2.2c1.1,0.5,2.3,0.9,3.5,1.3
					c0.7,0.3,1.3,0.4,2,0.2c30.8-21.3,56.2-23.7,76.4-7c2.5,1.8,4.7,3.8,6.7,6.2c3.9,4.3,7.4,9.6,9.6,15c4.2,10.3,5.4,21.3,3.5,32.3
					c-1.9,11.4-7.2,21.5-15,30c-4.2,4.5-9.7,8.5-15.2,11.3c-5.4,2.8-11.6,4.9-17.6,5.8c-11.3,1.6-22.8,0.3-33.2-4.6
					c-10.6-5-18.9-13-24.5-23.3c-2.8-5.1-4.6-11.2-5.5-16.9c-0.9-5.7-1-12-0.1-17.7c1-5.9,2.5-11.8,5.1-17.1
					c0.9-1.8,1.9-3.5,2.8-5.3c2-3.4,4.4-6.5,7.1-9.4c1.1-1.3-1.7-1.5-2.2-1.5c-1.3,0-2.7,0-4,0.2C27.6,89,26.9,89.2,26.3,89.6z"/>
			</g>
		</g>
	</g>
	<g>
		<path class="st0" d="M325.8,53.5c-19.3,21.2-20.4,55.6,0,77c21.5,22.6,59,22.1,81,0c21.8-21.8,22.8-58.9,0-80.7
			C383.7,27.6,346.3,30.9,325.8,53.5z"/>
		<g>
			<g>
				<path class="st1" d="M319.5,53.9c-2.8,3-5.2,6.3-7.1,9.9c-2,3.7-3.6,7.5-4.8,11.5c-2.4,8.1-3,16.7-2,25c1,8.5,3.8,16.8,8.3,24.1
					c3.5,5.7,8,10.7,13.2,14.9c11.5,9.6,27.5,14,42.3,12.9c16.4-1.2,31.8-8.6,42.6-21c10.6-12.2,16.2-28.5,15.2-44.7
					c-1-16.3-8.4-31.8-21.1-42.2c-12-9.9-27.4-14.6-42.9-13.4c-8,0.6-15.9,2.8-23.1,6.3c-3.6,1.8-7.1,3.9-10.3,6.3
					c-3.3,2.5-6.3,5.2-9,8.3c-0.8,0.9-0.1,1.5,0.7,2c0.7,0.4,3.1,1.6,3.9,0.8c2.5-2.8,5.2-5.3,8.2-7.6c3-2.2,6.1-4.2,9.4-5.8
					c6.6-3.2,13.9-5.1,21.2-5.7c13.2-1,26.5,2.5,37.2,10.4c12.9,9.6,21.1,25.2,21.6,41.3c0.4,14.1-3.6,28.1-12.6,39.2
					c-8.9,11-22.1,18.3-36.1,20.3c-15.7,2.3-32.3-1.8-44.5-12.1c-10.7-9.1-17.3-22.4-18.6-36.3c-0.7-7.9,0.3-15.9,2.7-23.4
					c1.2-3.8,2.8-7.5,4.8-10.9c2-3.4,4.3-6.6,7-9.4c0.9-1.1-1.1-1.5-1.6-1.5C322.9,53.1,320.4,52.9,319.5,53.9z"/>
				<path class="st1" d="M320.4,50.9c-1.3,1.6-2.5,3.1-3.8,4.7c-1.9,2.5-3.4,5.2-4.6,8c-1.8,3.8-3.2,7.7-4.2,11.8
					c-2.2,9.3-2.4,19-0.3,28.3c2.1,9.6,6.7,18.5,13.1,25.9c6.6,7.5,14.9,13.2,24.3,16.5c18.2,6.5,39.4,3.8,55.6-6.8
					c8.3-5.4,15.1-13,19.8-21.7c2.1-3.8,3.7-7.8,5-11.9c1.5-5.1,2.7-10.4,2.8-15.7c0.3-14.1-3.7-27.9-12.2-39.2
					c-5.9-7.8-13.7-13.7-22.5-17.8c-8.3-3.8-17.6-5.4-26.6-5c-6.9,0.3-13.8,1.6-20.3,4c-3.8,1.4-7.4,3.2-10.8,5.3
					c-5.4,3.2-9.7,7.3-14,11.7c-0.9,0.9-0.1,1.5,0.7,2c0.7,0.4,3.2,1.6,4,0.9c2.6-2.7,5.4-5.2,8.5-7.3c2.2-1.6,4.6-3,7.2-4.2
					c5-2.5,10.1-4.2,15.5-5.2c6.1-1.1,12.7-1.6,18.9-0.4c12.4,7.8,24.8,15.5,37.2,23.3c4.2,6.6,7,13.6,8.3,21.2
					c1.9,11.5,0.3,23.6-4.5,34.2c-5.5,12.1-15.3,21.6-27.3,27.2c-11.7,5.5-25.7,7.2-38.3,3.9c-12.2-3.1-23.1-9.9-30.6-20
					c-7.4-9.9-10.7-22-10.7-34.3c0-6.1,1.4-12.1,3.2-17.8c1.3-3.9,2.9-7.6,5-11.1c2-3.4,4.4-6.6,7.1-9.5c0.8-1-0.9-1.5-1.4-1.5
					C323.2,50.1,321.2,50,320.4,50.9z"/>
				<path class="st1" d="M321.2,53.4c-2.7,3-5.1,6.3-7.1,9.9c-2,3.7-3.6,7.5-4.8,11.5c-2.4,8.1-3.1,16.7-2.1,25.1
					c1.8,15.2,9.4,29.5,21.4,39.1c13.4,10.7,31.8,15.3,48.7,12.1c15.1-2.9,28.8-10.5,38.4-22.8c9.2-11.8,14-27.2,13-42.2
					c-1.1-17.4-9.5-33.8-23.6-44.2c-11.6-8.5-26.1-12.5-40.4-11.4c-8,0.6-15.9,2.7-23.1,6.2c-3.6,1.8-7.1,3.9-10.3,6.3
					c-3.3,2.5-6.3,5.2-9,8.3c-0.7,0.7-0.3,1.5,0.5,1.9c0.6,0.4,2.5,1.3,3.2,0.6c2.5-2.8,5.3-5.4,8.4-7.7c3-2.2,6.3-4.2,9.7-5.8
					c6.8-3.2,14.1-5,21.6-5.4c13.2-0.7,26.5,3,37,11.2c12.6,9.8,20.3,25.2,20.7,41.1c0.3,13.8-3.7,27.5-12.4,38.4
					c-8.7,10.9-21.5,18.2-35.3,20.4c-15.6,2.6-32.2-1.2-44.6-11.2c-11-9-18-22.3-19.4-36.4c-0.8-8,0.1-16.1,2.5-23.7
					c1.2-3.9,2.8-7.6,4.8-11.1c2-3.4,4.3-6.6,6.9-9.5c0.8-0.9-0.7-1.5-1.3-1.5C323.7,52.6,321.9,52.5,321.2,53.4z"/>
				<path class="st1" d="M323.2,55.5c-3,3.8-5,6-7.3,10.3c-2,3.7-3.5,7.6-4.8,11.6c-1.8,5.8-2.7,12.7-2.4,18.7
					c0.2,5.3,1,10.6,2.5,15.7c3.1,10.7,8.8,20,17.1,27.5c5.7,5.1,12.3,9.2,19.6,11.8c4.2,1.5,8.6,2.6,13.1,3.2
					c6.3,0.8,12.5,0.6,18.7-0.4c10.6-1.7,21.3-6.5,29.5-13.5c8.4-7.3,14.5-16.4,18.3-26.8c2.1-5.9,3.3-12.3,3.6-18.5
					c0.2-6.1-0.5-13-2.2-18.9c-3.1-10.6-8.5-20-16.5-27.7c-7.5-7.3-17.4-12.1-27.5-14.5c-10.8-2.6-22.5-1.6-33,1.8
					c-4.8,1.6-9.5,3.6-13.7,6.3c-1.7,1.1-3.4,2.3-5.1,3.4c-3.3,2.5-6.3,5.3-9.1,8.3c-1.4,1.4,1.3,3,2.3,2c3.4-3.6,6.8-6.8,10.9-9.7
					c4-2.7,8.2-5,12.8-6.7c8.9-3.3,19-4.8,28.5-3.3c8.8,1.3,17.1,4.4,24.4,9.7c8.4,6.1,14.7,14.3,18.5,24c3.2,8.3,4.3,17.2,3.5,26.1
					c-0.3,2.9-0.8,5.8-1.5,8.6c-3.4,17.9-19.9,22.3-49.5,13.3c-16.3,3.5-32.6,7-48.8,10.5c-1.2-1.6-2.4-3.3-3.6-4.9
					c-0.9-1.7-1.9-3.4-2.8-5c-4.3-8.7-6.4-19.2-5.5-28.9c0.4-4,1.1-8,2.1-11.8c2.1-7.7,6.2-14.1,11.1-20.4c0.4-0.5,0.6-1.4-0.1-1.8
					C325.7,55,323.6,55,323.2,55.5z"/>
				<path class="st1" d="M323.4,53.1c-3.3,4.1-4.5,5.3-7,9.9c-1.7,3-2.9,5.8-4,9c-3.5,10.1-4.4,20.7-2.5,31.2
					c0.9,5.3,2.5,10.4,4.7,15.3c1.3,3,3,5.8,4.9,8.4c1.8,2.8,3.9,5.4,6.4,7.8c7.9,7.6,17.5,13.1,28.2,15.7
					c25.8,6.2,54.3-4.9,68-27.8c5.5-9.2,8.8-19.9,9.1-30.6c0.3-11.7-2.8-23.2-8.7-33.2c-8.2-13.8-22-23.1-37.5-26.9
					c-9.8-2.4-20.2-1.8-30,0.7c-5.7,1.4-11.7,4-16.7,7.1c-1.7,1.1-3.4,2.3-5.1,3.4c-3.3,2.5-6.3,5.3-9,8.3c-1.4,1.5,1.7,3.1,2.7,2.1
					c3.5-3.5,6.9-6.7,11-9.4c4-2.6,8.3-4.8,12.8-6.4c8.8-3.1,18.9-4.1,28.1-2.5c8.5,1.5,16.5,4.7,23.4,9.8c8.2,6,14.2,13.9,18,23.3
					c1.8,4.4,3.1,9.2,3.6,14c0.1,1.9,0.2,3.8,0.4,5.7c-26.9,17.9-53.9,35.8-80.8,53.8c-4.6-1.8-8.9-5-12.6-8.2
					c-3.9-3.4-7.4-7.3-10.1-11.7c-5.2-8.3-8.3-18.7-8.3-28.6c0-4,0.4-8.1,1.1-12c1.7-9.9,6.6-18.5,12.8-26.4
					c0.4-0.5,0.6-1.4-0.1-1.8C325.8,52.6,323.8,52.6,323.4,53.1z"/>
				<path class="st1" d="M317.7,50.2c-1.3,1.6-2.6,3.1-3.8,4.7c-1.8,2.5-3.4,5.2-4.6,8c-2.2,4.7-4,9.7-4.8,14.9
					c-1.5,9.5-1.2,19,1.4,28.3c1.4,5.1,3.4,10.3,6.2,14.8c2.4,3.8,5.1,7.3,8.2,10.6c7.5,7.9,17.9,13.5,28.4,16
					c20.2,4.9,42.2-1,57.4-15.1c7.2-6.7,12.7-15.1,16-24.4c3.5-9.9,4.6-21.1,2.7-31.5c-1.8-9.6-5.4-18.6-11.3-26.3
					c-3.5-4.6-7.5-8.5-12.1-11.9c-8.2-6.2-18.2-9.7-28.3-11c-9.9-1.3-20.2,0.4-29.5,3.8c-3.9,1.4-7.8,3.4-11.3,5.6
					c-5.1,3.2-9.3,7.1-13.5,11.5c-1,1,0.2,1.7,1.2,2.1c1.1,0.5,2.2,0.9,3.3,1.2c0.6,0.3,1.3,0.3,1.9,0.1c12-13.9,27.8-14.2,47.4-1.1
					c20.9-6.9,35-3.3,42.2,10.8c2.3,4.3,4.1,8.8,5.3,13.6c2.6,10.5,2.3,21.8-1.1,32.1c-3.5,11-10.3,20.4-19.5,27.4
					c-9,6.8-20.2,11.2-31.5,11.8c-10.5,0.6-20.6-1.3-30-6c-5.5-2.7-11.1-6.9-15.1-11.6c-4.1-4.7-7.7-10-9.9-15.9
					c-3.6-9.6-4.7-19.6-3.4-29.8c0.7-5.7,2.6-12.2,5.2-17.4c0.9-1.8,1.9-3.5,2.8-5.3c2-3.4,4.4-6.6,7.1-9.4c1-1.2-1.4-1.5-1.9-1.5
					c-1.2,0-2.3,0-3.5,0.2C318.8,49.5,318.2,49.7,317.7,50.2z"/>
				<path class="st1" d="M317.6,53.2c-2.6,3.2-5.1,6.3-7.1,9.9c-2,3.6-3.6,7.6-4.8,11.6c-2.2,7.1-2.7,14.8-2.1,22.2
					c0.7,9.5,3.6,18.8,8.5,27c6.3,10.4,16.1,18.4,27.3,23.1c7.9,3.4,16.5,5,25.1,4.9c9.6-0.2,19.5-2.4,27.9-6.9
					c7.8-4.1,14.8-9.7,20.2-16.7c5.3-6.8,9.2-15,11.2-23.3c4.4-17.7,0.8-37.1-10.3-51.7c-10.9-14.3-28.2-22.8-46.1-23.1
					c-9-0.2-18.1,1.8-26.4,5.3c-3.7,1.6-7.2,3.5-10.6,5.8c-4.3,2.9-7.9,6.3-11.5,10c-1,1,0.1,1.6,1,2.1c0.7,0.4,4,2,4.8,1.2
					c2.4-2.7,5.1-5.2,8-7.4c2.9-2.2,6-4.1,9.2-5.6c6.5-3.2,13.5-5.1,20.7-5.7c13-1.1,26.2,2.1,36.8,9.7
					c13.1,9.3,21.6,24.8,22.3,40.9c0.7,14.3-3.2,28.6-12.2,39.9c-9,11.3-22.4,18.8-36.7,20.8c-16,2.2-32.8-2.2-44.9-12.9
					c-10.5-9.3-16.9-22.7-17.9-36.7c-0.6-7.8,0.5-15.8,3-23.2c1.3-3.8,2.9-7.4,4.9-10.8c2-3.4,4.3-6.5,7.1-9.4
					c1.1-1.3-1.6-1.5-2-1.5c-1.2,0-2.5,0-3.7,0.2C318.7,52.5,318.1,52.7,317.6,53.2z"/>
				<path class="st1" d="M320.1,56.6c-2.1,2.2-3.9,4.7-5.5,7.3c-1.2,1.7-2.2,3.5-3,5.4c-2.3,4.7-4,9.7-5,14.9
					c-1.6,8.5-1.4,17.4,0.6,25.8c2.5,10.5,7.7,20.6,15.5,28.1c7.9,7.6,17.4,12.9,28.1,15.5c10.3,2.5,21.5,2.3,31.7-0.7
					c4.2-1.3,8.3-2.9,12.2-4.9c8.7-4.4,16.2-11.3,21.7-19.2c6.2-8.9,9.9-19.2,11-30c1-9.6-0.4-19.2-3.7-28.3
					c-3.8-10.2-10.9-19.4-19.7-25.8c-8.2-6-18.3-10.1-28.5-11.1c-9.1-0.9-18.2,0-26.8,2.9c-4.8,1.6-9.4,3.6-13.7,6.3
					c-1.7,1.1-3.3,2.3-5,3.4c-3.2,2.5-6.2,5.3-8.9,8.3c-0.7,0.7-0.3,1.5,0.5,1.9c0.6,0.3,2.5,1.3,3.2,0.6c2.4-2.9,5.1-5.5,8.1-7.9
					c1.5-1.1,3.1-2.2,4.6-3.3c4.6-3.1,10.1-5.4,15.3-7c10.7-3.1,23.1-3.3,33.7,0.3c10.8,3.7,20,10.2,26.8,19.4
					c7.3,10,10.8,21.9,10.4,34.3c-0.3,11.3-3.8,21.9-10,31.3c-3.3,5-7.9,9.6-12.7,13.2c-4.7,3.5-10.1,6.3-15.7,8.1
					c-26.4,8.9-64.8-1.2-72.2-38.9c-1.1-5.7-1.7-11.5-1.1-17.3c0.5-4.9,1.6-9.7,3.3-14.3c0.9-2.8,2.1-5.5,3.6-8.1
					c1.9-3.4,4.2-6.6,6.9-9.5c0.9-1.1-1-1.5-1.5-1.5C323.2,55.8,320.9,55.6,320.1,56.6z"/>
				<path class="st1" d="M323.3,50c-4.2,4.7-3.5,3.6-6.1,7.7c-2.8,4.4-5,9.2-6.5,14.2c-1.5,5.1-2.3,10.4-2.5,15.7
					c-0.2,5.3,0.1,10.8,1.4,15.9c2.6,10.5,7.7,20.9,15.6,28.5c7.8,7.5,17.6,13.2,28.3,15.6c9.5,2.1,19.1,2.1,28.6-0.1
					c10.7-2.4,20.4-7.4,28.4-14.9c11.4-10.5,18.2-24.9,19.8-40.3c1-9.6-0.4-19.6-4.1-28.5c-4.8-12-13.5-22.1-24.8-28.5
					c-8.8-5-19-7.9-29.1-7.9c-7,0-14,1-20.7,3.2c-4.8,1.6-9.4,3.5-13.7,6.1c-5.3,3.2-9.7,7.2-14.1,11.6c-1.6,1.6,2.5,3.3,3.5,2.4
					c3.6-3.4,7-6.4,11.2-9c4.1-2.5,8.3-4.4,12.8-5.9c8.8-2.9,18.3-3.2,27.4-1.7c17.9,2.3,24.4,17.2,19.4,44.8
					c19.8,19.2,23.2,35.3,10.3,48.2c-2.8,2.9-5.8,5.5-9.1,7.9c-8.8,6.3-19.6,9.6-30.3,10.1c-10.1,0.5-20.1-1.5-29.1-6.3
					c-9.4-4.9-16.9-12.5-21.9-21.8c-4.9-9.2-7.1-19.4-6.5-29.8c0.3-5.2,1.2-10.3,2.8-15.2c0.7-1.9,1.5-3.9,2.2-5.8
					c2.4-5.4,5.6-10.3,9.8-14.7c0.4-0.5,0.6-1.4-0.1-1.8C325.8,49.5,323.8,49.5,323.3,50z"/>
				<path class="st1" d="M318.2,55.5c-1.3,1.6-2.6,3.1-3.9,4.7c-1.9,2.5-3.4,5.2-4.7,8c-2.3,4.7-4.1,9.7-4.9,14.9
					c-1.1,6.4-1.3,12.8-0.5,19.2c1.4,10.7,5.6,20.7,12.1,29.3c6.1,8,14.6,13.9,23.8,17.7c9,3.7,18.8,5.3,28.5,4.4
					c9.5-0.8,18.6-3.7,26.9-8.4c8.7-5,15.8-12,21.2-20.4c2.9-4.5,5.1-9.7,6.6-14.8c1.6-5.1,2.6-10.4,2.9-15.8
					c0.4-9.6-1.5-19.3-5.5-28c-4.6-10.1-11.7-18.4-21-24.5c-7.7-5.1-16.6-8.2-25.8-9.3c-9.8-1.1-20.4,0.2-29.6,3.8
					c-3.8,1.5-7.4,3.2-10.8,5.3c-5.4,3.2-9.7,7.3-14,11.7c-0.9,0.9,0,1.6,0.8,2c0.7,0.3,3.4,1.7,4.1,0.9c2.4-2.8,5-5.4,7.9-7.6
					c1.5-1.1,3-2.1,4.5-3.2c4.6-3,9.7-5.2,15-6.8c10.7-3.3,22.4-3,33,0c11.7,3.3,21.7,11.3,28.6,21.2c7.6,10.8,10.2,24.7,8.8,37.5
					c-1.3,12.4-6.4,23.9-14.9,33c-8.4,9-19.5,14.8-31.6,16.9c-5.9,1-11.7,1.2-17.6,0.4c-22.8-2.3-38.5-18.5-47-48.4
					c-0.3-2.9-0.3-5.8,0-8.7c0.3-5.9,1.6-11.6,3.7-17.1c0.9-2.8,2.2-5.5,3.7-8c1.9-3.4,4.3-6.5,7-9.4c1-1.2-1.4-1.5-1.9-1.5
					c-1.2,0-2.3,0-3.5,0.2C319.3,54.8,318.7,55,318.2,55.5z"/>
				<path class="st1" d="M321.4,49.2c-1.3,1.6-2.5,3.1-3.8,4.7c-1.9,2.5-3.4,5.2-4.7,8c-1.9,3.8-3.2,7.7-4.3,11.8
					c-2.3,9.3-2.5,19.2-0.4,28.5c2.2,9.6,6.8,18.6,13.4,25.9c6.7,7.5,15,12.9,24.4,16.4c9,3.4,19.1,4.3,28.6,3
					c9.7-1.3,18.8-4.7,27-10c4.6-3,8.7-6.9,12.3-11c3.5-4.1,6.7-8.7,9-13.6c3.6-7.8,6.1-16.5,6.4-25.1c0.2-9.7-1.5-19.2-5.5-28
					C418.3,47.8,409,38,397,32.1c-11-5.4-23.2-7.3-35.3-5.5c-4.9,0.7-9.6,1.9-14.3,3.6c-3.8,1.4-7.4,3.2-10.8,5.3
					c-5.4,3.2-9.7,7.3-14,11.7c-0.8,0.8-0.2,1.5,0.6,1.9c0.7,0.4,2.9,1.5,3.6,0.8c3.6-3.3,7-6.2,11.2-8.7c4-2.4,8.2-4.3,12.7-5.7
					c2.6-0.8,5.3-1.4,8-1.8c2.7-0.5,5.4-0.8,8.1-0.8c17.1,26.2,34.2,52.4,51.3,78.6c-0.9,1.8-1.8,3.5-2.7,5.3
					c-4.8,8.9-12.6,15.9-21.2,21c-9.6,5.6-21.1,7.9-32,7.2c-10.4-0.6-20.3-4-28.8-10c-8.8-6.2-15.4-14.7-19.3-24.7
					c-3.8-9.8-4.6-20.2-2.8-30.5c0.9-5.1,2.3-10.1,4.5-14.8c0.9-1.8,1.9-3.6,2.8-5.4c2-3.4,4.4-6.6,7.1-9.6c0.7-0.9-0.6-1.5-1.2-1.5
					C323.6,48.4,322,48.3,321.4,49.2z"/>
				<path class="st1" d="M316.3,51.6c-1.3,1.6-2.6,3.2-3.8,4.7c-1.8,2.5-3.4,5.2-4.6,8c-1.8,3.8-3.2,7.7-4.1,11.8
					c-1.6,7.2-2,14.6-1.1,22c2.2,17.4,12,33.6,26.9,43c16.6,10.5,37.9,12.2,56.1,5c9.3-3.7,17.4-9.5,23.9-17.1
					c6.3-7.3,11.2-16.3,13.4-25.8c1.9-8.4,2.2-16.8,0.9-25.4c-1.5-9.5-5.6-18.7-11.4-26.3c-10.4-13.6-26.4-21.8-43.4-23
					c-9-0.6-18.2,0.8-26.7,4c-3.9,1.5-7.6,3.3-11.1,5.5c-5.1,3.2-9.4,7.1-13.6,11.4c-1,1.1,0.3,1.7,1.3,2.2c1.1,0.5,2.3,0.9,3.5,1.3
					c0.7,0.3,1.3,0.4,2,0.2c30.8-21.3,56.2-23.7,76.4-7c2.5,1.8,4.7,3.8,6.7,6.2c3.9,4.3,7.4,9.6,9.6,15c4.2,10.3,5.4,21.3,3.5,32.3
					c-1.9,11.4-7.2,21.5-15,30c-4.2,4.5-9.7,8.5-15.2,11.3c-5.4,2.8-11.6,4.9-17.6,5.8c-11.3,1.6-22.8,0.3-33.2-4.6
					c-10.6-5-18.9-13-24.5-23.3c-2.8-5.1-4.6-11.2-5.5-16.9c-0.9-5.7-1-12-0.1-17.7c1-5.9,2.5-11.8,5.1-17.1
					c0.9-1.8,1.9-3.5,2.8-5.3c2-3.4,4.4-6.5,7.1-9.4c1.1-1.3-1.7-1.5-2.2-1.5c-1.3,0-2.7,0-4,0.2C317.6,51,316.9,51.2,316.3,51.6z"
					/>
			</g>
		</g>
	</g>
	<g>
		<g>
			<path class="st2" d="M112.4,84.9c45.9-33.3,102.5-47.5,158.7-43.3c16.6,1.2,32.8,4.2,49,8c1.9,0.4,2.7-2.5,0.8-2.9
				c-55.6-13-113.7-12.2-166.7,10.8c-15.3,6.6-29.8,15-43.3,24.8C109.3,83.4,110.8,86,112.4,84.9L112.4,84.9z"/>
		</g>
	</g>
	<g>
		<g>
			<path class="st3" d="M126,163.4c18.2,2.6,36.7,3.6,55.1,4.8c17.9,1.1,35.9,1.9,53.8,0.8c33-2.2,64.4-12.5,91.3-31.9
				c1.6-1.1,0.1-3.7-1.5-2.6c-27.1,19.5-58.5,29.6-91.7,31.6c-17.3,1-34.6,0.2-51.9-0.9c-18.1-1.1-36.3-2.1-54.3-4.7
				C124.9,160.2,124.1,163.1,126,163.4L126,163.4z"/>
		</g>
	</g>
	<g>
		<g>
			<path class="st2" d="M321,49.1c-0.2-3.3-1.1-6.5-2.7-9.4c-0.9-1.7-3.5-0.2-2.6,1.5c1.4,2.5,2.1,5.1,2.3,7.9
				C318.1,51.1,321.1,51.1,321,49.1L321,49.1z"/>
		</g>
	</g>
	<g>
		<g>
			<path class="st2" d="M319.5,48.7c-2.5,0-5.1,0-7.6,0c-1.9,0-1.9,3,0,3c2.5,0,5.1,0,7.6,0C321.5,51.7,321.5,48.7,319.5,48.7
				L319.5,48.7z"/>
		</g>
	</g>
	<g>
		<g>
			<path class="st3" d="M126.9,163.5c3.4-2.2,7-3.5,10.9-4c1.9-0.3,1.1-3.2-0.8-2.9c-4.2,0.6-8.1,2.1-11.7,4.3
				C123.8,162,125.3,164.6,126.9,163.5L126.9,163.5z"/>
		</g>
	</g>
	<g>
		<g>
			<path class="st3" d="M124.5,164.4c1.2,2.7,3.2,4.9,5.8,6.4c1.7,1,3.2-1.6,1.5-2.6c-2.2-1.2-3.7-3-4.7-5.3
				c-0.3-0.7-1.4-0.9-2.1-0.5C124.2,162.8,124.1,163.7,124.5,164.4L124.5,164.4z"/>
		</g>
	</g>
	<rect x="95.3" y="83.6" class="st4" width="21.2" height="20.4"/>
	<text transform="matrix(1 0 0 1 95.3046 93.7104)" class="st3 st5 st6">X</text>
	<text transform="matrix(0.583 0 0 0.583 104.6425 98.3721)" class="st3 st5 st6">0</text>
	<rect x="105.9" y="147.2" class="st4" width="21.2" height="20.4"/>
	<text transform="matrix(1 0 0 1 105.9233 157.3574)" class="st3 st5 st6">X</text>
	<text transform="matrix(0.583 0 0 0.583 115.2612 162.0191)" class="st3 st5 st6">2</text>
	<rect x="318.3" y="86.1" class="st4" width="21.2" height="20.4"/>
	<text transform="matrix(1 0 0 1 318.2944 96.218)" class="st3 st5 st6">X</text>
	<text transform="matrix(0.583 0 0 0.583 327.6323 100.8797)" class="st3 st5 st6">1</text>
	<rect x="197.6" y="20.2" class="st4" width="64.8" height="19.2"/>
	<text transform="matrix(1 0 0 1 197.5834 31.6379)"><tspan x="0" y="0" class="st7 st8">   </tspan><tspan x="10.7" y="0" class="st9 st10 st11">0.10</tspan><tspan x="47.8" y="0" class="st12 st7 st6 st13">	</tspan></text>
	<rect x="200.9" y="145.9" class="st4" width="64.8" height="19.2"/>
	<text transform="matrix(1 0 0 1 200.9297 157.363)"><tspan x="0" y="0" class="st7 st8">   </tspan><tspan x="10.7" y="0" class="st9 st10 st11">0.05</tspan><tspan x="47.8" y="0" class="st12 st7 st6 st13">	</tspan></text>
</g>
<g id="Layer_2">
	<rect x="52.6" y="104" class="st4" width="49.2" height="53.7"/>
	<text transform="matrix(1 0 0 1 52.6189 131.1799)" class="st3 st14 st15">S</text>
	<text transform="matrix(0.583 0 0 0.583 73.2824 143.1682)" class="st3 st14 st15">1</text>
	<rect x="348.8" y="72.7" class="st4" width="49.2" height="53.7"/>
	<text transform="matrix(1 0 0 1 348.8002 99.9572)" class="st3 st14 st15">S</text>
	<text transform="matrix(0.583 0 0 0.583 369.4638 111.9455)" class="st3 st14 st15">2</text>
</g>
</svg>
