<?xml version="1.0" encoding="utf-8"?>
<!-- Generator: Adobe Illustrator 19.1.0, SVG Export Plug-In . SVG Version: 6.00 Build 0)  -->
<svg version="1.1" xmlns="http://www.w3.org/2000/svg" xmlns:xlink="http://www.w3.org/1999/xlink" x="0px" y="0px"
	 viewBox="0 0 285.9 249.3" style="enable-background:new 0 0 285.9 249.3;" xml:space="preserve">
<style type="text/css">
	.st0{fill:#FFFFFF;}
	.st1{opacity:0.1091;}
	.st2{fill:#3F3F3F;}
	.st3{fill:none;}
	.st4{font-family:'Avenir-Heavy';}
	.st5{font-size:12px;}
	.st6{font-family:'BookmanOldStyle-Bold';}
	.st7{font-size:14px;}
	.st8{fill:#3284FF;}
	.st9{letter-spacing:24;}
	.st10{fill:#337AB7;}
	.st11{font-family:'Avenir-Black';}
	.st12{font-size:36px;}
	.st13{font-family:'PalatinoLinotype-Roman';}
</style>
<g id="Layer_1">
	<g>
		<path class="st0" d="M100.2,132.3c-19.3,21.2-20.4,55.6,0,77c21.5,22.6,59,22.1,81,0c21.8-21.8,22.8-58.9,0-80.7
			C158.1,106.4,120.7,109.7,100.2,132.3z"/>
		<g>
			<g>
				<path class="st1" d="M93.9,132.7c-2.8,3-5.2,6.3-7.1,9.9c-2,3.7-3.6,7.5-4.8,11.5c-2.4,8.1-3,16.7-2,25c1,8.5,3.8,16.8,8.3,24.1
					c3.5,5.7,8,10.7,13.2,14.9c11.5,9.6,27.5,14,42.3,12.9c16.4-1.2,31.8-8.6,42.6-21c10.6-12.2,16.2-28.5,15.2-44.7
					c-1-16.3-8.4-31.8-21.1-42.2c-12-9.9-27.4-14.6-42.9-13.4c-8,0.6-15.9,2.8-23.1,6.3c-3.6,1.8-7.1,3.9-10.3,6.3
					c-3.3,2.5-6.3,5.2-9,8.3c-0.8,0.9-0.1,1.5,0.7,2c0.7,0.4,3.1,1.6,3.9,0.8c2.5-2.8,5.2-5.3,8.2-7.6c3-2.2,6.1-4.2,9.4-5.8
					c6.6-3.2,13.9-5.1,21.2-5.7c13.2-1,26.5,2.5,37.2,10.4c12.9,9.6,21.1,25.2,21.6,41.3c0.4,14.1-3.6,28.1-12.6,39.2
					c-8.9,11-22.1,18.3-36.1,20.3c-15.7,2.3-32.3-1.8-44.5-12.1c-10.7-9.1-17.3-22.4-18.6-36.3c-0.7-7.9,0.3-15.9,2.7-23.4
					c1.2-3.8,2.8-7.5,4.8-10.9c2-3.4,4.3-6.6,7-9.4c0.9-1.1-1.1-1.5-1.6-1.5C97.2,131.9,94.7,131.7,93.9,132.7z"/>
				<path class="st1" d="M94.7,129.7c-1.3,1.6-2.5,3.1-3.8,4.7c-1.9,2.5-3.4,5.2-4.6,8c-1.8,3.8-3.2,7.7-4.2,11.8
					c-2.2,9.3-2.4,19-0.3,28.3c2.1,9.6,6.7,18.5,13.1,25.9c6.6,7.5,14.9,13.2,24.3,16.5c18.2,6.5,39.4,3.8,55.6-6.8
					c8.3-5.4,15.1-13,19.8-21.7c2.1-3.8,3.7-7.8,5-11.9c1.5-5,2.7-10.4,2.8-15.7c0.3-14.1-3.7-27.9-12.2-39.2
					c-5.9-7.8-13.7-13.7-22.5-17.8c-8.3-3.8-17.6-5.4-26.6-5c-6.9,0.3-13.8,1.6-20.3,4c-3.8,1.4-7.4,3.2-10.8,5.3
					c-5.4,3.2-9.7,7.3-14,11.7c-0.9,0.9-0.1,1.5,0.7,2c0.7,0.4,3.2,1.6,4,0.9c2.6-2.7,5.4-5.2,8.5-7.3c2.2-1.6,4.6-3,7.2-4.2
					c5-2.5,10.1-4.2,15.5-5.2c6.1-1.1,12.7-1.6,18.9-0.4c12.4,7.8,24.8,15.5,37.2,23.3c4.2,6.6,7,13.6,8.3,21.2
					c1.9,11.5,0.3,23.6-4.5,34.2c-5.5,12.1-15.3,21.6-27.3,27.2c-11.7,5.5-25.7,7.2-38.3,3.9c-12.2-3.1-23.1-9.9-30.6-20
					c-7.4-9.9-10.7-22-10.7-34.3c0-6.1,1.4-12.1,3.2-17.8c1.3-3.9,2.9-7.6,5-11.1c2-3.4,4.4-6.6,7.1-9.5c0.8-1-0.9-1.5-1.4-1.5
					C97.6,128.9,95.5,128.8,94.7,129.7z"/>
				<path class="st1" d="M95.6,132.2c-2.7,3-5.1,6.3-7.1,9.9c-2,3.7-3.6,7.5-4.8,11.5c-2.4,8.1-3.1,16.7-2.1,25.1
					c1.8,15.2,9.4,29.5,21.4,39.1c13.4,10.7,31.8,15.3,48.7,12.1c15.1-2.9,28.8-10.5,38.4-22.8c9.2-11.8,14-27.2,13-42.2
					c-1.1-17.4-9.5-33.8-23.6-44.2c-11.6-8.5-26.1-12.5-40.4-11.4c-8,0.6-15.9,2.7-23.1,6.2c-3.6,1.8-7.1,3.9-10.3,6.3
					c-3.3,2.5-6.3,5.2-9,8.3c-0.7,0.7-0.3,1.5,0.5,1.9c0.6,0.4,2.5,1.3,3.2,0.6c2.5-2.8,5.3-5.4,8.4-7.7c3-2.2,6.3-4.2,9.7-5.8
					c6.8-3.2,14.1-5,21.6-5.4c13.2-0.7,26.5,3,37,11.2c12.6,9.8,20.3,25.2,20.7,41.1c0.3,13.8-3.7,27.5-12.4,38.4
					c-8.7,10.9-21.5,18.2-35.3,20.4c-15.6,2.6-32.2-1.2-44.6-11.2c-11-9-18-22.3-19.4-36.4c-0.8-8,0.1-16.1,2.5-23.7
					c1.2-3.9,2.8-7.6,4.8-11.1c2-3.4,4.3-6.6,6.9-9.5c0.8-0.9-0.7-1.5-1.3-1.5C98.1,131.3,96.3,131.3,95.6,132.2z"/>
				<path class="st1" d="M97.6,134.3c-3,3.8-5,6-7.3,10.3c-2,3.7-3.5,7.6-4.8,11.6c-1.8,5.8-2.7,12.7-2.4,18.7
					c0.2,5.3,1,10.6,2.5,15.7c3.1,10.7,8.8,20,17.1,27.5c5.7,5.1,12.3,9.2,19.6,11.8c4.2,1.5,8.6,2.6,13.1,3.2
					c6.3,0.8,12.5,0.6,18.7-0.4c10.6-1.7,21.3-6.5,29.5-13.5c8.4-7.3,14.5-16.4,18.3-26.8c2.1-5.9,3.3-12.3,3.6-18.5
					c0.2-6.1-0.5-13-2.2-18.9c-3.1-10.6-8.5-20-16.5-27.7c-7.5-7.3-17.4-12.1-27.5-14.5c-10.8-2.6-22.5-1.6-33,1.8
					c-4.8,1.6-9.5,3.6-13.7,6.3c-1.7,1.1-3.4,2.3-5.1,3.4c-3.3,2.5-6.3,5.3-9.1,8.4c-1.4,1.4,1.3,3,2.3,2c3.4-3.6,6.8-6.8,10.9-9.7
					c4-2.7,8.2-5,12.8-6.7c8.9-3.3,19-4.8,28.5-3.3c8.8,1.3,17.1,4.4,24.4,9.7c8.4,6.1,14.7,14.3,18.5,24c3.2,8.3,4.3,17.2,3.5,26.1
					c-0.3,2.9-0.8,5.8-1.5,8.6c-3.4,17.9-19.9,22.3-49.5,13.3c-16.3,3.5-32.6,7-48.8,10.5c-1.2-1.6-2.4-3.3-3.6-4.9
					c-0.9-1.7-1.9-3.4-2.8-5c-4.3-8.7-6.4-19.2-5.5-28.9c0.4-4,1.1-8,2.1-11.8c2.1-7.7,6.2-14.1,11.1-20.4c0.4-0.5,0.6-1.4-0.1-1.8
					C100,133.8,98,133.8,97.6,134.3z"/>
				<path class="st1" d="M97.8,131.9c-3.3,4.1-4.5,5.3-7,9.9c-1.7,3-2.9,5.8-4,9c-3.5,10.1-4.4,20.7-2.5,31.2
					c0.9,5.3,2.5,10.4,4.7,15.3c1.3,3,3,5.8,4.9,8.4c1.8,2.8,3.9,5.4,6.4,7.8c7.9,7.6,17.5,13.1,28.2,15.7
					c25.8,6.2,54.3-4.9,68-27.8c5.5-9.2,8.8-19.9,9.1-30.6c0.3-11.7-2.8-23.2-8.7-33.2c-8.2-13.8-22-23.1-37.5-26.9
					c-9.8-2.4-20.2-1.8-30,0.7c-5.7,1.4-11.7,4-16.7,7.1c-1.7,1.1-3.4,2.3-5.1,3.4c-3.3,2.5-6.3,5.3-9,8.3c-1.4,1.5,1.7,3.1,2.7,2.1
					c3.5-3.5,6.9-6.7,11-9.4c4-2.6,8.3-4.8,12.8-6.4c8.8-3.1,18.9-4.1,28.1-2.5c8.5,1.5,16.5,4.7,23.4,9.8c8.2,6,14.2,13.9,18,23.3
					c1.8,4.4,3.1,9.2,3.6,14c0.1,1.9,0.2,3.8,0.4,5.7c-26.9,17.9-53.9,35.8-80.8,53.8c-4.6-1.8-8.9-5-12.6-8.2
					c-3.9-3.4-7.4-7.3-10.1-11.7c-5.2-8.3-8.3-18.7-8.3-28.6c0-4,0.4-8.1,1.1-12c1.7-9.9,6.6-18.5,12.8-26.4
					c0.4-0.5,0.6-1.4-0.1-1.8C100.2,131.4,98.2,131.4,97.8,131.9z"/>
				<path class="st1" d="M92,129c-1.3,1.6-2.6,3.1-3.8,4.7c-1.8,2.5-3.4,5.2-4.6,8c-2.2,4.7-4,9.7-4.8,14.9
					c-1.5,9.5-1.2,19,1.4,28.3c1.4,5.1,3.4,10.3,6.2,14.8c2.4,3.8,5.1,7.3,8.2,10.6c7.5,7.9,17.9,13.5,28.4,16
					c20.2,4.9,42.2-1,57.4-15.1c7.2-6.7,12.7-15.1,16-24.4c3.5-9.9,4.6-21.1,2.7-31.5c-1.8-9.6-5.4-18.6-11.3-26.3
					c-3.5-4.6-7.5-8.5-12.1-11.9c-8.2-6.2-18.2-9.7-28.3-11c-9.9-1.3-20.2,0.4-29.5,3.8c-3.9,1.4-7.8,3.4-11.3,5.6
					c-5.1,3.2-9.3,7.1-13.5,11.5c-1,1,0.2,1.7,1.2,2.1c1.1,0.5,2.2,0.9,3.3,1.2c0.6,0.3,1.3,0.3,1.9,0.1c12-13.9,27.8-14.2,47.4-1.1
					c20.9-6.9,35-3.3,42.2,10.8c2.3,4.3,4.1,8.8,5.3,13.6c2.6,10.5,2.3,21.8-1.1,32.1c-3.5,11-10.3,20.4-19.5,27.4
					c-9,6.8-20.2,11.2-31.5,11.8c-10.5,0.6-20.6-1.3-30-6c-5.5-2.7-11.1-6.9-15.1-11.6c-4.1-4.7-7.7-10-9.9-15.9
					c-3.6-9.6-4.7-19.6-3.4-29.8c0.7-5.7,2.6-12.2,5.2-17.4c0.9-1.8,1.9-3.5,2.8-5.3c2-3.4,4.4-6.6,7.1-9.4c1-1.2-1.4-1.5-1.9-1.5
					c-1.2,0-2.3,0-3.5,0.2C93.1,128.3,92.5,128.5,92,129z"/>
				<path class="st1" d="M91.9,132c-2.6,3.2-5.1,6.3-7.1,9.9c-2,3.6-3.6,7.6-4.8,11.6c-2.2,7.1-2.7,14.8-2.1,22.2
					c0.7,9.5,3.6,18.8,8.5,27c6.3,10.4,16.1,18.4,27.3,23.1c7.9,3.4,16.5,5,25.1,4.9c9.6-0.2,19.5-2.4,27.9-6.9
					c7.8-4.1,14.8-9.7,20.2-16.7c5.3-6.8,9.2-15,11.2-23.3c4.4-17.7,0.8-37.1-10.3-51.7c-10.9-14.3-28.2-22.8-46.1-23.1
					c-9-0.2-18.1,1.8-26.4,5.3c-3.7,1.6-7.2,3.5-10.6,5.8c-4.3,2.9-7.9,6.3-11.5,10c-1,1,0.1,1.6,1,2.1c0.7,0.4,4,2,4.8,1.2
					c2.4-2.7,5.1-5.2,8-7.4c2.9-2.2,6-4.1,9.2-5.6c6.5-3.2,13.5-5.1,20.7-5.7c13-1.1,26.2,2.1,36.8,9.7
					c13.1,9.3,21.6,24.8,22.3,40.9c0.7,14.3-3.2,28.6-12.2,39.9c-9,11.3-22.4,18.8-36.7,20.8c-16,2.2-32.8-2.2-44.9-12.9
					c-10.5-9.3-16.9-22.7-17.9-36.7c-0.6-7.8,0.5-15.8,3-23.2c1.3-3.8,2.9-7.4,4.9-10.8c2-3.4,4.3-6.5,7.1-9.4
					c1.1-1.3-1.6-1.5-2-1.5c-1.2,0-2.5,0-3.7,0.2C93.1,131.3,92.5,131.5,91.9,132z"/>
				<path class="st1" d="M94.4,135.4c-2.1,2.2-3.9,4.7-5.5,7.3c-1.2,1.7-2.2,3.5-3,5.4c-2.3,4.7-4,9.7-5,14.9
					c-1.6,8.5-1.4,17.4,0.6,25.8c2.5,10.5,7.7,20.6,15.5,28.1c7.9,7.6,17.4,12.9,28.1,15.5c10.3,2.5,21.5,2.3,31.7-0.7
					c4.2-1.3,8.3-2.9,12.2-4.9c8.7-4.4,16.2-11.3,21.7-19.2c6.2-8.9,9.9-19.2,11-30c1-9.6-0.4-19.2-3.7-28.3
					c-3.8-10.2-10.9-19.4-19.7-25.8c-8.2-6-18.3-10.1-28.5-11.1c-9.1-0.9-18.2,0-26.8,2.9c-4.8,1.6-9.4,3.6-13.7,6.3
					c-1.7,1.1-3.3,2.3-5,3.4c-3.2,2.5-6.2,5.3-8.9,8.3c-0.7,0.7-0.3,1.5,0.5,1.9c0.6,0.3,2.5,1.3,3.2,0.6c2.4-2.9,5.1-5.5,8.1-7.9
					c1.5-1.1,3.1-2.2,4.6-3.3c4.6-3.1,10.1-5.4,15.3-7c10.7-3.1,23.1-3.3,33.7,0.3c10.8,3.7,20,10.2,26.8,19.4
					c7.3,10,10.8,21.9,10.4,34.3c-0.3,11.3-3.8,21.9-10,31.3c-3.3,5-7.9,9.6-12.7,13.2c-4.7,3.5-10.1,6.3-15.7,8.1
					c-26.4,8.9-64.8-1.2-72.2-38.9c-1.1-5.7-1.7-11.5-1.1-17.3c0.5-4.9,1.6-9.7,3.3-14.3c0.9-2.8,2.1-5.5,3.6-8.1
					c1.9-3.4,4.2-6.6,6.9-9.5c0.9-1.1-1-1.5-1.5-1.5C97.5,134.6,95.2,134.4,94.4,135.4z"/>
				<path class="st1" d="M97.7,128.8c-4.2,4.7-3.5,3.6-6.1,7.7c-2.8,4.4-5,9.2-6.5,14.2c-1.5,5.1-2.3,10.4-2.5,15.7
					c-0.2,5.3,0.1,10.8,1.4,15.9c2.6,10.5,7.7,20.9,15.6,28.5c7.8,7.5,17.6,13.2,28.3,15.6c9.5,2.1,19.1,2.1,28.6-0.1
					c10.7-2.4,20.4-7.4,28.4-14.9c11.4-10.5,18.2-24.9,19.8-40.3c1-9.6-0.4-19.6-4.1-28.5c-4.8-12-13.5-22.1-24.8-28.5
					c-8.8-5-19-7.9-29.1-7.9c-7,0-14,1-20.7,3.2c-4.8,1.6-9.4,3.5-13.7,6.1c-5.3,3.2-9.7,7.2-14.1,11.6c-1.6,1.6,2.5,3.3,3.5,2.4
					c3.6-3.4,7-6.4,11.2-9c4.1-2.5,8.3-4.4,12.8-5.9c8.8-2.9,18.3-3.2,27.4-1.7c17.9,2.3,24.4,17.2,19.4,44.8
					c19.8,19.2,23.2,35.3,10.3,48.2c-2.8,2.9-5.8,5.5-9.1,7.9c-8.8,6.3-19.6,9.6-30.3,10.1c-10.1,0.5-20.1-1.5-29.1-6.3
					c-9.4-4.9-16.9-12.5-21.9-21.8c-4.9-9.2-7.1-19.4-6.5-29.8c0.3-5.2,1.2-10.3,2.8-15.2c0.7-1.9,1.5-3.9,2.2-5.8
					c2.4-5.4,5.6-10.3,9.8-14.7c0.4-0.5,0.6-1.4-0.1-1.8C100.2,128.3,98.1,128.3,97.7,128.8z"/>
				<path class="st1" d="M92.6,134.3c-1.3,1.6-2.6,3.1-3.9,4.7c-1.9,2.5-3.4,5.2-4.7,8c-2.3,4.7-4.1,9.7-4.9,14.9
					c-1.1,6.4-1.3,12.8-0.5,19.2c1.4,10.7,5.6,20.7,12.1,29.3c6.1,8,14.6,13.9,23.8,17.7c9,3.7,18.8,5.3,28.5,4.4
					c9.5-0.8,18.6-3.7,26.9-8.4c8.7-5,15.8-12,21.2-20.4c2.9-4.5,5.1-9.7,6.6-14.8c1.6-5.1,2.6-10.4,2.9-15.8
					c0.4-9.6-1.5-19.3-5.5-28c-4.6-10.1-11.7-18.4-21-24.5c-7.7-5.1-16.6-8.2-25.8-9.3c-9.8-1.1-20.4,0.2-29.6,3.8
					c-3.8,1.5-7.4,3.2-10.8,5.3c-5.4,3.2-9.7,7.3-14,11.7c-0.9,0.9,0,1.6,0.8,2c0.7,0.3,3.4,1.7,4.1,0.9c2.4-2.8,5-5.4,7.9-7.6
					c1.5-1.1,3-2.1,4.5-3.2c4.6-3,9.7-5.2,15-6.8c10.7-3.3,22.4-3,33,0c11.7,3.3,21.7,11.3,28.6,21.2c7.6,10.8,10.2,24.7,8.8,37.5
					c-1.3,12.4-6.4,23.9-14.9,33c-8.4,9-19.5,14.8-31.6,16.9c-5.9,1-11.7,1.2-17.6,0.4c-22.8-2.3-38.5-18.5-47-48.4
					c-0.3-2.9-0.3-5.8,0-8.7c0.3-5.9,1.6-11.6,3.7-17.1c0.9-2.8,2.2-5.5,3.7-8c1.9-3.4,4.3-6.5,7-9.4c1-1.2-1.4-1.5-1.9-1.5
					c-1.2,0-2.3,0-3.5,0.2C93.7,133.6,93.1,133.8,92.6,134.3z"/>
				<path class="st1" d="M95.7,127.9c-1.3,1.6-2.5,3.1-3.8,4.7c-1.9,2.5-3.4,5.2-4.7,8c-1.9,3.8-3.2,7.7-4.3,11.8
					c-2.3,9.3-2.5,19.2-0.4,28.5c2.2,9.6,6.8,18.6,13.4,25.9c6.7,7.5,15,12.9,24.4,16.4c9,3.4,19.1,4.3,28.6,3
					c9.7-1.3,18.8-4.7,27-10c4.6-3,8.7-6.9,12.3-11c3.5-4.1,6.7-8.7,9-13.6c3.6-7.8,6.1-16.5,6.4-25.1c0.2-9.7-1.5-19.2-5.5-28
					c-5.5-12.1-14.8-21.8-26.8-27.7c-11-5.4-23.2-7.3-35.3-5.5c-4.9,0.7-9.6,1.9-14.3,3.6c-3.8,1.4-7.4,3.2-10.8,5.3
					c-5.4,3.2-9.7,7.3-14,11.7c-0.8,0.8-0.2,1.5,0.6,1.9c0.7,0.4,2.9,1.5,3.6,0.8c3.6-3.3,7-6.2,11.2-8.7c4-2.4,8.2-4.3,12.7-5.7
					c2.6-0.8,5.3-1.4,8-1.8c2.7-0.5,5.4-0.8,8.1-0.8c17.1,26.2,34.2,52.4,51.3,78.6c-0.9,1.8-1.8,3.5-2.7,5.3
					c-4.8,8.9-12.6,15.9-21.2,21c-9.6,5.6-21.1,7.9-32,7.2c-10.4-0.6-20.3-4-28.8-10c-8.8-6.2-15.4-14.7-19.3-24.7
					c-3.8-9.8-4.6-20.2-2.8-30.5c0.9-5.1,2.3-10.1,4.5-14.8c0.9-1.8,1.9-3.6,2.8-5.4c2-3.4,4.4-6.6,7.1-9.6c0.7-0.9-0.6-1.5-1.2-1.5
					C97.9,127.1,96.4,127.1,95.7,127.9z"/>
				<path class="st1" d="M90.7,130.4c-1.3,1.6-2.6,3.2-3.8,4.7c-1.8,2.5-3.4,5.2-4.6,8c-1.8,3.8-3.2,7.7-4.1,11.8
					c-1.6,7.2-2,14.6-1.1,22c2.2,17.4,12,33.6,26.9,43c16.6,10.5,37.9,12.2,56.1,5c9.3-3.7,17.4-9.5,23.9-17.1
					c6.3-7.3,11.2-16.3,13.4-25.8c1.9-8.4,2.2-16.8,0.9-25.4c-1.5-9.5-5.6-18.7-11.4-26.3c-10.4-13.6-26.4-21.8-43.4-23
					c-9-0.6-18.2,0.8-26.7,4c-3.9,1.5-7.6,3.3-11.1,5.5c-5.1,3.2-9.4,7.1-13.6,11.4c-1,1.1,0.3,1.7,1.3,2.2c1.1,0.5,2.3,0.9,3.5,1.3
					c0.7,0.3,1.3,0.4,2,0.2c30.8-21.3,56.2-23.7,76.4-7c2.5,1.8,4.7,3.8,6.7,6.2c3.9,4.3,7.4,9.6,9.6,15c4.2,10.3,5.4,21.3,3.5,32.3
					c-1.9,11.4-7.2,21.5-15,30c-4.2,4.5-9.7,8.5-15.2,11.3c-5.4,2.8-11.6,4.9-17.6,5.8c-11.3,1.6-22.8,0.3-33.2-4.6
					c-10.6-5-18.9-13-24.5-23.3c-2.8-5.1-4.6-11.2-5.5-16.9c-0.9-5.7-1-12-0.1-17.7c1-5.9,2.5-11.8,5.1-17.1
					c0.9-1.8,1.9-3.5,2.8-5.3c2-3.4,4.4-6.5,7.1-9.4c1.1-1.3-1.7-1.5-2.2-1.5c-1.3,0-2.7,0-4,0.2C92,129.7,91.3,130,90.7,130.4z"/>
			</g>
		</g>
	</g>
	<g>
		<g>
			<path class="st2" d="M126.5,109.2c-2.7-20.7-10-40.6-21.9-57.8C99,43.1,91.9,36.4,81.8,34c-9.1-2.1-18.6-0.7-26.9,3.5
				c-30.3,15.4-38,58.8-23.2,87.4c9.2,17.8,26.7,30.5,46.3,34.6c-0.3-0.1,0.4-4.9,0-5c-33.4-6.9-60.1-40.2-51.3-74.9
				C31,63.1,42.3,47.5,58.4,40.9c7.9-3.2,16.7-3.9,24.9-1.6c8.8,2.5,15.2,8.4,20.4,15.7c12.4,17.4,20,38,22.8,59.2
				C126.3,112.6,126.8,110.9,126.5,109.2L126.5,109.2z"/>
		</g>
	</g>
	<g>
		<g>
			<path d="M126.7,109.2c-0.1-0.5-0.2-1.1-0.3-1.6c0.6,2.7-0.1,2.8,0.3,1.2c0.3-1.1,0.7-2,1.2-3c0.3-0.5,0-1.9,0-2.5
				c0-0.6-0.3-2,0-2.5c-1.1,2-1.5,4.1-1.5,6.4c0,2.3-0.2,4.7,0.4,6.9C126.3,112.6,127.1,110.8,126.7,109.2L126.7,109.2z"/>
		</g>
	</g>
	<g>
		<g>
			<path d="M126.6,110.2c-0.9-4.2-3.3-7.8-6.8-10.3c0.2,0.1,0,2.2,0,2.5c0,0.3-0.3,2.3,0,2.5c3.5,2.5,5.8,6.1,6.8,10.3
				C126.2,113.6,126.9,111.8,126.6,110.2L126.6,110.2z"/>
		</g>
	</g>
	<g>
		<g>
			<path d="M126.5,111c0,3.6,0.2,0.4,0.4-0.5c0.2-0.8,0.5-1.6,0.8-2.4c0.7-1.7,1.7-3.1,2.8-4.5c0.3-0.3,0-2.1,0-2.5
				c0-0.4-0.3-2.2,0-2.5c-3.8,4.4-4.2,9.3-4.1,14.8c0,0.1,0,1.8,0,0.9C126.6,113.3,126.5,112.1,126.5,111L126.5,111z"/>
		</g>
	</g>
	<g>
		<g>
			<path class="st2" d="M200,148.1c19.8-7.3,37.6-19.7,51.3-35.8c6.2-7.3,10-15.1,10.2-24.8c0.1-6.7-0.4-13.1-3-19.4
				c-7.9-18.8-28.9-28.9-48.4-29.3c-19.9-0.5-39.3,8.3-51.7,23.9c-11.6,14.5-15.4,32.2-14.6,50.4c-0.1-1.2,0.1-3.3,0-4.8
				c-0.7-16.2,7.5-33.7,18.6-45.2c11.8-12.2,28.4-19.1,45.3-19.3c16.4-0.2,33.4,6,44.2,18.7c5.5,6.5,10.1,15.8,9.3,24.5
				c-0.9,8.9-6.3,16.3-12.1,22.7c-13.4,14.9-30.3,26.4-49.1,33.3C199.4,143.3,200.5,147.9,200,148.1L200,148.1z"/>
		</g>
	</g>
	<g>
		<g>
			<path d="M204.1,135.9c-1.7,4.1-4.2,7.6-7.7,10.2c-0.4,0.3,0.4,2.2,0,2.5c3.5-2.7,6.1-6.2,7.7-10.2
				C204.4,137.6,203.8,136.6,204.1,135.9L204.1,135.9z"/>
		</g>
	</g>
	<g>
		<g>
			<path d="M212.8,146.1c-5.5-1.3-11-1.4-16.4,0c-0.2,0.1,0.2,2.4,0,2.5c5.5-1.5,10.9-1.3,16.4,0C212.6,148.6,213,146.2,212.8,146.1
				L212.8,146.1z"/>
		</g>
	</g>
	<path d="M199.3,144.3C199.2,144.2,199.2,144.2,199.3,144.3l-0.3,0c0,0-0.2-0.4-0.2-0.4c0,0,0.1,0.4,0.1,0.4l-0.9,0.3l0.7,1.9
		l0.9-0.3c0.3,0.9,0.2,0.6,0.2,0.6c0,0-0.1-0.2-0.2-0.5c0.1,0,0.1-0.2,0.1-0.2l0,0c0,0,0.1,0.2,0.1,0.2
		C200.5,145.8,200,144.4,199.3,144.3z"/>
	<rect x="43.3" y="16.3" class="st3" width="64.8" height="19.2"/>
	<text transform="matrix(1 0 0 1 43.2846 26.924)"><tspan x="0" y="0" class="st4 st5">   </tspan><tspan x="10.7" y="0" class="st2 st6 st7">0.90</tspan><tspan x="43.1" y="0" class="st8 st4 st7 st9">	</tspan></text>
	<rect x="193" y="23.5" class="st3" width="64.8" height="19.2"/>
	<text transform="matrix(1 0 0 1 193.0299 34.1187)"><tspan x="0" y="0" class="st4 st5">   </tspan><tspan x="10.7" y="0" class="st2 st6 st7">0.90</tspan><tspan x="43.1" y="0" class="st8 st4 st7 st9">	</tspan></text>
</g>
<g id="Layer_2">
	<rect x="123.2" y="150.6" class="st3" width="49.2" height="53.7"/>
	<text transform="matrix(1 0 0 1 123.186 177.7705)" class="st10 st11 st12">S</text>
	<text transform="matrix(0.583 0 0 0.583 143.8496 189.7587)" class="st10 st11 st12">1</text>
	<rect x="90.5" y="157" class="st3" width="21.2" height="20.4"/>
	<text transform="matrix(1 0 0 1 90.4592 167.1316)" class="st10 st13 st7">X</text>
	<text transform="matrix(0.583 0 0 0.583 99.7971 171.7932)" class="st10 st13 st7">0</text>
	<rect x="175.1" y="142.2" class="st3" width="21.2" height="20.4"/>
	<text transform="matrix(1 0 0 1 175.1036 152.3501)" class="st10 st13 st7">X</text>
	<text transform="matrix(0.583 0 0 0.583 184.4415 157.0117)" class="st10 st13 st7">2</text>
	<rect x="130.9" y="117.9" class="st3" width="21.2" height="20.4"/>
	<text transform="matrix(1 0 0 1 130.9413 128.0007)" class="st10 st13 st7">X</text>
	<text transform="matrix(0.583 0 0 0.583 140.2792 132.6623)" class="st10 st13 st7">1</text>
</g>
</svg>
