<?xml version="1.0" encoding="utf-8"?>
<!-- Generator: Adobe Illustrator 19.1.0, SVG Export Plug-In . SVG Version: 6.00 Build 0)  -->
<svg version="1.1" xmlns="http://www.w3.org/2000/svg" xmlns:xlink="http://www.w3.org/1999/xlink" x="0px" y="0px"
	 viewBox="0 0 545.6 214.6" style="enable-background:new 0 0 545.6 214.6;" xml:space="preserve">
<style type="text/css">
	.st0{fill:#202020;}
	.st1{fill:none;}
	.st2{fill:#3284FF;}
	.st3{font-family:'Avenir-Heavy';}
	.st4{font-size:14px;}
	.st5{letter-spacing:18;}
	.st6{letter-spacing:31;}
	.st7{font-size:12px;}
	.st8{letter-spacing:8;}
	.st9{letter-spacing:20;}
	.st10{fill:#3F3F3F;}
	.st11{font-family:'BookmanOldStyle-Bold';}
	.st12{letter-spacing:24;}
	.st13{font-family:'PalatinoLinotype-Roman';}
	.st14{font-size:30px;}
</style>
<g id="Layer_1">
	<g>
		<g>
			<g>
				<g>
					<g>
						<path class="st0" d="M185,159c0.1,0,0.3,0,0.2-0.1l-0.3-0.1L185,159z"/>
						<path class="st0" d="M185.7,158.2c-0.2-0.1-0.4-0.3-0.7-0.2c0.3,0.1,0.2,0.2,0.6,0.3c0,0.1-0.1,0.2-0.2,0.2
							c0.1,0-0.1,0.2,0.1,0.2c0.3-0.1,0.3-0.3,0.1-0.5C185.5,158.1,185.6,158.2,185.7,158.2z"/>
						<path class="st0" d="M186.2,147.1L186.2,147.1C186.2,147.1,186.2,147.1,186.2,147.1z"/>
						<path class="st0" d="M186.4,140.2C186.4,140.2,186.4,140.3,186.4,140.2C186.4,140.2,186.4,140.2,186.4,140.2z"/>
						<path class="st0" d="M186.7,139C186.7,139,186.7,139,186.7,139C186.7,139,186.7,139,186.7,139z"/>
						<path class="st0" d="M186.2,147.1l0.1-0.2C186.2,146.9,186.2,147,186.2,147.1z"/>
						<path class="st0" d="M184.9,156.7C184.9,156.7,184.9,156.7,184.9,156.7C184.9,156.7,184.9,156.7,184.9,156.7
							C184.9,156.7,184.9,156.7,184.9,156.7z"/>
						<path class="st0" d="M186.4,150.1L186.4,150.1c0,0.1,0.1,0.1,0.1,0.1L186.4,150.1z"/>
						<path class="st0" d="M186.5,152.4c0-0.1-0.3-0.1-0.4-0.1c0.1,0,0.2,0.1,0.2,0.1C186.3,152.5,186.4,152.5,186.5,152.4z"/>
						<path class="st0" d="M186,156.1L186,156.1C186,156.2,186,156.1,186,156.1z"/>
						<path class="st0" d="M186.5,148.4c0,0,0.1,0,0.1,0C186.6,148.4,186.5,148.4,186.5,148.4z"/>
						<path class="st0" d="M184.4,83.2C184.4,83.2,184.4,83.2,184.4,83.2C184.4,83.2,184.4,83.2,184.4,83.2z"/>
						<path class="st0" d="M185.8,80.5L185.8,80.5c0.1,0,0.1,0,0.2,0L185.8,80.5z"/>
						<path class="st0" d="M187.1,136.8C187.1,136.9,187.1,136.9,187.1,136.8C187.1,136.9,187.1,136.9,187.1,136.8z"/>
						<path class="st0" d="M186.9,117.1c-0.3,0.2-0.3-0.4-0.6,0C186.4,117,186.7,117.4,186.9,117.1z"/>
						<path class="st0" d="M184.9,156.6C184.9,156.6,184.9,156.5,184.9,156.6C184.9,156.5,184.9,156.6,184.9,156.6z"/>
						<path class="st0" d="M186.3,117.1C186.3,117.1,186.3,117.1,186.3,117.1L186.3,117.1C186.3,117.1,186.3,117.1,186.3,117.1z"/>
						<path class="st0" d="M186.9,131.9c0,0-0.1,0-0.1,0.1C186.8,131.9,186.9,131.9,186.9,131.9z"/>
						<path class="st0" d="M186.5,135.6L186.5,135.6C186.5,135.5,186.5,135.6,186.5,135.6z"/>
						<path class="st0" d="M186.5,130c0,0,0.1-0.1,0-0.1c0,0,0,0,0,0C186.5,129.9,186.6,129.9,186.5,130z"/>
						<path class="st0" d="M186.5,128C186.5,128,186.5,128,186.5,128c-0.1,0.1,0,0.1,0,0.1L186.5,128z"/>
						<path class="st0" d="M184.5,89.3c0.1,0,0.2-0.1,0.3-0.1C184.6,89.3,184.5,89,184.5,89.3z"/>
						<path class="st0" d="M185,156.7c-0.1,0-0.1,0-0.1-0.1c0,0,0,0,0,0.1C185,156.7,185,156.7,185,156.7z"/>
						<path class="st0" d="M184.3,129.9l0-0.3C184.3,129.7,184.3,129.8,184.3,129.9z"/>
						<path class="st0" d="M184.6,103.6L184.6,103.6C184.5,103.6,184.5,103.6,184.6,103.6z"/>
						<path class="st0" d="M184.3,128.6c0.1-0.1,0.2-0.1,0.2-0.2c0,0,0,0-0.1,0L184.3,128.6z"/>
						<path class="st0" d="M184.8,89.2C184.8,89.2,184.8,89.2,184.8,89.2C184.8,89.2,184.8,89.2,184.8,89.2z"/>
						<path class="st0" d="M184.1,87.1c0,0.3,0.4,0.1,0.6,0.2c0.1,0.4-0.3,0.2-0.5,0.3c0.1,0.2,0.4,0.4,0.4,0.6c-0.1,0-0.1,0-0.2,0
							c0.3,0.2,0,0.7,0.4,1c0,0-0.1,0-0.1,0c0.2,0,0.4-0.1,0.5,0c0,0.1,0.2,0.3,0,0.3c0-0.1-0.1-0.1-0.2-0.1l0.1,0.1
							c-0.3,0.1-0.1-0.2-0.4-0.2c0.1,0.3,0.4,0.6,0.3,0.8c-0.3,0-0.1-0.5-0.4-0.2l0.1-0.3c-0.5,0.3,0-0.2-0.5,0
							c-0.1,0.4,0.2,0.5,0.1,0.9c0.2,0.1,0.3,0,0.5,0.1c0.3,0.6-0.9,0.5-0.4,0.9c0.2,0.1,0.7,0.2,0.4,0.5l-0.4-0.1
							c0,0.4,0.6,0.2,0.3,0.7c-0.2-0.1-0.1-0.3-0.2-0.3c-0.3,0.3,0.2,0.2,0.2,0.4l-0.3,0c0.1,0.4,0.3,0.9,0.4,1.4
							c-0.1,0-0.2-0.1-0.3,0c0.2,0.6,0,1.3-0.2,1.9l0.3,0.2c0,0.1-0.1,0.1-0.2,0c-0.1,0.2,0.2,0,0.3,0.1c0,0.1-0.2,0.2-0.3,0.1
							c0.2,0.4,0.5,1.2,0.2,1.6l-0.1-0.1c-0.1,0.3,0.6,0.4,0.3,0.7l-0.1-0.1c-0.1,0.7,0.1,1.5-0.3,2.1c0.4,0.1-0.2,0.7,0.4,0.8
							c-0.3,0.4-0.4,0.3-0.6,0.9c0,0.2,0.4,0.2,0.4,0.4l-0.3,0l0.3,0.3l-0.4,0.1l0.1,0.2c0-0.1,0.1-0.2,0.2-0.1
							c0.1,0.3-0.2,0.7-0.4,0.7l0.3,0.7c-0.1,0-0.2-0.1-0.2-0.2c0.3,0.4-0.3,0.1,0,0.4c0.1,0,0.2,0,0.2,0c-0.2,0.2-0.2,0.5-0.1,0.8
							l-0.2-0.1c-0.1,0.5,0.1,1.1,0.1,1.6c0.1-0.2,0.5-0.2,0.5,0l-0.3,0.1c0.2,0.1,0.1-0.2,0.4,0c0,0.2-0.4,0.1-0.5,0l0.1,0.3
							c-0.1,0-0.1,0-0.3-0.1c0.2,0.1-0.3,0.4,0,0.6l-0.1,0c0,0.6,0.1,0.8,0.1,1.3c0.3,0,0.2,0.2,0.4,0.3c-0.1,0.3-0.3,0.7-0.3,1.1
							c0.1,0.3,0.2,0.1,0.4,0.2c-0.3,0-0.2,0.4-0.4,0.2c0,0.5,0.1,0.6,0.3,1.2c0.1-0.1,0.2-0.1,0.2-0.1c0,0.1-0.1,0.3-0.2,0.2l0,0
							c0.4,0.7-0.7,1.6-0.2,2.1l0,0l0.3,0.6c0,0.3-0.2-0.2-0.4,0c0.4,0.6-0.1,1,0.2,1.5c-0.8,0.4,0.1,1.4-0.4,1.9l0.2,0
							c0.2,0.1-0.1,0.2-0.1,0.3c0.1,0,0.2-0.1,0.3-0.1c0.2,1.2-0.3,2.4-0.4,3.6c0,0.4,0.9,0.2,0.5,0.8l-0.3-0.2
							c0.4,0.9,0,1.8,0.3,2.7c-0.1-0.1-0.2-0.1-0.2-0.1c-0.2,0.2,0,0.7,0.2,0.7c0,0.1-0.2,0-0.3,0.1c-0.1,0.2,0.3,0.5,0.1,0.6
							c0,0-0.1-0.1-0.1-0.1c0.1,0.1,0,0.6,0.2,0.4c-0.1,0.3,0.1,0.6,0,0.9c0.3,0.2-0.1,0.6,0.3,0.6c-0.5,0-0.4,0.6-0.2,0.8
							c-0.1-0.1-0.1,0.2-0.3,0.1c0,0.2,0.1,0.4,0.3,0.4c-0.5,0.4,0.4,0.9-0.3,1.1c0.2,0.7,0.4,1.3,0.5,2c-0.5,0,0-0.7-0.5-0.7
							c0.2,0.6,0.6,0.9,0.5,1.5c-0.1,0.2-0.2-0.1-0.3-0.1c0.2,0.6,0,1.1,0.2,1.7c0,0-0.1-0.1-0.1-0.1c0,0.1-0.1,0.2,0.1,0.2
							l-0.1-0.1c0.3-0.2,0.6,0.4,0.8,0.4c-0.6-0.2-0.1,0.5-0.9,0.2c0,0.1,0.1,0.2,0.3,0.1c0,0.1-0.1,0.1-0.3,0
							c0.1,0.4,0.3,0.2,0.3,0.6c-0.1,0-0.1-0.1-0.3-0.1c0.2,0.2,0.4,0.3,0.3,0.6c-0.1,0-0.1,0-0.1-0.1c0,0.5,0.5,0.8,0.3,1.4
							c-0.4-0.2-0.1,0.2-0.5,0.2l0.1,0.3l0.2-0.1c0,0.3,0.3,0.5,0.1,0.7l-0.2-0.2l0.1,0.5l0.1-0.3c0.2,0.3,0.5,0,0.4,0.3
							c0-0.1,0,0.3-0.2,0.4c0,0,0,0,0,0c0.1,0.1,0.2,0.3,0.2,0.4c-0.1,0-0.4,0-0.5,0c0.3,0.1,0.1,0.6,0.4,0.7
							c-0.1-0.1-0.3-0.1-0.3,0l0.3,0.1c-0.1,0.1-0.1,0.1-0.3,0.1c0,0.4,0.5-0.1,0.3,0.3c0,0-0.1,0-0.1-0.1c-0.1,0.4,0.2,0.8,0,1.2
							c-0.4,0.1-0.1-0.3-0.4-0.2c0.1,0.6,0.5,1.1,0.4,1.7l0-0.1c0.5,0.1-0.3,0.4,0,0.7c0-0.1-0.3-0.1-0.2-0.1
							c-0.1,0.4,0.1,0.8,0.3,1.3l-0.1-0.1c-0.1,0.2-0.1,0.6-0.1,0.8c0.1,0.1,0.1,0.2,0.3,0.1c-0.8,0.7,0.4,1.4-0.2,2
							c0-0.1-0.1-0.2-0.1-0.1l0.1,0.5c0.2,0,0.1-0.1,0.3-0.2c0.1,0.1,0.2,0.2,0.2,0.4c-0.2-0.2-0.4,0-0.5,0.1c0.1,0,0.1,0,0.2,0
							c-0.4,0.3,0.5,0,0.2,0.4l-0.1,0c0.1,0.1,0.2,0.3,0.2,0.4c-0.3,0.1-0.1-0.2-0.3-0.2c0,0.2,0.5,0.4,0.2,0.6
							c-0.1-0.1-0.1-0.2-0.1-0.3c-0.3,0.2-0.2,0.2-0.3,0.4l0,0l-0.1,0.4l0.1-0.1c0.7,0.3,0.1,0.6,0.6,0.9c-0.4-0.4-0.2-0.1-0.6-0.1
							c-0.1,0.1-0.2,0.2-0.3,0.2c0.2,0.2-0.2,0.3,0.2,0.5c-0.1,0,0,0.2-0.3,0.1c0.1,0.2,0.2-0.1,0.3,0c0.3,0.4-0.4,0.8,0.1,1.3
							c0.2,0.4,0.5,0.5,0.7,0.9c-0.2,0.1-0.4-0.1-0.4-0.1c-0.1,0.2-0.1,0.4,0,0.6c-0.1,0-0.2,0-0.3,0.1c0,0.2,0.4,0.1,0.2,0.3
							c-0.1,0-0.3-0.1-0.4-0.2c0.1,0.2,0.3,0.4,0.4,0.6c-0.2,0.1-0.3-0.1-0.4-0.2c0.1,0.2,0.2,0.6,0.4,0.7l0.1-0.1
							c0,0.1-0.2,0-0.3,0c-0.2-0.2,0.1-0.3,0.2-0.3l0.1,0.1c0.6-0.1-0.1-0.6-0.1-0.9l0.4,0.1l-0.3-0.3c0.1-0.1,0.3-0.1,0.4,0
							c0.2-0.2-0.1-0.2,0.1-0.4c0,0,0.1,0,0.1,0l-0.1-0.2c0.1,0,0.3,0,0.2,0.1c0.2-0.4-0.3-0.6,0-0.7l0,0c-0.1-0.5-0.3,0-0.7-0.4
							l0.8-0.3l-0.3,0c0-0.1,0-0.2,0.2-0.1c-0.2-0.2-0.1,0-0.3-0.1c0.3-0.3-0.1-0.7,0.4-0.8c-0.2-0.1-0.2,0.2-0.3,0
							c0.5-0.1-0.1-0.3,0.2-0.5c0.3,0.1,0.1,0.3,0.4,0.1c-0.5-0.1,0.1-0.4,0-0.6c-0.4,0-0.2-0.4-0.3-0.7c0.1,0,0.2-0.6,0.3-0.9
							l0.1,0c-0.4-0.1-0.3-0.4-0.4-0.6c0.2,0,0.3,0,0.4,0.2l0-0.2c-0.1-0.1-0.2-0.1-0.2-0.3l0.3,0.1c0-0.3-0.3-0.6-0.1-0.9
							c-0.3,0-0.7,0.3-0.9-0.1c0.1,0,0.4,0,0.4,0.1c0,0-0.1-0.1-0.1-0.2l0.2,0.2c0.1-0.2-0.2-0.1-0.2-0.2c0.2,0,0.1-0.1,0.3-0.1
							c0,0-0.1,0.1,0,0.2c0-0.2,0.2-0.3,0.3-0.4c-0.1,0-0.3,0-0.3-0.1c0-0.3,0.2-0.1,0.3-0.3c-0.1-0.1,0-0.3-0.3-0.3
							c0-0.1,0.1-0.1,0.2-0.1c-0.1-0.1,0-0.7-0.4-0.5l0,0c0,0,0,0,0,0c0,0,0,0,0,0v0c-0.3-0.5,0.2-1,0-1.5l0.1,0
							c-0.1-0.3-0.1-0.6-0.3-0.8c0-0.1,0.2-0.2,0.3-0.2c-0.1-0.2-0.2-0.2,0-0.6c0.2,0.2,0.2-0.1,0.1,0.2c0.1-0.3,0.2-0.3,0-0.7
							c0.3,0.1,0.3-0.2,0.2-0.3l-0.2,0.2c0-0.2,0-0.3,0-0.4l0.3,0.1c0.4-0.6-0.7-1.1,0-1.5c-0.2-0.2-0.2,0.3-0.4,0.2
							c0-0.3,0.5-0.5,0.5-0.6c0.2-0.4-0.5-0.3-0.4-0.7c-0.1,0-0.4,0.1-0.5-0.2c0-0.3,0.5-0.3,0.6-0.2c0,0.1,0,0.1-0.1,0.1
							c0,0.1,0.1,0.2,0.2,0.1l-0.1,0c0.1-0.1,0.1-0.5,0.3-0.4c-0.1-0.2-0.2-0.1-0.3,0.1c0.2-0.3,0-0.5,0.1-0.9
							c-0.1,0.1-0.2,0.1-0.2,0.1c0.1-0.5-0.2-0.2-0.3-0.6c0.2-0.2,0.4,0.1,0.3-0.3c0.1-0.2,0.3,0,0.4,0c-0.2-0.3,0.2-0.6,0.2-0.8
							l0.1,0.2c-0.1-0.1-0.1-0.2-0.1-0.3l-0.2,0.1c0-0.1,0-0.2,0.1-0.2c-0.2-0.1-0.4,0.1-0.6-0.1c0.1-0.1-0.1-0.4,0.2-0.5
							c-0.1,0.4,0.3,0,0.4,0.3c0-0.1,0-0.2,0-0.3c0,0,0.1,0,0.1,0c0.3-0.4-0.4-0.2-0.3-0.6c0.2,0.1,0.3-0.1,0.3-0.2
							c0,0.2-0.3,0.1-0.4-0.1c0.1-0.3-0.1-0.3-0.1-0.4l-0.1,0.2c-0.2-0.1-0.2-0.2-0.2-0.4c0.1,0,0.1,0.2,0.2,0.1
							c-0.3-0.2,0.3-0.5,0.1-0.8c0.1-0.1,0.3,0,0.4-0.1c-0.2-0.3,0.2-0.3,0.1-0.7c-0.2,0.1-0.2,0.1-0.4-0.1l0.2,0.6l-0.3-0.4
							c0,0.2,0.1,0.4,0.1,0.5c-0.2-0.2-0.1-0.2-0.3-0.1c0.4-0.2-0.2-0.5,0-0.7l0.6,0c0.3-0.4-0.3-0.7-0.2-1.2l-0.1,0.2
							c-0.2-0.1,0-0.3-0.1-0.5c0.2,0,0.3-0.1,0.4-0.2c-0.1,0,0-0.4-0.4-0.4l0.3-0.2c0.1-0.4-0.6-0.5-0.5-0.9
							c0.2,0.1,0.4-0.1,0.5,0.2c0-0.1,0-0.3-0.1-0.3c0.1-0.1-0.3-0.4-0.1-0.5c-0.1-0.1-0.3-0.1-0.3-0.2c0,0,0.1,0,0.1,0
							c-0.1,0-0.1-0.2-0.4-0.1c0.6-0.4,0-1.2,0.5-1.5c-0.1-0.3-0.1-0.6-0.1-0.9c0.1,0,0.1,0,0.1,0.1c0.2-0.4-0.6-0.2-0.4-0.6
							c0.3-0.2,0.2,0.2,0.3,0.1c0.6-0.1-0.1-0.5,0.3-0.8l0,0.1c0.2-0.2-0.2-0.5-0.2-0.9c0,0,0.1,0,0.1,0c-0.3-0.2-0.4-0.7-0.5-1
							c0.3,0.1,0.1,0.2,0.4,0.1c0-0.2-0.4,0-0.5-0.3c0.1-0.1,0.3-0.3,0.5-0.3l0,0.3c0.4-0.1,0-0.4,0-0.5l0.2,0
							c-0.1-0.4-0.4-0.4-0.4-0.9l-0.1,0c-0.4-0.3,0.2-0.2-0.1-0.5l0.4-0.1c-0.1-0.2-0.4-0.6-0.5-0.9c0.3,0.2,0.4,0.5,0.6,0.7
							c0-0.2,0-0.6-0.2-0.7c0,0.1,0.1,0.2,0.1,0.2c-0.3-0.2-0.5-0.5-0.5-0.8c0.8,0.1,0.2-0.9,0.8-1.1c-0.3-0.6,0.1-1.2,0.1-1.9
							c-0.6,0.2,0-0.2-0.6-0.2c0-0.2,0-0.2,0-0.2l0.4-0.5c0.2-0.1,0.1,0.2,0.3,0.1c0-0.4,0.3-0.1,0.4-0.4c-0.2,0-0.3-0.1-0.2-0.3
							l-0.3,0.3c-0.3-0.5,0.5-0.4,0.2-0.9l0.2,0.2c-0.1-0.3,0-0.9-0.5-1.2c0.1,0,0.2-0.1,0.3,0c0.1-0.6-0.5-1.4-0.2-1.8l0.1,0
							c0-0.1-0.3-0.2-0.1-0.3c0.1,0,0.1,0,0.2,0c-0.1-0.1-0.3-0.3-0.2-0.5l0.2,0.1c0.2-0.6-0.4-0.9-0.5-1.4c0.4,0,0.6-0.5,0.7-0.7
							l0.1,0c0.1-0.7-0.4-1.2-0.5-1.8c0.5-0.4,0.2-1.3,0.5-2c-0.1,0.1-0.3,0-0.4-0.1c0.1-0.1-0.3-0.4,0.1-0.4l0,0.1
							c0.4-0.1,0.3-0.4,0.3-0.7l-0.5,0c0.8-0.6-0.3-1.6,0.4-2c-0.1-0.2-0.1-0.3-0.3-0.5l0.3,0c0.1-0.4,0.1-0.6,0-1.1l0.2,0.1
							c0-0.3-0.8-0.4-0.8-0.6l0.4-0.1c0-0.5,0.4-1,0-1.5c0.1,0,0.2,0,0.2,0.1c0-0.2,0.3-0.9-0.3-0.8c0.4,0,0-0.5-0.1-0.8l0.3,0
							c-0.4-0.2-0.5-0.2-0.6-0.6c0-0.1,0.2-0.1,0.2,0c0.1-0.3-0.3-0.2-0.1-0.5l0.2,0.1c0-0.3-0.1-0.2-0.3-0.4
							c-0.1-0.2,0.1-0.5,0.3-0.5c-0.2,0-0.4-0.2-0.3-0.3c0.1,0,0.2,0,0.2,0.1c0.2-0.4-0.3-0.7-0.1-1c0.1,0,0.1,0,0.2-0.1
							c0,0.4,0,0.6,0,0.6c0.3,0,0.3-0.3,0.7-0.1c-0.2-0.2-0.6-0.6-0.5-0.9c0,0,0,0,0.1,0l0,0c0-0.1,0-0.1,0-0.2
							c0-0.1,0.1-0.1,0.1-0.2c0.2,0,0.1-0.3,0.1-0.5c-0.3,0-0.2-0.2-0.5,0c0,0,0,0,0,0.1c0,0,0,0,0,0.1c0,0,0,0,0,0
							c0,0.1,0,0.2,0,0.4c-0.1-0.1-0.3-0.2-0.1-0.4c-0.2-0.1-0.4-0.2-0.5-0.2c0.4-0.2,0.6-0.6,0.8-0.6c-0.2-0.4-0.1-1-0.6-1.3
							c-0.1-0.1,0.2-0.1,0.2-0.2c0.1,0.1,0,0.2,0.1,0.2c-0.1-0.2-0.1-0.7-0.4-0.8c0.2-0.3,0.3,0.2,0.3-0.3l0.1,0.1
							c0.6-0.8-0.9-1.4-0.2-2.3c0,0.1-0.1,0.1-0.1,0.1c0.3-1.1-0.3-2.2,0.2-3.2c0.1-0.3-0.1-0.3-0.3-0.5l0.3-0.1l-0.3-0.3
							c-0.3-0.4,0.7-0.8,0.3-1.3l-0.2,0.1c0-0.2-0.1-0.6,0.1-0.6c0,0-0.2-0.1-0.1-0.1l0.2,0l-0.3-0.5c0.1-0.4,0.6,0.1,0.7-0.5
							c-0.1-0.2-0.5-0.6-0.6-0.5c0,0.1-0.1,0.2-0.3,0.2l-0.1-0.2c-0.5,0-0.9-0.2-1.3,0.3l0.3,0.3l-0.2,0.1l0-0.3
							c-0.2,0.2,0,0.3,0.1,0.4c-0.1,0-0.2,0.1-0.2,0.1l0.4,0.3c-0.2,0-0.4-0.1-0.5,0.1c0.2,0.1,0.4-0.1,0.5,0.1
							c-0.2,0.2-0.4,0.1-0.2,0.3c-0.1,0-0.2,0-0.2-0.1c0.1,0.2,0.1,0.4,0.3,0.5c-0.3,0.2,0.1,0.5-0.4,0.5c0.1,0.1,0.3,0.3,0.4,0.4
							c-0.5-0.3,0,0.6-0.6,0.5c0.5,0.2,0.2,0.7,0.5,1.1c0,0-0.1-0.1-0.1-0.1c0,0.2-0.2,0.3-0.3,0.4c0.4,0,0.5,0.3,0.7,0.5
							c-0.4,0.2-0.5-0.1-0.8-0.1c0.3,0,0.3,0.4,0.6,0.3c-0.2,0.2-0.1,0.2-0.4,0.3c0.5,0,0.1,0.2,0.4,0.3c-0.2,0.3-0.5,0.1-0.3,0.4
							C184.3,87.4,184.1,87.1,184.1,87.1z M185,94.2C185,94.2,185,94.2,185,94.2c0-0.1,0-0.1,0-0.1C184.9,94.1,184.9,94.1,185,94.2z
							 M185,94.8c0-0.1,0-0.2,0-0.3c0.1,0,0.2,0,0.2,0.1C185.1,94.6,185,94.7,185,94.8z M186.9,93.5c0,0.1,0,0.1-0.1,0.1
							c0,0,0-0.1,0-0.2c0,0,0,0,0,0C186.8,93.5,186.9,93.5,186.9,93.5z"/>
						<path class="st0" d="M186.5,93.4C186.5,93.3,186.5,93.3,186.5,93.4C186.5,93.3,186.5,93.4,186.5,93.4
							C186.5,93.4,186.5,93.4,186.5,93.4C186.5,93.4,186.5,93.4,186.5,93.4z"/>
						<path class="st0" d="M186.1,147.2L186.1,147.2C186.1,147.1,186.1,147.2,186.1,147.2C186.1,147.2,186.1,147.2,186.1,147.2z"/>
						<polygon class="st0" points="184.4,103 184.5,103 184.4,102.9 						"/>
						<path class="st0" d="M185.2,150.4C185.1,150.4,185.1,150.4,185.2,150.4C185.1,150.5,185.1,150.4,185.2,150.4z"/>
						<path class="st0" d="M185.1,151.8L185,152C185.1,151.9,185.1,151.9,185.1,151.8z"/>
						<path class="st0" d="M185,152.9c0,0,0.1,0,0.1,0c0,0,0,0,0,0L185,152.9z"/>
						<path class="st0" d="M184.6,135.7C184.6,135.6,184.6,135.6,184.6,135.7C184.6,135.5,184.6,135.6,184.6,135.7z"/>
						<path class="st0" d="M185.3,140.8c-0.1-0.1-0.1-0.1-0.1-0.2C185.1,140.7,185.1,140.8,185.3,140.8z"/>
						<path class="st0" d="M184.3,129.9C184.3,129.9,184.3,129.9,184.3,129.9C184.3,129.9,184.3,129.9,184.3,129.9L184.3,129.9z"/>
						<path class="st0" d="M185.2,140.4c-0.1,0.1,0,0.2,0,0.2C185.2,140.6,185.2,140.5,185.2,140.4z"/>
						<path class="st0" d="M184.8,157.6L184.8,157.6C184.8,157.7,184.9,157.7,184.8,157.6L184.8,157.6z"/>
						<path class="st0" d="M184.9,157.7L184.9,157.7C184.9,157.7,184.9,157.7,184.9,157.7z"/>
						<path class="st0" d="M185,157.9l-0.1-0.1C184.9,157.8,184.9,157.8,185,157.9z"/>
						<path class="st0" d="M185,156.2l-0.1,0C184.9,156.2,184.9,156.2,185,156.2z"/>
						<path class="st0" d="M184.9,155.7c0,0.1-0.2,0.3-0.2,0.4l0.1,0C184.7,156.1,185.1,155.8,184.9,155.7z"/>
						<path class="st0" d="M186.2,153.9l-0.1,0.4c0.1-0.1,0.3-0.1,0.3,0C186.7,153.8,186.1,154.4,186.2,153.9z"/>
						<path class="st0" d="M186.4,152.8c0.1,0.2,0.2,0,0.2,0C186.5,152.7,186.4,152.6,186.4,152.8z"/>
						<path class="st0" d="M186.4,144.6l0.3,0C186.6,144.5,186.5,144.6,186.4,144.6z"/>
						<polygon class="st0" points="185,143 184.9,143.2 185.1,143.2 						"/>
						<polygon class="st0" points="186.9,142.1 186.9,142.2 186.8,141.9 						"/>
						<path class="st0" d="M186.8,128.3l-0.3,0C186.5,128.5,186.9,128.5,186.8,128.3z"/>
						<path class="st0" d="M186.4,122.4c0.2-0.1,0.3-0.2,0.1-0.3C186.5,122.2,186.4,122.3,186.4,122.4z"/>
						<polygon class="st0" points="187,104.6 187.1,104.7 187,104.5 						"/>
					</g>
				</g>
			</g>
		</g>
	</g>
	<g>
		<g>
			<g>
				<g>
					<g>
						<path class="st0" d="M465,155c0.1,0,0.3,0,0.2-0.1l-0.3-0.1L465,155z"/>
						<path class="st0" d="M465.7,154.3c-0.2-0.1-0.4-0.3-0.7-0.2c0.3,0.1,0.2,0.2,0.6,0.3c0,0.1-0.1,0.2-0.2,0.2
							c0.1,0-0.1,0.2,0.1,0.2c0.3-0.1,0.3-0.3,0.1-0.5C465.5,154.3,465.6,154.3,465.7,154.3z"/>
						<path class="st0" d="M466.2,143.8L466.2,143.8C466.2,143.8,466.2,143.8,466.2,143.8z"/>
						<path class="st0" d="M466.4,137.2C466.4,137.3,466.4,137.3,466.4,137.2C466.4,137.2,466.4,137.2,466.4,137.2z"/>
						<path class="st0" d="M466.7,136.1C466.7,136.1,466.7,136.1,466.7,136.1C466.7,136.1,466.7,136.1,466.7,136.1z"/>
						<path class="st0" d="M466.2,143.8l0.1-0.2C466.2,143.6,466.2,143.7,466.2,143.8z"/>
						<path class="st0" d="M464.9,152.9C464.9,152.9,464.9,152.9,464.9,152.9C464.9,152.9,464.9,152.9,464.9,152.9
							C464.9,152.9,464.9,152.9,464.9,152.9z"/>
						<path class="st0" d="M466.4,146.6L466.4,146.6c0,0.1,0.1,0.1,0.1,0.1L466.4,146.6z"/>
						<path class="st0" d="M466.5,148.9c0-0.1-0.3-0.1-0.4-0.1c0.1,0,0.2,0.1,0.2,0.1C466.3,148.9,466.4,148.9,466.5,148.9z"/>
						<path class="st0" d="M466,152.4L466,152.4C466,152.4,466,152.4,466,152.4z"/>
						<path class="st0" d="M466.5,145.1c0,0,0.1,0,0.1,0C466.6,145,466.5,145,466.5,145.1z"/>
						<path class="st0" d="M464.4,83.1C464.4,83.1,464.4,83.1,464.4,83.1C464.4,83.1,464.4,83.1,464.4,83.1z"/>
						<path class="st0" d="M465.8,80.5L465.8,80.5c0.1,0,0.1,0,0.2,0L465.8,80.5z"/>
						<path class="st0" d="M467.1,134C467.1,134,467.1,134,467.1,134C467.1,134.1,467.1,134.1,467.1,134z"/>
						<path class="st0" d="M466.9,115.3c-0.3,0.2-0.3-0.3-0.6,0C466.4,115.2,466.7,115.5,466.9,115.3z"/>
						<path class="st0" d="M464.9,152.8C464.9,152.8,464.9,152.7,464.9,152.8C464.9,152.8,464.9,152.8,464.9,152.8z"/>
						<path class="st0" d="M466.3,115.2C466.3,115.2,466.3,115.2,466.3,115.2L466.3,115.2C466.3,115.3,466.3,115.3,466.3,115.2z"/>
						<path class="st0" d="M466.9,129.3c0,0-0.1,0-0.1,0C466.8,129.4,466.9,129.4,466.9,129.3z"/>
						<path class="st0" d="M466.5,132.8L466.5,132.8C466.5,132.8,466.5,132.8,466.5,132.8z"/>
						<path class="st0" d="M466.5,127.5c0,0,0.1-0.1,0-0.1c0,0,0,0,0,0C466.5,127.4,466.6,127.5,466.5,127.5z"/>
						<path class="st0" d="M466.5,125.6C466.5,125.6,466.5,125.6,466.5,125.6C466.5,125.7,466.5,125.7,466.5,125.6L466.5,125.6z"/>
						<path class="st0" d="M464.5,88.9c0.1,0,0.2-0.1,0.3-0.1C464.6,88.8,464.5,88.5,464.5,88.9z"/>
						<path class="st0" d="M465,152.9c-0.1,0-0.1,0-0.1-0.1c0,0,0,0,0,0.1C465,152.9,465,152.9,465,152.9z"/>
						<path class="st0" d="M464.3,127.4l0-0.3C464.3,127.2,464.3,127.3,464.3,127.4z"/>
						<path class="st0" d="M464.6,102.5L464.6,102.5C464.5,102.4,464.5,102.5,464.6,102.5z"/>
						<path class="st0" d="M464.3,126.2c0.1-0.1,0.2-0.1,0.2-0.2c0,0,0,0-0.1,0L464.3,126.2z"/>
						<path class="st0" d="M464.8,88.8C464.8,88.8,464.8,88.8,464.8,88.8C464.8,88.8,464.8,88.8,464.8,88.8z"/>
						<path class="st0" d="M464.1,86.8c0,0.3,0.4,0.1,0.6,0.2c0.1,0.3-0.3,0.2-0.5,0.3c0.1,0.2,0.4,0.4,0.4,0.5c-0.1,0-0.1,0-0.2,0
							c0.3,0.2,0,0.7,0.4,0.9c0,0-0.1,0-0.1,0c0.2,0,0.4,0,0.5,0c0,0.1,0.2,0.2,0,0.3c0-0.1-0.1-0.1-0.2-0.1l0.1,0.1
							c-0.3,0.1-0.1-0.2-0.4-0.2c0.1,0.3,0.4,0.6,0.3,0.8c-0.3,0-0.1-0.5-0.4-0.2l0.1-0.3c-0.5,0.2,0-0.2-0.5,0
							c-0.1,0.4,0.2,0.5,0.1,0.9c0.2,0.1,0.3,0,0.5,0.1c0.3,0.6-0.9,0.5-0.4,0.9c0.2,0.1,0.7,0.2,0.4,0.5l-0.4-0.1
							c0,0.4,0.6,0.2,0.3,0.6c-0.2-0.1-0.1-0.3-0.2-0.3c-0.3,0.3,0.2,0.2,0.2,0.4l-0.3,0c0.1,0.4,0.3,0.9,0.4,1.4
							c-0.1,0-0.2-0.1-0.3,0c0.2,0.6,0,1.3-0.2,1.8l0.3,0.2c0,0.1-0.1,0.1-0.2,0c-0.1,0.2,0.2,0,0.3,0.1c0,0.1-0.2,0.2-0.3,0.1
							c0.2,0.4,0.5,1.1,0.2,1.5l-0.1-0.1c-0.1,0.3,0.6,0.4,0.3,0.7l-0.1-0.1c-0.1,0.7,0.1,1.5-0.3,2c0.4,0.1-0.2,0.7,0.4,0.7
							c-0.3,0.4-0.4,0.3-0.6,0.8c0,0.1,0.4,0.2,0.4,0.4l-0.3,0l0.3,0.3l-0.4,0.1l0.1,0.2c0-0.1,0.1-0.1,0.2-0.1
							c0.1,0.3-0.2,0.7-0.4,0.7l0.3,0.6c-0.1,0-0.2-0.1-0.2-0.2c0.3,0.3-0.3,0.1,0,0.4c0.1,0,0.2,0,0.2,0c-0.2,0.2-0.2,0.5-0.1,0.8
							l-0.2-0.1c-0.1,0.5,0.1,1,0.1,1.5c0.1-0.2,0.5-0.1,0.5,0l-0.3,0.1c0.2,0.1,0.1-0.2,0.4,0c0,0.2-0.4,0.1-0.5,0l0.1,0.2
							c-0.1,0-0.1,0-0.3-0.1c0.2,0.1-0.3,0.4,0,0.6l-0.1,0c0,0.5,0.1,0.8,0.1,1.2c0.3,0,0.2,0.2,0.4,0.3c-0.1,0.3-0.3,0.7-0.3,1.1
							c0.1,0.3,0.2,0.1,0.4,0.2c-0.3,0-0.2,0.4-0.4,0.2c0,0.5,0.1,0.6,0.3,1.2c0.1-0.1,0.2-0.1,0.2-0.1c0,0.1-0.1,0.2-0.2,0.2l0,0
							c0.4,0.7-0.7,1.5-0.2,2l0,0l0.3,0.5c0,0.2-0.2-0.1-0.4,0c0.4,0.6-0.1,0.9,0.2,1.4c-0.8,0.4,0.1,1.3-0.4,1.8l0.2,0
							c0.2,0.1-0.1,0.2-0.1,0.3c0.1,0,0.2-0.1,0.3-0.1c0.2,1.1-0.3,2.3-0.4,3.4c0,0.4,0.9,0.2,0.5,0.8l-0.3-0.1
							c0.4,0.8,0,1.7,0.3,2.5c-0.1,0-0.2-0.1-0.2-0.1c-0.2,0.2,0,0.6,0.2,0.6c0,0.1-0.2,0-0.3,0.1c-0.1,0.2,0.3,0.4,0.1,0.5
							c0,0-0.1,0-0.1-0.1c0.1,0.1,0,0.5,0.2,0.4c-0.1,0.3,0.1,0.6,0,0.8c0.3,0.2-0.1,0.5,0.3,0.6c-0.5,0-0.4,0.5-0.2,0.7
							c-0.1-0.1-0.1,0.2-0.3,0.1c0,0.2,0.1,0.4,0.3,0.4c-0.5,0.4,0.4,0.8-0.3,1c0.2,0.7,0.4,1.3,0.5,1.9c-0.5,0,0-0.7-0.5-0.6
							c0.2,0.6,0.6,0.9,0.5,1.4c-0.1,0.1-0.2-0.1-0.3-0.1c0.2,0.6,0,1.1,0.2,1.6c0,0-0.1-0.1-0.1-0.1c0,0.1-0.1,0.2,0.1,0.2
							l-0.1-0.1c0.3-0.2,0.6,0.4,0.8,0.4c-0.6-0.2-0.1,0.5-0.9,0.2c0,0.1,0.1,0.1,0.3,0.1c0,0.1-0.1,0.1-0.3,0
							c0.1,0.4,0.3,0.2,0.3,0.5c-0.1,0-0.1-0.1-0.3-0.1c0.2,0.2,0.4,0.3,0.3,0.6c-0.1,0-0.1,0-0.1-0.1c0,0.5,0.5,0.8,0.3,1.3
							c-0.4-0.1-0.1,0.2-0.5,0.2l0.1,0.3l0.2-0.1c0,0.2,0.3,0.5,0.1,0.7l-0.2-0.2l0.1,0.4l0.1-0.3c0.2,0.2,0.5,0,0.4,0.3
							c0-0.1,0,0.2-0.2,0.4c0,0,0,0,0,0c0.1,0.1,0.2,0.2,0.2,0.4c-0.1,0-0.4,0-0.5,0c0.3,0.1,0.1,0.6,0.4,0.7c-0.1,0-0.3-0.1-0.3,0
							l0.3,0.1c-0.1,0.1-0.1,0.1-0.3,0.1c0,0.3,0.5-0.1,0.3,0.3c0,0-0.1,0-0.1-0.1c-0.1,0.4,0.2,0.8,0,1.1c-0.4,0.1-0.1-0.3-0.4-0.2
							c0.1,0.5,0.5,1.1,0.4,1.6l0-0.1c0.5,0.1-0.3,0.4,0,0.6c0-0.1-0.3-0.1-0.2-0.1c-0.1,0.3,0.1,0.7,0.3,1.2l-0.1-0.1
							c-0.1,0.2-0.1,0.5-0.1,0.8c0.1,0.1,0.1,0.2,0.3,0.1c-0.8,0.7,0.4,1.3-0.2,1.9c0-0.1-0.1-0.2-0.1-0.1l0.1,0.5
							c0.2,0,0.1-0.1,0.3-0.2c0.1,0.1,0.2,0.2,0.2,0.3c-0.2-0.2-0.4,0-0.5,0.1c0.1,0,0.1,0,0.2,0c-0.4,0.3,0.5,0,0.2,0.4l-0.1,0
							c0.1,0.1,0.2,0.3,0.2,0.4c-0.3,0.1-0.1-0.1-0.3-0.2c0,0.2,0.5,0.4,0.2,0.6c-0.1-0.1-0.1-0.2-0.1-0.3c-0.3,0.2-0.2,0.2-0.3,0.4
							l0,0l-0.1,0.4l0.1-0.1c0.7,0.3,0.1,0.5,0.6,0.9c-0.4-0.3-0.2-0.1-0.6-0.1c-0.1,0.1-0.2,0.2-0.3,0.2c0.2,0.2-0.2,0.3,0.2,0.5
							c-0.1,0,0,0.2-0.3,0.1c0.1,0.2,0.2-0.1,0.3,0c0.3,0.3-0.4,0.8,0.1,1.3c0.2,0.4,0.5,0.5,0.7,0.9c-0.2,0.1-0.4-0.1-0.4-0.1
							c-0.1,0.2-0.1,0.4,0,0.6c-0.1,0-0.2,0-0.3,0.1c0,0.2,0.4,0.1,0.2,0.3c-0.1,0-0.3-0.1-0.4-0.2c0.1,0.2,0.3,0.4,0.4,0.6
							c-0.2,0.1-0.3-0.1-0.4-0.2c0.1,0.2,0.2,0.6,0.4,0.6l0.1-0.1c0,0.1-0.2,0-0.3,0c-0.2-0.2,0.1-0.3,0.2-0.3l0.1,0.1
							c0.6-0.1-0.1-0.6-0.1-0.8l0.4,0.1l-0.3-0.3c0.1-0.1,0.3-0.1,0.4,0c0.2-0.2-0.1-0.2,0.1-0.3c0,0,0.1,0,0.1,0l-0.1-0.2
							c0.1,0,0.3,0,0.2,0.1c0.2-0.3-0.3-0.6,0-0.7l0,0c-0.1-0.5-0.3,0-0.7-0.4l0.8-0.2l-0.3,0c0,0,0-0.1,0.2-0.1
							c-0.2-0.2-0.1,0-0.3-0.1c0.3-0.2-0.1-0.7,0.4-0.7c-0.2-0.1-0.2,0.2-0.3,0c0.5-0.1-0.1-0.3,0.2-0.5c0.3,0.1,0.1,0.3,0.4,0.1
							c-0.5-0.1,0.1-0.4,0-0.6c-0.4,0-0.2-0.4-0.3-0.7c0.1,0,0.2-0.6,0.3-0.9l0.1,0c-0.4-0.1-0.3-0.4-0.4-0.6c0.2,0,0.3,0,0.4,0.2
							l0-0.2c-0.1,0-0.2-0.1-0.2-0.2l0.3,0.1c0-0.3-0.3-0.5-0.1-0.9c-0.3,0-0.7,0.3-0.9-0.1c0.1,0,0.4,0,0.4,0.1
							c0,0-0.1-0.1-0.1-0.2l0.2,0.1c0.1-0.2-0.2-0.1-0.2-0.2c0.2,0,0.1-0.1,0.3-0.1c0,0-0.1,0.1,0,0.2c0-0.1,0.2-0.3,0.3-0.4
							c-0.1,0-0.3,0-0.3-0.1c0-0.3,0.2-0.1,0.3-0.3c-0.1-0.1,0-0.2-0.3-0.2c0-0.1,0.1-0.1,0.2-0.1c-0.1-0.1,0-0.7-0.4-0.5l0,0
							c0,0,0,0,0,0c0,0,0,0,0,0v0c-0.3-0.5,0.2-1,0-1.4l0.1,0c-0.1-0.3-0.1-0.6-0.3-0.8c0-0.1,0.2-0.2,0.3-0.2
							c-0.1-0.2-0.2-0.2,0-0.5c0.2,0.2,0.2-0.1,0.1,0.2c0.1-0.3,0.2-0.3,0-0.6c0.3,0.1,0.3-0.2,0.2-0.3l-0.2,0.2c0-0.1,0-0.3,0-0.4
							l0.3,0.1c0.4-0.6-0.7-1,0-1.4c-0.2-0.1-0.2,0.3-0.4,0.2c0-0.3,0.5-0.5,0.5-0.6c0.2-0.3-0.5-0.3-0.4-0.7
							c-0.1,0-0.4,0.1-0.5-0.2c0-0.3,0.5-0.3,0.6-0.2c0,0.1,0,0.1-0.1,0.1c0,0.1,0.1,0.2,0.2,0.1l-0.1,0c0.1-0.1,0.1-0.5,0.3-0.4
							c-0.1-0.2-0.2-0.1-0.3,0.1c0.2-0.3,0-0.5,0.1-0.8c-0.1,0.1-0.2,0.1-0.2,0c0.1-0.5-0.2-0.2-0.3-0.6c0.2-0.2,0.4,0.1,0.3-0.3
							c0.1-0.2,0.3,0,0.4,0c-0.2-0.3,0.2-0.6,0.2-0.7l0.1,0.2c-0.1-0.1-0.1-0.2-0.1-0.3l-0.2,0.1c0-0.1,0-0.2,0.1-0.2
							c-0.2-0.1-0.4,0.1-0.6-0.1c0.1-0.1-0.1-0.4,0.2-0.4c-0.1,0.4,0.3,0,0.4,0.3c0-0.1,0-0.1,0-0.2c0,0,0.1,0,0.1,0
							c0.3-0.4-0.4-0.2-0.3-0.6c0.2,0.1,0.3-0.1,0.3-0.2c0,0.2-0.3,0.1-0.4-0.1c0.1-0.3-0.1-0.3-0.1-0.4l-0.1,0.2
							c-0.2-0.1-0.2-0.2-0.2-0.4c0.1,0,0.1,0.2,0.2,0.1c-0.3-0.2,0.3-0.4,0.1-0.7c0.1-0.1,0.3,0,0.4-0.1c-0.2-0.3,0.2-0.3,0.1-0.7
							c-0.2,0.1-0.2,0.1-0.4-0.1l0.2,0.5l-0.3-0.3c0,0.2,0.1,0.3,0.1,0.4c-0.2-0.2-0.1-0.1-0.3-0.1c0.4-0.2-0.2-0.4,0-0.7l0.6,0
							c0.3-0.4-0.3-0.7-0.2-1.2l-0.1,0.2c-0.2-0.1,0-0.3-0.1-0.5c0.2,0,0.3-0.1,0.4-0.2c-0.1,0,0-0.4-0.4-0.4l0.3-0.2
							c0.1-0.4-0.6-0.5-0.5-0.8c0.2,0.1,0.4-0.1,0.5,0.2c0-0.1,0-0.2-0.1-0.2c0.1-0.1-0.3-0.4-0.1-0.5c-0.1-0.1-0.3-0.1-0.3-0.2
							c0,0,0.1,0,0.1,0c-0.1,0-0.1-0.2-0.4-0.1c0.6-0.4,0-1.1,0.5-1.4c-0.1-0.3-0.1-0.6-0.1-0.9c0.1,0,0.1,0,0.1,0
							c0.2-0.3-0.6-0.2-0.4-0.6c0.3-0.2,0.2,0.2,0.3,0.1c0.6-0.1-0.1-0.5,0.3-0.7l0,0.1c0.2-0.2-0.2-0.5-0.2-0.8c0,0,0.1,0,0.1,0
							c-0.3-0.2-0.4-0.7-0.5-1c0.3,0.1,0.1,0.1,0.4,0.1c0-0.1-0.4,0-0.5-0.2c0.1-0.1,0.3-0.3,0.5-0.3l0,0.3c0.4-0.1,0-0.4,0-0.5
							l0.2,0c-0.1-0.4-0.4-0.4-0.4-0.9l-0.1,0c-0.4-0.2,0.2-0.2-0.1-0.4l0.4-0.1c-0.1-0.2-0.4-0.6-0.5-0.9c0.3,0.2,0.4,0.5,0.6,0.7
							c0-0.2,0-0.5-0.2-0.6c0,0.1,0.1,0.1,0.1,0.2c-0.3-0.2-0.5-0.5-0.5-0.8c0.8,0.1,0.2-0.8,0.8-1.1c-0.3-0.6,0.1-1.1,0.1-1.8
							c-0.6,0.2,0-0.2-0.6-0.2c0-0.2,0-0.2,0-0.2l0.4-0.5c0.2-0.1,0.1,0.1,0.3,0.1c0-0.3,0.3-0.1,0.4-0.4c-0.2,0-0.3-0.1-0.2-0.3
							l-0.3,0.3c-0.3-0.5,0.5-0.4,0.2-0.9l0.2,0.1c-0.1-0.2,0-0.9-0.5-1.1c0.1,0,0.2-0.1,0.3,0c0.1-0.6-0.5-1.3-0.2-1.7l0.1,0
							c0-0.1-0.3-0.2-0.1-0.3c0.1,0,0.1,0,0.2,0c-0.1-0.1-0.3-0.3-0.2-0.4l0.2,0.1c0.2-0.6-0.4-0.9-0.5-1.3c0.4,0,0.6-0.4,0.7-0.7
							l0.1,0c0.1-0.7-0.4-1.1-0.5-1.7c0.5-0.4,0.2-1.3,0.5-1.9c-0.1,0.1-0.3,0-0.4-0.1c0.1-0.1-0.3-0.4,0.1-0.4l0,0.1
							c0.4-0.1,0.3-0.4,0.3-0.6l-0.5,0c0.8-0.6-0.3-1.6,0.4-1.9c-0.1-0.1-0.1-0.3-0.3-0.5l0.3,0c0.1-0.4,0.1-0.6,0-1.1l0.2,0.1
							c0-0.3-0.8-0.4-0.8-0.6l0.4-0.1c0-0.5,0.4-1,0-1.5c0.1,0,0.2,0,0.2,0.1c0-0.2,0.3-0.9-0.3-0.8c0.4,0,0-0.5-0.1-0.8l0.3,0
							c-0.4-0.2-0.5-0.2-0.6-0.5c0-0.1,0.2-0.1,0.2,0c0.1-0.2-0.3-0.2-0.1-0.5l0.2,0.1c0-0.3-0.1-0.2-0.3-0.4
							c-0.1-0.2,0.1-0.5,0.3-0.5c-0.2,0-0.4-0.2-0.3-0.3c0.1,0,0.2,0,0.2,0.1c0.2-0.4-0.3-0.6-0.1-0.9c0.1,0,0.1,0,0.2,0
							c0,0.3,0,0.6,0,0.6c0.3,0,0.3-0.3,0.7-0.1c-0.2-0.2-0.6-0.6-0.5-0.8c0,0,0,0,0.1,0l0,0c0-0.1,0-0.1,0-0.2
							c0-0.1,0.1-0.1,0.1-0.2c0.2,0,0.1-0.3,0.1-0.4c-0.3,0-0.2-0.2-0.5,0c0,0,0,0,0,0.1c0,0,0,0,0,0.1c0,0,0,0,0,0
							c0,0.1,0,0.2,0,0.3c-0.1-0.1-0.3-0.2-0.1-0.4c-0.2-0.1-0.4-0.1-0.5-0.2c0.4-0.2,0.6-0.5,0.8-0.6c-0.2-0.4-0.1-1-0.6-1.2
							c-0.1-0.1,0.2-0.1,0.2-0.2c0.1,0.1,0,0.1,0.1,0.2c-0.1-0.2-0.1-0.7-0.4-0.7c0.2-0.3,0.3,0.2,0.3-0.2l0.1,0.1
							c0.6-0.8-0.9-1.3-0.2-2.2c0,0.1-0.1,0.1-0.1,0.1c0.3-1-0.3-2.1,0.2-3.1c0.1-0.3-0.1-0.3-0.3-0.5l0.3-0.1l-0.3-0.3
							c-0.3-0.4,0.7-0.7,0.3-1.2l-0.2,0.1c0-0.2-0.1-0.6,0.1-0.6c0,0-0.2-0.1-0.1-0.1l0.2,0l-0.3-0.5c0.1-0.4,0.6,0.1,0.7-0.5
							c-0.1-0.2-0.5-0.6-0.6-0.5c0,0.1-0.1,0.2-0.3,0.2l-0.1-0.2c-0.5,0-0.9-0.2-1.3,0.3l0.3,0.3l-0.2,0.1l0-0.3
							c-0.2,0.1,0,0.2,0.1,0.3c-0.1,0-0.2,0.1-0.2,0.1l0.4,0.3c-0.2,0-0.4-0.1-0.5,0.1c0.2,0.1,0.4-0.1,0.5,0.1
							c-0.2,0.1-0.4,0.1-0.2,0.3c-0.1,0-0.2,0-0.2-0.1c0.1,0.2,0.1,0.4,0.3,0.5c-0.3,0.2,0.1,0.5-0.4,0.5c0.1,0,0.3,0.3,0.4,0.4
							c-0.5-0.3,0,0.5-0.6,0.5c0.5,0.2,0.2,0.7,0.5,1c0,0-0.1-0.1-0.1-0.1c0,0.2-0.2,0.2-0.3,0.4c0.4,0,0.5,0.3,0.7,0.5
							c-0.4,0.2-0.5-0.1-0.8-0.1c0.3,0,0.3,0.4,0.6,0.3c-0.2,0.2-0.1,0.2-0.4,0.2c0.5,0,0.1,0.2,0.4,0.3c-0.2,0.3-0.5,0.1-0.3,0.3
							C464.3,87.1,464.1,86.8,464.1,86.8z M465,93.5C465,93.5,465,93.5,465,93.5c0-0.1,0-0.1,0-0.1C464.9,93.4,464.9,93.4,465,93.5z
							 M465,94.1c0-0.1,0-0.2,0-0.2c0.1,0,0.2,0,0.2,0.1C465.1,93.9,465,94,465,94.1z M466.9,92.9c0,0.1,0,0.1-0.1,0.1
							c0,0,0-0.1,0-0.2c0,0,0,0,0,0C466.8,92.9,466.9,92.9,466.9,92.9z"/>
						<path class="st0" d="M466.5,92.7C466.5,92.7,466.5,92.7,466.5,92.7C466.5,92.7,466.5,92.7,466.5,92.7
							C466.5,92.8,466.5,92.8,466.5,92.7C466.5,92.8,466.5,92.7,466.5,92.7z"/>
						<path class="st0" d="M466.1,143.8L466.1,143.8C466.1,143.8,466.1,143.8,466.1,143.8C466.1,143.8,466.1,143.8,466.1,143.8z"/>
						<polygon class="st0" points="464.4,101.9 464.5,101.9 464.4,101.8 						"/>
						<path class="st0" d="M465.2,146.9C465.1,146.9,465.1,147,465.2,146.9C465.1,147,465.1,147,465.2,146.9z"/>
						<path class="st0" d="M465.1,148.3l-0.1,0.2C465.1,148.4,465.1,148.3,465.1,148.3z"/>
						<path class="st0" d="M465,149.3c0,0,0.1,0,0.1,0c0,0,0,0,0,0L465,149.3z"/>
						<path class="st0" d="M464.6,132.9C464.6,132.9,464.6,132.9,464.6,132.9C464.6,132.8,464.6,132.8,464.6,132.9z"/>
						<path class="st0" d="M465.3,137.8c-0.1-0.1-0.1-0.1-0.1-0.2C465.1,137.7,465.1,137.8,465.3,137.8z"/>
						<path class="st0" d="M464.3,127.5C464.3,127.5,464.3,127.5,464.3,127.5C464.3,127.5,464.3,127.4,464.3,127.5L464.3,127.5z"/>
						<path class="st0" d="M465.2,137.4c-0.1,0.1,0,0.2,0,0.2C465.2,137.6,465.2,137.5,465.2,137.4z"/>
						<path class="st0" d="M464.8,153.8L464.8,153.8C464.8,153.8,464.9,153.8,464.8,153.8L464.8,153.8z"/>
						<path class="st0" d="M464.9,153.8L464.9,153.8C464.9,153.9,464.9,153.8,464.9,153.8z"/>
						<path class="st0" d="M465,154l-0.1-0.1C464.9,153.9,464.9,154,465,154z"/>
						<path class="st0" d="M465,152.4l-0.1,0C464.9,152.4,464.9,152.4,465,152.4z"/>
						<path class="st0" d="M464.9,152c0,0.1-0.2,0.2-0.2,0.4l0.1,0C464.7,152.3,465.1,152.1,464.9,152z"/>
						<path class="st0" d="M466.2,150.3l-0.1,0.3c0.1-0.1,0.3-0.1,0.3,0C466.7,150.2,466.1,150.7,466.2,150.3z"/>
						<path class="st0" d="M466.4,149.2c0.1,0.2,0.2,0,0.2,0C466.5,149.1,466.4,149.1,466.4,149.2z"/>
						<path class="st0" d="M466.4,141.4l0.3,0C466.6,141.3,466.5,141.4,466.4,141.4z"/>
						<polygon class="st0" points="465,139.9 464.9,140.1 465.1,140.1 						"/>
						<polygon class="st0" points="466.9,139 466.9,139.1 466.8,138.9 						"/>
						<path class="st0" d="M466.8,125.9l-0.3,0C466.5,126.1,466.9,126.1,466.8,125.9z"/>
						<path class="st0" d="M466.4,120.3c0.2-0.1,0.3-0.2,0.1-0.3C466.5,120.1,466.4,120.2,466.4,120.3z"/>
						<polygon class="st0" points="467,103.4 467.1,103.5 467,103.3 						"/>
					</g>
				</g>
			</g>
		</g>
	</g>
	<g>
		<g>
			<g>
				<g>
					<g>
						<path class="st0" d="M193.2,81.7c0-0.1,0-0.3,0-0.2L193.2,81.7L193.2,81.7z"/>
						<path class="st0" d="M193.1,81.1c0,0.2,0,0.4,0,0.7c0-0.3,0-0.2,0-0.6c0,0,0,0.1,0,0.2c0-0.1,0,0.1,0-0.1c0-0.3,0-0.3-0.1-0.1
							C193.1,81.2,193.1,81.2,193.1,81.1z"/>
						<path class="st0" d="M192,80.6L192,80.6C192,80.6,192,80.6,192,80.6z"/>
						<path class="st0" d="M191.3,80.4C191.3,80.4,191.3,80.4,191.3,80.4C191.3,80.3,191.3,80.4,191.3,80.4z"/>
						<path class="st0" d="M191.2,80C191.2,80,191.2,80,191.2,80C191.2,80,191.2,80,191.2,80z"/>
						<path class="st0" d="M192,80.6l0-0.1C192,80.6,192,80.6,192,80.6z"/>
						<path class="st0" d="M193,81.9C193,81.9,193,81.8,193,81.9C193,81.8,193,81.8,193,81.9C193,81.9,193,81.9,193,81.9z"/>
						<path class="st0" d="M192.3,80.3L192.3,80.3c0,0,0-0.1,0-0.1L192.3,80.3z"/>
						<path class="st0" d="M192.5,80.3c0,0,0,0.3,0,0.4c0-0.1,0-0.2,0-0.2C192.5,80.4,192.5,80.3,192.5,80.3z"/>
						<path class="st0" d="M192.9,80.8L192.9,80.8C192.9,80.7,192.9,80.7,192.9,80.8z"/>
						<path class="st0" d="M192.1,80.3c0,0,0-0.1,0-0.1C192.1,80.2,192.1,80.2,192.1,80.3z"/>
						<path class="st0" d="M185.5,82.4C185.5,82.3,185.5,82.3,185.5,82.4C185.5,82.3,185.5,82.4,185.5,82.4z"/>
						<path class="st0" d="M185.2,81L185.2,81c0-0.1,0-0.1,0-0.2L185.2,81z"/>
						<path class="st0" d="M191,79.7C191,79.7,191,79.7,191,79.7C191,79.6,191,79.7,191,79.7z"/>
						<path class="st0" d="M188.9,79.9c0,0.3,0,0.3,0,0.6C188.9,80.4,189,80,188.9,79.9z"/>
						<path class="st0" d="M193,81.9C193,81.9,193,81.9,193,81.9C193,81.9,193,81.9,193,81.9z"/>
						<path class="st0" d="M188.9,80.5C188.9,80.5,188.9,80.5,188.9,80.5L188.9,80.5C188.9,80.5,188.9,80.5,188.9,80.5z"/>
						<path class="st0" d="M190.4,79.8c0,0,0,0.1,0,0.1C190.5,79.9,190.5,79.9,190.4,79.8z"/>
						<path class="st0" d="M190.8,80.2L190.8,80.2C190.8,80.2,190.8,80.2,190.8,80.2z"/>
						<path class="st0" d="M190.3,80.2C190.2,80.2,190.2,80.2,190.3,80.2C190.2,80.2,190.2,80.2,190.3,80.2
							C190.2,80.2,190.2,80.2,190.3,80.2z"/>
						<path class="st0" d="M190,80.2C190,80.3,190.1,80.3,190,80.2C190.1,80.3,190.1,80.3,190,80.2L190,80.2z"/>
						<path class="st0" d="M186.1,82.2c0-0.1,0-0.2,0-0.3C186.1,82.2,186.1,82.2,186.1,82.2z"/>
						<path class="st0" d="M193,81.7c0,0.1,0,0.1,0,0.1c0,0,0,0,0,0C193,81.8,193,81.8,193,81.7z"/>
						<path class="st0" d="M190.2,82.5L190.2,82.5C190.2,82.4,190.2,82.5,190.2,82.5z"/>
						<path class="st0" d="M187.6,82.2L187.6,82.2C187.6,82.2,187.6,82.2,187.6,82.2z"/>
						<path class="st0" d="M190.1,82.5c0-0.1,0-0.2,0-0.2c0,0,0,0,0,0.1L190.1,82.5z"/>
						<path class="st0" d="M186.1,82C186.1,82,186.1,82,186.1,82C186.1,82,186.1,82,186.1,82z"/>
						<path class="st0" d="M185.9,82.6c0,0,0-0.4,0-0.6c0-0.1,0,0.3,0,0.5c0-0.1,0-0.4,0.1-0.4c0,0.1,0,0.1,0,0.2
							c0-0.3,0.1,0,0.1-0.4c0,0,0,0.1,0,0.1c0-0.2,0-0.4,0-0.5c0,0,0-0.2,0,0c0,0,0,0.1,0,0.2l0-0.1c0,0.3,0,0.1,0,0.4
							c0-0.1,0.1-0.4,0.1-0.3c0,0.3-0.1,0.1,0,0.4l0-0.1c0,0.5,0,0,0,0.5c0,0.1,0-0.2,0.1-0.1c0-0.2,0-0.3,0-0.5
							c0.1-0.3,0,0.9,0.1,0.4c0-0.2,0-0.7,0-0.4l0,0.4c0,0,0-0.6,0.1-0.3c0,0.2,0,0.1,0,0.2c0,0.3,0-0.2,0-0.2l0,0.3
							c0-0.1,0.1-0.3,0.1-0.4c0,0.1,0,0.2,0,0.3c0.1-0.2,0.1,0,0.2,0.2l0-0.3c0,0,0,0.1,0,0.2c0,0.1,0-0.2,0-0.3c0,0,0,0.2,0,0.3
							c0-0.2,0.1-0.5,0.2-0.2l0,0.1c0,0.1,0-0.6,0.1-0.3l0,0.1c0.1,0.1,0.2-0.1,0.2,0.3c0-0.4,0.1,0.2,0.1-0.4c0,0.3,0,0.4,0.1,0.6
							c0,0,0-0.4,0-0.4l0,0.3l0-0.3l0,0.4l0-0.1c0,0,0-0.1,0-0.2c0-0.1,0.1,0.2,0.1,0.4l0.1-0.3c0,0.1,0,0.2,0,0.2c0-0.3,0,0.3,0,0
							c0-0.1,0-0.2,0-0.2c0,0.2,0.1,0.2,0.1,0.1l0,0.2c0.1,0.1,0.1-0.1,0.2-0.1c0-0.1,0-0.5,0-0.5l0,0.3c0-0.2,0-0.1,0-0.4
							c0,0,0,0.4,0,0.5l0-0.1c0,0.1,0,0.1,0,0.3c0-0.2,0,0.3,0.1,0l0,0.1c0.1,0,0.1-0.1,0.1-0.1c0-0.3,0-0.2,0-0.4
							c0,0.1,0.1,0.3,0.1,0.3c0-0.1,0-0.2,0-0.4c0,0.3,0,0.2,0,0.4c0,0,0.1-0.1,0.1-0.3c0-0.1,0-0.2,0-0.2c0,0,0,0.1,0,0.2l0,0
							c0.1-0.4,0.2,0.7,0.2,0.2l0,0l0.1-0.3c0,0,0,0.2,0,0.4c0.1-0.4,0.1,0.1,0.2-0.2c0,0.8,0.1-0.1,0.2,0.4l0-0.2
							c0-0.2,0,0.1,0,0.1c0-0.1,0-0.2,0-0.3c0.1-0.2,0.2,0.3,0.4,0.4c0,0,0-0.9,0.1-0.5l0,0.3c0.1-0.4,0.2,0,0.3-0.3
							c0,0.1,0,0.2,0,0.2c0,0.2,0.1,0,0.1-0.2c0,0,0,0.2,0,0.3c0,0.1,0-0.3,0.1-0.1c0,0,0,0.1,0,0.1c0-0.1,0.1,0,0-0.2
							c0,0.1,0.1-0.1,0.1,0c0-0.3,0.1,0.1,0.1-0.3c0,0.5,0.1,0.4,0.1,0.2c0,0.1,0,0.1,0,0.3c0,0,0-0.1,0-0.3c0,0.5,0.1-0.4,0.1,0.3
							c0.1-0.2,0.1-0.4,0.2-0.5c0,0.5-0.1,0-0.1,0.5c0.1-0.2,0.1-0.6,0.2-0.5c0,0.1,0,0.2,0,0.3c0.1-0.2,0.1,0,0.2-0.2
							c0,0,0,0.1,0,0.1c0,0,0,0.1,0-0.1l0,0.1c0-0.3,0-0.6,0-0.8c0,0.6,0.1,0.1,0,0.9c0,0,0-0.1,0-0.3c0,0,0,0.1,0,0.3
							c0-0.1,0-0.3,0.1-0.3c0,0.1,0,0.1,0,0.3c0-0.2,0-0.4,0.1-0.3c0,0.1,0,0.1,0,0.1c0,0,0.1-0.5,0.1-0.3c0,0.4,0,0.1,0,0.5l0-0.1
							l0-0.2c0,0,0-0.3,0.1-0.1l0,0.2l0-0.1l0-0.1c0-0.2,0-0.5,0-0.4c0,0,0,0,0,0.2c0,0,0,0,0,0c0-0.1,0-0.2,0-0.2
							c0,0.1,0,0.4,0,0.5c0-0.3,0.1-0.1,0.1-0.4c0,0.1,0,0.3,0,0.3l0-0.3c0,0.1,0,0.1,0,0.3c0,0,0-0.5,0-0.3c0,0,0,0.1,0,0.1
							c0,0.1,0.1-0.2,0.1,0c0,0.4,0,0.1,0,0.4c0.1-0.1,0.1-0.5,0.2-0.4l0,0c0-0.5,0,0.3,0.1,0c0,0,0,0.3,0,0.2
							c0,0.1,0.1-0.1,0.1-0.3l0,0.1c0,0.1,0.1,0.1,0.1,0.1c0-0.1,0-0.1,0-0.3c0.1,0.8,0.1-0.4,0.2,0.2c0,0,0,0.1,0,0.1l0.1-0.1
							c0-0.2,0-0.1,0-0.3c0-0.1,0-0.2,0-0.2c0,0.2,0,0.4,0,0.5c0-0.1,0-0.1,0-0.2c0,0.4,0-0.5,0-0.2l0,0.1c0-0.1,0-0.2,0-0.2
							c0,0.3,0,0.1,0,0.3c0,0,0-0.5,0.1-0.2c0,0.1,0,0.1,0,0.1c0,0.3,0,0.2,0,0.3l0,0l0,0.1l0-0.1c0-0.7,0.1-0.1,0.1-0.6
							c0,0.4,0,0.2,0,0.6c0,0.1,0,0.2,0,0.3c0-0.2,0,0.2,0.1-0.2c0,0.1,0,0,0,0.3c0-0.1,0-0.2,0-0.3c0-0.3,0.1,0.4,0.1-0.1
							c0-0.2,0.1-0.5,0.1-0.7c0,0.2,0,0.4,0,0.4c0,0.1,0,0.1,0.1,0c0,0.1,0,0.2,0,0.3c0,0,0-0.4,0-0.2c0,0.1,0,0.3,0,0.4
							c0-0.1,0-0.3,0.1-0.4c0,0.2,0,0.3,0,0.4c0-0.1,0.1-0.2,0.1-0.4l0-0.1c0,0,0,0.2,0,0.3c0,0.2,0-0.1,0-0.2l0-0.1
							c0-0.6-0.1,0.1-0.1,0.1l0-0.4l0,0.3c0-0.1,0-0.3,0-0.4c0-0.2,0,0.1,0-0.1c0,0,0-0.1,0-0.1l0,0.1c0-0.1,0-0.3,0-0.2
							c0-0.2-0.1,0.3-0.1,0l0,0c-0.1,0.1,0,0.3,0,0.7l0-0.8l0,0.3c0,0,0,0,0-0.2c0,0.2,0,0.1,0,0.3c0-0.3-0.1,0.1-0.1-0.4
							c0,0.2,0,0.2,0,0.3c0-0.5,0,0.1-0.1-0.2c0-0.3,0-0.1,0-0.4c0,0.5,0-0.1-0.1,0c0,0.4,0,0.2-0.1,0.3c0-0.1-0.1-0.2-0.1-0.3
							l0-0.1c0,0.4,0,0.3-0.1,0.4c0-0.2,0-0.3,0-0.4l0,0c0,0.1,0,0.2,0,0.2l0-0.3c0,0-0.1,0.3-0.1,0.1c0,0.3,0,0.7,0,0.9
							c0-0.1,0-0.4,0-0.4c0,0,0,0.1,0,0.1l0-0.2c0-0.1,0,0.2,0,0.2c0-0.2,0-0.1,0-0.3c0,0,0,0.1,0,0c0,0,0-0.2,0-0.3
							c0,0.1,0,0.3,0,0.3c0,0,0-0.2,0-0.3c0,0.1,0,0,0,0.3c0,0,0-0.1,0-0.2c0,0.1-0.1,0-0.1,0.4l0,0c0,0,0,0,0,0c0,0,0,0,0,0h0
							c0,0.3-0.1-0.2-0.2,0l0-0.1c0,0.1-0.1,0.1-0.1,0.3c0,0,0-0.2,0-0.3c0,0.1,0,0.2-0.1,0c0-0.2,0-0.2,0-0.1c0-0.1,0-0.2-0.1,0
							c0-0.3,0-0.3,0-0.2l0,0.2c0,0,0,0,0,0l0-0.3c-0.1-0.4-0.1,0.7-0.2,0c0,0.2,0,0.2,0,0.4c0,0-0.1-0.5-0.1-0.5
							c0-0.2,0,0.5-0.1,0.4c0,0.1,0,0.4,0,0.5c0,0,0-0.5,0-0.6c0,0,0,0,0,0.1c0,0,0-0.1,0-0.2l0,0.1c0-0.1-0.1-0.1,0-0.3
							c0,0.1,0,0.2,0,0.3c0-0.2-0.1,0-0.1-0.1c0,0.1,0,0.2,0,0.2c-0.1-0.1,0,0.2-0.1,0.3c0-0.2,0-0.4,0-0.3c0-0.1,0-0.3,0-0.4
							c0,0.2-0.1-0.2-0.1-0.2l0-0.1c0,0.1,0,0.1,0,0.1l0,0.2c0,0,0,0,0-0.1c0,0.2,0,0.4,0,0.6c0-0.1,0,0.1,0-0.2c0,0.1,0-0.3,0-0.4
							c0,0,0,0,0,0c0,0,0-0.1,0-0.1c0-0.3,0,0.4-0.1,0.3c0-0.2,0-0.3,0-0.3c0,0,0,0.3,0,0.4c0-0.1,0,0.1,0,0.1l0,0.1
							c0,0.2,0,0.2,0,0.2c0-0.1,0-0.1,0-0.2c0,0.3,0-0.3-0.1-0.1c0-0.1,0-0.3,0-0.4c0,0.2,0-0.2-0.1-0.1c0,0.2,0,0.2,0,0.4l0.1-0.2
							l0,0.3c0,0,0-0.1,0-0.1c0,0.2,0,0.1,0,0.3c0-0.4,0,0.2-0.1,0l0-0.6c0-0.3-0.1,0.3-0.1,0.2l0,0.1c0,0.2,0,0,0,0.1
							c0-0.2,0-0.3,0-0.4c0,0.1,0,0,0,0.4l0-0.3c0-0.1,0,0.6-0.1,0.5c0-0.2,0-0.4,0-0.5c0,0,0,0,0,0.1c0-0.1,0,0.3-0.1,0.1
							c0,0.1,0,0.3,0,0.3c0,0,0-0.1,0-0.1c0,0.1,0,0.1,0,0.4c0-0.6-0.1,0-0.2-0.5c0,0.1-0.1,0.1-0.1,0.1c0-0.1,0-0.1,0-0.1
							c0-0.2,0,0.6-0.1,0.4c0-0.3,0-0.2,0-0.3c0-0.6-0.1,0.1-0.1-0.3l0,0c0-0.2-0.1,0.2-0.1,0.2c0,0,0-0.1,0-0.1
							c0,0.3-0.1,0.4-0.1,0.5c0-0.3,0-0.1,0-0.4c0,0,0,0.4,0,0.5c0-0.1,0-0.3,0-0.5l0,0c0-0.4,0,0-0.1,0l0-0.2c0,0.1,0,0.4-0.1,0.4
							l0,0.1c0,0.4,0-0.2,0,0.1l0-0.4c0,0.1-0.1,0.4-0.1,0.5c0-0.3,0.1-0.4,0.1-0.6c0,0-0.1,0-0.1,0.2c0,0,0-0.1,0-0.1
							c0,0.3,0,0.5-0.1,0.5c0-0.8-0.1-0.2-0.1-0.8c-0.1,0.3-0.1-0.1-0.2-0.1c0,0.6,0,0,0,0.6c0,0,0,0,0,0l0-0.4c0-0.2,0-0.1,0-0.3
							c0,0,0-0.3,0-0.4c0,0.2,0,0.3,0,0.2l0,0.3c-0.1,0.3,0-0.5-0.1-0.2l0-0.2c0,0.1-0.1,0-0.1,0.5c0-0.1,0-0.2,0-0.3
							c-0.1-0.1-0.1,0.5-0.2,0.2l0-0.1c0,0,0,0.3,0,0.1c0-0.1,0-0.1,0-0.2c0,0.1,0,0.3,0,0.2l0-0.2c-0.1-0.2-0.1,0.4-0.1,0.5
							c0-0.4,0-0.6-0.1-0.7l0-0.1c-0.1-0.1-0.1,0.4-0.2,0.5c0-0.5-0.1-0.2-0.2-0.5c0,0.1,0,0.3,0,0.4c0-0.1,0,0.3,0-0.1l0,0
							c0-0.4,0-0.3-0.1-0.3l0,0.5c-0.1-0.8-0.2,0.3-0.2-0.4c0,0.1,0,0.1,0,0.3l0-0.3c0-0.1-0.1-0.1-0.1,0l0-0.2c0,0,0,0.8-0.1,0.8
							l0-0.4c-0.1,0-0.1-0.4-0.2,0c0-0.1,0-0.2,0-0.2c0,0-0.1-0.3-0.1,0.3c0-0.4-0.1,0-0.1,0.1l0-0.3c0,0.4,0,0.5-0.1,0.6
							c0,0,0-0.2,0-0.2c0-0.1,0,0.3-0.1,0.1l0-0.2c0,0,0,0.1,0,0.3c0,0.1-0.1-0.1-0.1-0.3c0,0.2,0,0.4,0,0.3c0-0.1,0-0.2,0-0.2
							c0-0.2-0.1,0.3-0.1,0.1c0-0.1,0-0.1,0-0.2c0,0,0.1,0,0.1,0c0-0.3,0-0.3,0-0.7c0,0.2-0.1,0.6-0.1,0.5c0,0,0,0,0-0.1l0,0
							c0,0,0,0,0,0c0,0,0-0.1,0-0.1c0-0.2,0-0.1,0-0.1c0,0.3,0,0.2,0,0.5c0,0,0,0,0,0c0,0,0,0,0,0c0,0,0,0,0,0c0,0,0,0,0,0
							c0,0.1,0,0.3,0,0.1c0,0.2,0,0.4,0,0.5c0-0.4-0.1-0.6-0.1-0.8c0,0.2-0.1,0.1-0.1,0.6c0,0.1,0-0.2,0-0.2c0-0.1,0,0,0-0.1
							c0,0.1-0.1,0.1-0.1,0.4c0-0.2,0-0.3,0-0.3l0-0.1c-0.1-0.6-0.1,0.9-0.2,0.2c0,0,0,0.1,0,0.1c-0.1-0.3-0.2,0.3-0.3-0.2
							c0-0.1,0,0.1-0.1,0.3l0-0.3l0,0.3c0,0.3-0.1-0.7-0.1-0.3l0,0.2c0,0-0.1,0.1-0.1-0.1c0,0,0,0.2,0,0.1l0-0.2l0,0.3
							c0-0.1,0-0.6-0.1-0.7c0,0.1-0.1,0.5-0.1,0.6c0,0,0,0.1,0,0.3l0,0.1c0,0.5,0,0.9,0,1.3l0-0.3l0,0.2l0,0c0,0.2,0,0,0-0.1
							c0,0.1,0,0.2,0,0.2l0-0.4c0,0.2,0,0.4,0,0.5c0-0.2,0-0.4,0-0.5c0,0.2,0,0.4,0,0.2c0,0.1,0,0.2,0,0.2c0-0.1,0-0.1,0.1-0.3
							c0,0.3,0.1-0.1,0.1,0.4c0-0.1,0-0.3,0-0.4c0,0.5,0.1,0,0,0.6c0-0.5,0.1-0.2,0.1-0.5c0,0,0,0.1,0,0.1c0,0,0,0.2,0,0.3
							c0-0.4,0-0.5,0.1-0.7c0,0.4,0,0.5,0,0.8c0-0.3,0-0.3,0-0.6c0,0.2,0,0.1,0,0.4c0-0.5,0-0.1,0-0.4c0,0.2,0,0.5,0,0.3
							C185.9,82.5,185.9,82.6,185.9,82.6z M186.6,81.8C186.6,81.8,186.6,81.8,186.6,81.8C186.6,81.8,186.6,81.8,186.6,81.8
							C186.6,81.8,186.6,81.8,186.6,81.8z M186.7,81.8C186.7,81.8,186.6,81.8,186.7,81.8c0-0.1,0-0.2,0-0.2
							C186.6,81.7,186.7,81.7,186.7,81.8z M186.5,79.8C186.5,79.8,186.5,79.9,186.5,79.8c0,0.1,0,0.1,0,0.1c0,0,0,0,0,0
							C186.5,79.9,186.5,79.9,186.5,79.8z"/>
						<path class="st0" d="M186.5,80.2C186.5,80.2,186.5,80.2,186.5,80.2C186.5,80.3,186.5,80.3,186.5,80.2
							C186.5,80.3,186.5,80.2,186.5,80.2C186.5,80.2,186.5,80.2,186.5,80.2z"/>
						<path class="st0" d="M192,80.6L192,80.6C192,80.6,192,80.6,192,80.6C192,80.6,192,80.6,192,80.6z"/>
						<polygon class="st0" points="187.5,82.3 187.5,82.3 187.5,82.3 						"/>
						<path class="st0" d="M192.3,81.6C192.3,81.6,192.3,81.6,192.3,81.6C192.3,81.6,192.3,81.6,192.3,81.6z"/>
						<path class="st0" d="M192.5,81.7l0,0.1C192.5,81.7,192.5,81.7,192.5,81.7z"/>
						<path class="st0" d="M192.6,81.8c0,0,0-0.1,0-0.1c0,0,0,0,0,0L192.6,81.8z"/>
						<path class="st0" d="M190.8,82.1C190.8,82.1,190.8,82.1,190.8,82.1C190.8,82.2,190.8,82.2,190.8,82.1z"/>
						<path class="st0" d="M191.4,81.5c0,0.1,0,0.1,0,0.1C191.3,81.6,191.4,81.6,191.4,81.5z"/>
						<polygon class="st0" points="190.2,82.5 190.2,82.5 190.2,82.5 						"/>
						<path class="st0" d="M191.3,81.6C191.3,81.7,191.3,81.6,191.3,81.6C191.3,81.6,191.3,81.6,191.3,81.6z"/>
						<path class="st0" d="M193.1,81.9L193.1,81.9C193.1,81.9,193.1,81.9,193.1,81.9L193.1,81.9z"/>
						<path class="st0" d="M193.1,81.9L193.1,81.9C193.1,81.9,193.1,81.9,193.1,81.9z"/>
						<path class="st0" d="M193.1,81.8L193.1,81.8C193.1,81.9,193.1,81.9,193.1,81.8z"/>
						<path class="st0" d="M192.9,81.8l0,0.1C192.9,81.9,192.9,81.8,192.9,81.8z"/>
						<path class="st0" d="M192.9,81.8c0,0,0,0.2,0,0.2L192.9,81.8C192.9,82,192.9,81.6,192.9,81.8z"/>
						<path class="st0" d="M192.7,80.6L192.7,80.6c0,0,0-0.2,0-0.2C192.7,80,192.7,80.6,192.7,80.6z"/>
						<path class="st0" d="M192.6,80.4c0-0.1,0-0.2,0-0.2C192.6,80.3,192.6,80.3,192.6,80.4z"/>
						<path class="st0" d="M191.7,80.4l0-0.3C191.7,80.2,191.7,80.2,191.7,80.4z"/>
						<polygon class="st0" points="191.6,81.7 191.6,81.9 191.6,81.6 						"/>
						<polygon class="st0" points="191.5,79.9 191.5,79.9 191.5,80 						"/>
						<path class="st0" d="M190.1,80l0,0.3C190.1,80.3,190.1,79.9,190.1,80z"/>
						<path class="st0" d="M189.5,80.3c0-0.2,0-0.3,0-0.1C189.5,80.2,189.5,80.4,189.5,80.3z"/>
						<polygon class="st0" points="187.7,79.8 187.7,79.7 187.6,79.8 						"/>
					</g>
				</g>
			</g>
		</g>
	</g>
	<g>
		<g>
			<g>
				<g>
					<g>
						<path class="st0" d="M194.2,159.7c0-0.1,0-0.3,0-0.2L194.2,159.7L194.2,159.7z"/>
						<path class="st0" d="M194.1,159.1c0,0.2,0,0.4,0,0.7c0-0.3,0-0.2,0-0.6c0,0,0,0.1,0,0.2c0-0.1,0,0.1,0-0.1
							c0-0.3,0-0.3-0.1-0.1C194.1,159.2,194.1,159.2,194.1,159.1z"/>
						<path class="st0" d="M192.8,158.6L192.8,158.6C192.9,158.6,192.8,158.6,192.8,158.6z"/>
						<path class="st0" d="M192.1,158.4C192.1,158.4,192.1,158.4,192.1,158.4C192.1,158.3,192.1,158.4,192.1,158.4z"/>
						<path class="st0" d="M191.9,158C191.9,158,191.9,158,191.9,158C191.9,158,191.9,158,191.9,158z"/>
						<path class="st0" d="M192.8,158.6l0-0.1C192.8,158.6,192.8,158.6,192.8,158.6z"/>
						<path class="st0" d="M193.9,159.9C193.9,159.9,194,159.8,193.9,159.9C194,159.8,193.9,159.8,193.9,159.9
							C193.9,159.9,193.9,159.9,193.9,159.9z"/>
						<path class="st0" d="M193.2,158.3L193.2,158.3c0,0,0-0.1,0-0.1L193.2,158.3z"/>
						<path class="st0" d="M193.5,158.3c0,0,0,0.3,0,0.4c0-0.1,0-0.2,0-0.2C193.5,158.4,193.5,158.3,193.5,158.3z"/>
						<path class="st0" d="M193.9,158.8L193.9,158.8C193.9,158.7,193.9,158.7,193.9,158.8z"/>
						<path class="st0" d="M193,158.3c0,0,0-0.1,0-0.1C193,158.2,193,158.2,193,158.3z"/>
						<path class="st0" d="M185.5,160.4C185.5,160.3,185.5,160.3,185.5,160.4C185.5,160.3,185.5,160.4,185.5,160.4z"/>
						<path class="st0" d="M185.2,159L185.2,159c0-0.1,0-0.1,0-0.2L185.2,159z"/>
						<path class="st0" d="M191.7,157.7C191.7,157.7,191.7,157.7,191.7,157.7C191.7,157.6,191.7,157.7,191.7,157.7z"/>
						<path class="st0" d="M189.4,157.9c0,0.3,0,0.3,0,0.6C189.4,158.4,189.4,158,189.4,157.9z"/>
						<path class="st0" d="M193.9,159.9C193.9,159.9,193.9,159.9,193.9,159.9C193.9,159.9,193.9,159.9,193.9,159.9z"/>
						<path class="st0" d="M189.4,158.5C189.4,158.5,189.4,158.5,189.4,158.5L189.4,158.5C189.4,158.5,189.4,158.5,189.4,158.5z"/>
						<path class="st0" d="M191.1,157.8c0,0,0,0.1,0,0.1C191.1,157.9,191.1,157.9,191.1,157.8z"/>
						<path class="st0" d="M191.5,158.2L191.5,158.2C191.5,158.2,191.5,158.2,191.5,158.2z"/>
						<path class="st0" d="M190.9,158.2C190.9,158.2,190.9,158.2,190.9,158.2C190.9,158.2,190.9,158.2,190.9,158.2
							C190.9,158.2,190.9,158.2,190.9,158.2z"/>
						<path class="st0" d="M190.7,158.2C190.7,158.3,190.7,158.3,190.7,158.2C190.7,158.3,190.7,158.3,190.7,158.2L190.7,158.2z"/>
						<path class="st0" d="M186.2,160.2c0-0.1,0-0.2,0-0.3C186.2,160.2,186.2,160.2,186.2,160.2z"/>
						<path class="st0" d="M193.9,159.7c0,0.1,0,0.1,0,0.1c0,0,0,0,0,0C193.9,159.8,193.9,159.8,193.9,159.7z"/>
						<path class="st0" d="M190.9,160.5L190.9,160.5C190.8,160.4,190.9,160.5,190.9,160.5z"/>
						<path class="st0" d="M187.9,160.2L187.9,160.2C187.9,160.2,187.9,160.2,187.9,160.2z"/>
						<path class="st0" d="M190.7,160.5c0-0.1,0-0.2,0-0.2c0,0,0,0,0,0.1L190.7,160.5z"/>
						<path class="st0" d="M186.2,160C186.2,160,186.2,160,186.2,160C186.2,160,186.2,160,186.2,160z"/>
						<path class="st0" d="M186,160.6c0,0,0-0.4,0-0.6c0-0.1,0,0.3,0,0.5c0-0.1,0-0.4,0.1-0.4c0,0.1,0,0.1,0,0.2
							c0-0.3,0.1,0,0.1-0.4c0,0,0,0.1,0,0.1c0-0.2,0-0.4,0-0.5c0,0,0-0.2,0,0c0,0,0,0.1,0,0.2l0-0.1c0,0.3,0,0.1,0,0.4
							c0-0.1,0.1-0.4,0.1-0.3c0,0.3-0.1,0.1,0,0.4l0-0.1c0,0.5,0,0,0,0.5c0,0.1,0.1-0.2,0.1-0.1c0-0.2,0-0.3,0-0.5
							c0.1-0.3,0.1,0.9,0.1,0.4c0-0.2,0-0.7,0.1-0.4l0,0.4c0,0,0-0.6,0.1-0.3c0,0.2,0,0.1,0,0.2c0,0.3,0-0.2,0-0.2l0,0.3
							c0.1-0.1,0.1-0.3,0.2-0.4c0,0.1,0,0.2,0,0.3c0.1-0.2,0.2,0,0.2,0.2l0-0.3c0,0,0,0.1,0,0.2c0,0.1,0-0.2,0-0.3c0,0,0,0.2,0,0.3
							c0-0.2,0.1-0.5,0.2-0.2l0,0.1c0,0.1,0-0.6,0.1-0.3l0,0.1c0.1,0.1,0.2-0.1,0.2,0.3c0-0.4,0.1,0.2,0.1-0.4c0,0.3,0,0.4,0.1,0.6
							c0,0,0-0.4,0-0.4l0,0.3l0-0.3l0,0.4l0-0.1c0,0,0-0.1,0-0.2c0-0.1,0.1,0.2,0.1,0.4l0.1-0.3c0,0.1,0,0.2,0,0.2c0-0.3,0,0.3,0,0
							c0-0.1,0-0.2,0-0.2c0,0.2,0.1,0.2,0.1,0.1l0,0.2c0.1,0.1,0.1-0.1,0.2-0.1c0-0.1,0-0.5,0-0.5l0,0.3c0-0.2,0-0.1,0-0.4
							c0,0,0,0.4,0,0.5l0-0.1c0,0.1,0,0.1,0,0.3c0-0.2,0.1,0.3,0.1,0l0,0.1c0.1,0,0.1-0.1,0.1-0.1c0-0.3,0-0.2,0-0.4
							c0,0.1,0.1,0.3,0.1,0.3c0-0.1,0-0.2,0-0.4c0,0.3,0,0.2,0,0.4c0.1,0,0.1-0.1,0.1-0.3c0-0.1,0-0.2,0-0.2c0,0,0,0.1,0,0.2l0,0
							c0.1-0.4,0.2,0.7,0.2,0.2l0,0l0.1-0.3c0,0,0,0.2,0,0.4c0.1-0.4,0.1,0.1,0.2-0.2c0,0.8,0.2-0.1,0.2,0.4l0-0.2
							c0-0.2,0,0.1,0,0.1c0-0.1,0-0.2,0-0.3c0.1-0.2,0.3,0.3,0.4,0.4c0,0,0-0.9,0.1-0.5l0,0.3c0.1-0.4,0.2,0,0.3-0.3
							c0,0.1,0,0.2,0,0.2c0,0.2,0.1,0,0.1-0.2c0,0,0,0.2,0,0.3c0,0.1,0.1-0.3,0.1-0.1c0,0,0,0.1,0,0.1c0-0.1,0.1,0,0.1-0.2
							c0,0.1,0.1-0.1,0.1,0c0-0.3,0.1,0.1,0.1-0.3c0,0.5,0.1,0.4,0.1,0.2c0,0.1,0,0.1,0,0.3c0,0,0.1-0.1,0-0.3
							c0,0.5,0.1-0.4,0.1,0.3c0.1-0.2,0.2-0.4,0.2-0.5c0,0.5-0.1,0-0.1,0.5c0.1-0.2,0.1-0.6,0.2-0.5c0,0.1,0,0.2,0,0.3
							c0.1-0.2,0.1,0,0.2-0.2c0,0,0,0.1,0,0.1c0,0,0,0.1,0-0.1l0,0.1c0-0.3,0-0.6,0-0.8c0,0.6,0.1,0.1,0,0.9c0,0,0-0.1,0-0.3
							c0,0,0,0.1,0,0.3c0-0.1,0-0.3,0.1-0.3c0,0.1,0,0.1,0,0.3c0-0.2,0-0.4,0.1-0.3c0,0.1,0,0.1,0,0.1c0.1,0,0.1-0.5,0.2-0.3
							c0,0.4,0,0.1,0,0.5l0-0.1l0-0.2c0,0,0.1-0.3,0.1-0.1l0,0.2l0.1-0.1l0-0.1c0-0.2,0-0.5,0-0.4c0,0,0,0,0,0.2c0,0,0,0,0,0
							c0-0.1,0-0.2,0.1-0.2c0,0.1,0,0.4,0,0.5c0-0.3,0.1-0.1,0.1-0.4c0,0.1,0,0.3,0,0.3l0-0.3c0,0.1,0,0.1,0,0.3c0,0,0-0.5,0-0.3
							c0,0,0,0.1,0,0.1c0,0.1,0.1-0.2,0.1,0c0,0.4,0,0.1,0,0.4c0.1-0.1,0.1-0.5,0.2-0.4l0,0c0-0.5,0,0.3,0.1,0c0,0,0,0.3,0,0.2
							c0,0.1,0.1-0.1,0.1-0.3l0,0.1c0,0.1,0.1,0.1,0.1,0.1c0-0.1,0-0.1,0-0.3c0.1,0.8,0.2-0.4,0.2,0.2c0,0,0,0.1,0,0.1l0.1-0.1
							c0-0.2,0-0.1,0-0.3c0-0.1,0-0.2,0-0.2c0,0.2,0,0.4,0,0.5c0-0.1,0-0.1,0-0.2c0,0.4,0-0.5,0.1-0.2l0,0.1c0-0.1,0-0.2,0.1-0.2
							c0,0.3,0,0.1,0,0.3c0,0,0-0.5,0.1-0.2c0,0.1,0,0.1,0,0.1c0,0.3,0,0.2,0,0.3l0,0l0,0.1l0-0.1c0-0.7,0.1-0.1,0.1-0.6
							c0,0.4,0,0.2,0,0.6c0,0.1,0,0.2,0,0.3c0-0.2,0,0.2,0.1-0.2c0,0.1,0,0,0,0.3c0-0.1,0-0.2,0-0.3c0-0.3,0.1,0.4,0.2-0.1
							c0.1-0.2,0.1-0.5,0.1-0.7c0,0.2,0,0.4,0,0.4c0,0.1,0,0.1,0.1,0c0,0.1,0,0.2,0,0.3c0,0,0-0.4,0-0.2c0,0.1,0,0.3,0,0.4
							c0-0.1,0-0.3,0.1-0.4c0,0.2,0,0.3,0,0.4c0-0.1,0.1-0.2,0.1-0.4l0-0.1c0,0,0,0.2,0,0.3c0,0.2,0-0.1,0-0.2l0-0.1
							c0-0.6-0.1,0.1-0.1,0.1l0-0.4l0,0.3c0-0.1,0-0.3,0-0.4c0-0.2,0,0.1,0-0.1c0,0,0-0.1,0-0.1l0,0.1c0-0.1,0-0.3,0-0.2
							c0-0.2-0.1,0.3-0.1,0l0,0c-0.1,0.1,0,0.3,0,0.7l0-0.8l0,0.3c0,0,0,0,0-0.2c0,0.2,0,0.1,0,0.3c0-0.3-0.1,0.1-0.1-0.4
							c0,0.2,0,0.2,0,0.3c0-0.5,0,0.1-0.1-0.2c0-0.3,0-0.1,0-0.4c0,0.5-0.1-0.1-0.1,0c0,0.4,0,0.2-0.1,0.3c0-0.1-0.1-0.2-0.1-0.3
							l0-0.1c0,0.4,0,0.3-0.1,0.4c0-0.2,0-0.3,0-0.4l0,0c0,0.1,0,0.2,0,0.2l0-0.3c0,0-0.1,0.3-0.1,0.1c0,0.3,0,0.7,0,0.9
							c0-0.1,0-0.4,0-0.4c0,0,0,0.1,0,0.1l0-0.2c0-0.1,0,0.2,0,0.2c0-0.2,0-0.1,0-0.3c0,0,0,0.1,0,0c0,0,0-0.2,0-0.3
							c0,0.1,0,0.3,0,0.3c0,0,0-0.2,0-0.3c0,0.1,0,0,0,0.3c0,0,0-0.1,0-0.2c0,0.1-0.1,0-0.1,0.4l0,0c0,0,0,0,0,0c0,0,0,0,0,0h0
							c-0.1,0.3-0.1-0.2-0.2,0l0-0.1c0,0.1-0.1,0.1-0.1,0.3c0,0,0-0.2,0-0.3c0,0.1,0,0.2-0.1,0c0-0.2,0-0.2,0-0.1c0-0.1,0-0.2-0.1,0
							c0-0.3,0-0.3,0-0.2l0,0.2c0,0,0,0,0,0l0-0.3c-0.1-0.4-0.1,0.7-0.2,0c0,0.2,0,0.2,0,0.4c0,0-0.1-0.5-0.1-0.5
							c0-0.2,0,0.5-0.1,0.4c0,0.1,0,0.4,0,0.5c0,0,0-0.5,0-0.6c0,0,0,0,0,0.1c0,0,0-0.1,0-0.2l0,0.1c0-0.1-0.1-0.1,0-0.3
							c0,0.1,0,0.2,0,0.3c0-0.2-0.1,0-0.1-0.1c0,0.1,0,0.2,0,0.2c-0.1-0.1,0,0.2-0.1,0.3c0-0.2,0-0.4,0-0.3c0-0.1,0-0.3,0-0.4
							c0,0.2-0.1-0.2-0.1-0.2l0-0.1c0,0.1,0,0.1,0,0.1l0,0.2c0,0,0,0,0-0.1c0,0.2,0,0.4,0,0.6c0-0.1,0,0.1-0.1-0.2
							c0,0.1,0-0.3,0-0.4c0,0,0,0,0,0c0,0,0-0.1,0-0.1c0-0.3,0,0.4-0.1,0.3c0-0.2,0-0.3,0-0.3c0,0,0,0.3,0,0.4c0-0.1,0,0.1,0,0.1
							l0,0.1c0,0.2,0,0.2,0,0.2c0-0.1,0-0.1,0-0.2c0,0.3-0.1-0.3-0.1-0.1c0-0.1,0-0.3,0-0.4c0,0.2,0-0.2-0.1-0.1c0,0.2,0,0.2,0,0.4
							l0.1-0.2l0,0.3c0,0,0-0.1,0.1-0.1c0,0.2,0,0.1,0,0.3c0-0.4-0.1,0.2-0.1,0l0-0.6c0-0.3-0.1,0.3-0.1,0.2l0,0.1
							c0,0.2,0,0-0.1,0.1c0-0.2,0-0.3,0-0.4c0,0.1,0,0,0,0.4l0-0.3c0-0.1-0.1,0.6-0.1,0.5c0-0.2,0-0.4,0-0.5c0,0,0,0,0,0.1
							c0-0.1,0,0.3-0.1,0.1c0,0.1,0,0.3,0,0.3c0,0,0-0.1,0-0.1c0,0.1,0,0.1,0,0.4c0-0.6-0.1,0-0.2-0.5c0,0.1-0.1,0.1-0.1,0.1
							c0-0.1,0-0.1,0-0.1c0-0.2,0,0.6-0.1,0.4c0-0.3,0-0.2,0-0.3c0-0.6-0.1,0.1-0.1-0.3l0,0c0-0.2-0.1,0.2-0.1,0.2c0,0,0-0.1,0-0.1
							c0,0.3-0.1,0.4-0.1,0.5c0-0.3,0-0.1,0-0.4c0,0,0,0.4,0,0.5c0-0.1,0-0.3,0-0.5l0,0c0-0.4,0,0-0.1,0l0-0.2
							c-0.1,0.1-0.1,0.4-0.1,0.4l0,0.1c0,0.4,0-0.2-0.1,0.1l0-0.4c0,0.1-0.1,0.4-0.1,0.5c0-0.3,0.1-0.4,0.1-0.6c0,0-0.1,0-0.1,0.2
							c0,0,0-0.1,0-0.1c0,0.3-0.1,0.5-0.1,0.5c0-0.8-0.1-0.2-0.1-0.8c-0.1,0.3-0.1-0.1-0.2-0.1c0,0.6,0,0,0,0.6c0,0,0,0,0,0
							l-0.1-0.4c0-0.2,0-0.1,0-0.3c0,0,0-0.3,0-0.4c0,0.2,0,0.3,0,0.2l0,0.3c-0.1,0.3,0-0.5-0.1-0.2l0-0.2c0,0.1-0.1,0-0.1,0.5
							c0-0.1,0-0.2,0-0.3c-0.1-0.1-0.2,0.5-0.2,0.2l0-0.1c0,0,0,0.3,0,0.1c0-0.1,0-0.1,0-0.2c0,0.1,0,0.3-0.1,0.2l0-0.2
							c-0.1-0.2-0.1,0.4-0.2,0.5c0-0.4-0.1-0.6-0.1-0.7l0-0.1c-0.1-0.1-0.1,0.4-0.2,0.5c0-0.5-0.2-0.2-0.2-0.5c0,0.1,0,0.3,0,0.4
							c0-0.1,0,0.3,0-0.1l0,0c0-0.4,0-0.3-0.1-0.3l0,0.5c-0.1-0.8-0.2,0.3-0.2-0.4c0,0.1,0,0.1-0.1,0.3l0-0.3c0-0.1-0.1-0.1-0.1,0
							l0-0.2c0,0,0,0.8-0.1,0.8l0-0.4c-0.1,0-0.1-0.4-0.2,0c0-0.1,0-0.2,0-0.2c0,0-0.1-0.3-0.1,0.3c0-0.4-0.1,0-0.1,0.1l0-0.3
							c0,0.4,0,0.5-0.1,0.6c0,0,0-0.2,0-0.2c0-0.1,0,0.3-0.1,0.1l0-0.2c0,0,0,0.1,0,0.3c0,0.1-0.1-0.1-0.1-0.3c0,0.2,0,0.4,0,0.3
							c0-0.1,0-0.2,0-0.2c-0.1-0.2-0.1,0.3-0.1,0.1c0-0.1,0-0.1,0-0.2c0,0,0.1,0,0.1,0c0-0.3,0-0.3,0-0.7c0,0.2-0.1,0.6-0.1,0.5
							c0,0,0,0,0-0.1l0,0c0,0,0,0,0,0c0,0,0-0.1,0-0.1c0-0.2,0-0.1-0.1-0.1c0,0.3,0,0.2,0,0.5c0,0,0,0,0,0c0,0,0,0,0,0c0,0,0,0,0,0
							c0,0,0,0,0,0c0,0.1,0,0.3,0,0.1c0,0.2,0,0.4,0,0.5c0-0.4-0.1-0.6-0.1-0.8c0,0.2-0.1,0.1-0.1,0.6c0,0.1,0-0.2,0-0.2
							c0-0.1,0,0,0-0.1c0,0.1-0.1,0.1-0.1,0.4c0-0.2,0-0.3,0-0.3l0-0.1c-0.1-0.6-0.2,0.9-0.3,0.2c0,0,0,0.1,0,0.1
							c-0.1-0.3-0.2,0.3-0.4-0.2c0-0.1,0,0.1-0.1,0.3l0-0.3l0,0.3c-0.1,0.3-0.1-0.7-0.2-0.3l0,0.2c0,0-0.1,0.1-0.1-0.1
							c0,0,0,0.2,0,0.1l0-0.2l-0.1,0.3c0-0.1,0-0.6-0.1-0.7c0,0.1-0.1,0.5-0.1,0.6c0,0,0,0.1,0,0.3l0,0.1c0,0.5,0,0.9,0,1.3l0-0.3
							l0,0.2l0,0c0,0.2,0,0,0-0.1c0,0.1,0,0.2,0,0.2l0-0.4c0,0.2,0,0.4,0,0.5c0-0.2,0-0.4,0-0.5c0,0.2,0,0.4,0,0.2
							c0,0.1,0,0.2,0,0.2c0-0.1,0-0.1,0.1-0.3c0,0.3,0.1-0.1,0.1,0.4c0-0.1,0-0.3,0-0.4c0,0.5,0.1,0,0.1,0.6c0-0.5,0.1-0.2,0.1-0.5
							c0,0,0,0.1,0,0.1c0,0,0,0.2,0,0.3c0-0.4,0-0.5,0.1-0.7c0,0.4,0,0.5,0,0.8c0-0.3,0-0.3,0-0.6c0,0.2,0,0.1,0,0.4
							c0-0.5,0-0.1,0-0.4c0,0.2,0,0.5,0,0.3C186,160.5,186,160.6,186,160.6z M186.8,159.8C186.8,159.8,186.8,159.8,186.8,159.8
							C186.8,159.8,186.8,159.8,186.8,159.8C186.8,159.8,186.8,159.8,186.8,159.8z M186.8,159.8
							C186.8,159.8,186.8,159.8,186.8,159.8c0-0.1,0-0.2,0-0.2C186.8,159.7,186.8,159.7,186.8,159.8z M186.7,157.8
							C186.7,157.8,186.7,157.9,186.7,157.8c0,0.1,0,0.1,0,0.1c0,0,0,0,0,0C186.7,157.9,186.7,157.9,186.7,157.8z"/>
						<path class="st0" d="M186.7,158.2C186.7,158.2,186.7,158.2,186.7,158.2C186.7,158.3,186.7,158.3,186.7,158.2
							C186.7,158.3,186.7,158.2,186.7,158.2C186.7,158.2,186.7,158.2,186.7,158.2z"/>
						<path class="st0" d="M192.9,158.6L192.9,158.6C192.9,158.6,192.9,158.6,192.9,158.6C192.9,158.6,192.9,158.6,192.9,158.6z"/>
						<polygon class="st0" points="187.8,160.3 187.8,160.3 187.8,160.3 						"/>
						<path class="st0" d="M193.2,159.6C193.2,159.6,193.2,159.6,193.2,159.6C193.2,159.6,193.2,159.6,193.2,159.6z"/>
						<path class="st0" d="M193.4,159.7l0,0.1C193.4,159.7,193.4,159.7,193.4,159.7z"/>
						<path class="st0" d="M193.5,159.8c0,0,0-0.1,0-0.1c0,0,0,0,0,0L193.5,159.8z"/>
						<path class="st0" d="M191.5,160.1C191.5,160.1,191.5,160.1,191.5,160.1C191.5,160.2,191.5,160.2,191.5,160.1z"/>
						<path class="st0" d="M192.1,159.5c0,0.1,0,0.1,0,0.1C192.1,159.6,192.1,159.6,192.1,159.5z"/>
						<polygon class="st0" points="190.9,160.5 190.9,160.5 190.9,160.5 						"/>
						<path class="st0" d="M192.1,159.6C192.1,159.7,192.1,159.6,192.1,159.6C192.1,159.6,192.1,159.6,192.1,159.6z"/>
						<path class="st0" d="M194.1,159.9L194.1,159.9C194.1,159.9,194.1,159.9,194.1,159.9L194.1,159.9z"/>
						<path class="st0" d="M194.1,159.9L194.1,159.9C194.1,159.9,194.1,159.9,194.1,159.9z"/>
						<path class="st0" d="M194.1,159.8L194.1,159.8C194.1,159.9,194.1,159.9,194.1,159.8z"/>
						<path class="st0" d="M193.9,159.8l0,0.1C193.9,159.9,193.9,159.8,193.9,159.8z"/>
						<path class="st0" d="M193.8,159.8c0,0,0,0.2,0,0.2L193.8,159.8C193.9,160,193.9,159.6,193.8,159.8z"/>
						<path class="st0" d="M193.6,158.6L193.6,158.6c0,0,0-0.2,0-0.2C193.6,158,193.7,158.6,193.6,158.6z"/>
						<path class="st0" d="M193.5,158.4c0-0.1,0-0.2,0-0.2C193.5,158.3,193.5,158.3,193.5,158.4z"/>
						<path class="st0" d="M192.6,158.4l0-0.3C192.5,158.2,192.6,158.2,192.6,158.4z"/>
						<polygon class="st0" points="192.4,159.7 192.4,159.9 192.4,159.6 						"/>
						<polygon class="st0" points="192.3,157.9 192.3,157.9 192.3,158 						"/>
						<path class="st0" d="M190.7,158l0,0.3C190.7,158.3,190.7,157.9,190.7,158z"/>
						<path class="st0" d="M190,158.3c0-0.2,0-0.3,0-0.1C190,158.2,190,158.4,190,158.3z"/>
						<polygon class="st0" points="188,157.8 188,157.7 188,157.8 						"/>
					</g>
				</g>
			</g>
		</g>
	</g>
	<g>
		<g>
			<g>
				<g>
					<g>
						<path class="st0" d="M459.2,154.4c0,0.1,0,0.3,0,0.2L459.2,154.4L459.2,154.4z"/>
						<path class="st0" d="M459.3,155c0-0.2,0-0.4,0-0.7c0,0.3,0,0.2,0,0.6c0,0,0-0.1,0-0.2c0,0.1,0-0.1,0,0.1c0,0.3,0,0.3,0,0.1
							C459.3,154.8,459.3,154.9,459.3,155z"/>
						<path class="st0" d="M460.1,155.5L460.1,155.5C460.1,155.5,460.1,155.5,460.1,155.5z"/>
						<path class="st0" d="M460.6,155.7C460.6,155.7,460.6,155.7,460.6,155.7C460.6,155.7,460.6,155.7,460.6,155.7z"/>
						<path class="st0" d="M460.7,156.1C460.7,156,460.7,156,460.7,156.1C460.7,156.1,460.7,156.1,460.7,156.1z"/>
						<path class="st0" d="M460.1,155.5l0,0.1C460.1,155.5,460.1,155.5,460.1,155.5z"/>
						<path class="st0" d="M459.4,154.2C459.4,154.2,459.4,154.2,459.4,154.2C459.4,154.3,459.4,154.3,459.4,154.2
							C459.4,154.2,459.4,154.2,459.4,154.2z"/>
						<path class="st0" d="M459.9,155.8L459.9,155.8c0,0,0,0.1,0,0.1L459.9,155.8z"/>
						<path class="st0" d="M459.7,155.8c0,0,0-0.3,0-0.4c0,0.1,0,0.2,0,0.2C459.7,155.7,459.7,155.7,459.7,155.8z"/>
						<path class="st0" d="M459.4,155.3L459.4,155.3C459.4,155.4,459.4,155.3,459.4,155.3z"/>
						<path class="st0" d="M460,155.8c0,0,0,0.1,0,0.1C460,155.9,460,155.9,460,155.8z"/>
						<path class="st0" d="M465,153.7C465,153.7,465,153.8,465,153.7C465,153.7,465,153.7,465,153.7z"/>
						<path class="st0" d="M465.2,155.1L465.2,155.1c0,0.1,0,0.1,0,0.2L465.2,155.1z"/>
						<path class="st0" d="M460.9,156.4C460.9,156.4,460.9,156.4,460.9,156.4C460.9,156.4,460.9,156.4,460.9,156.4z"/>
						<path class="st0" d="M462.4,156.2c0-0.3,0-0.3,0-0.6C462.4,155.7,462.4,156,462.4,156.2z"/>
						<path class="st0" d="M459.4,154.2C459.4,154.2,459.4,154.2,459.4,154.2C459.4,154.2,459.4,154.2,459.4,154.2z"/>
						<path class="st0" d="M462.4,155.6C462.4,155.6,462.4,155.6,462.4,155.6L462.4,155.6C462.4,155.6,462.4,155.6,462.4,155.6z"/>
						<path class="st0" d="M461.3,156.2c0,0,0-0.1,0-0.1C461.3,156.2,461.3,156.2,461.3,156.2z"/>
						<path class="st0" d="M461,155.8L461,155.8C461,155.9,461,155.8,461,155.8z"/>
						<path class="st0" d="M461.4,155.8C461.4,155.9,461.4,155.9,461.4,155.8C461.4,155.9,461.4,155.8,461.4,155.8
							C461.4,155.9,461.4,155.9,461.4,155.8z"/>
						<path class="st0" d="M461.6,155.8C461.6,155.8,461.6,155.8,461.6,155.8C461.6,155.8,461.6,155.8,461.6,155.8L461.6,155.8z"/>
						<path class="st0" d="M464.5,153.9c0,0.1,0,0.2,0,0.3C464.5,153.9,464.6,153.8,464.5,153.9z"/>
						<path class="st0" d="M459.4,154.4c0-0.1,0-0.1,0-0.1c0,0,0,0,0,0C459.4,154.3,459.4,154.3,459.4,154.4z"/>
						<path class="st0" d="M461.4,153.6L461.4,153.6C461.5,153.6,461.4,153.6,461.4,153.6z"/>
						<path class="st0" d="M463.4,153.9L463.4,153.9C463.4,153.9,463.4,153.9,463.4,153.9z"/>
						<path class="st0" d="M461.5,153.6c0,0.1,0,0.2,0,0.2c0,0,0,0,0-0.1L461.5,153.6z"/>
						<path class="st0" d="M464.5,154.1C464.5,154.1,464.5,154.1,464.5,154.1C464.5,154.1,464.5,154.1,464.5,154.1z"/>
						<path class="st0" d="M464.7,153.4c0,0,0,0.4,0,0.6c0,0.1,0-0.3,0-0.5c0,0.1,0,0.4,0,0.4c0-0.1,0-0.1,0-0.2
							c0,0.3-0.1,0-0.1,0.4c0,0,0-0.1,0-0.1c0,0.2,0,0.4,0,0.5c0,0,0,0.2,0,0c0,0,0-0.1,0-0.2l0,0.1c0-0.3,0-0.1,0-0.4
							c0,0.1,0,0.4-0.1,0.3c0-0.3,0-0.1,0-0.4l0,0.1c0-0.5,0,0,0-0.5c0-0.1,0,0.2-0.1,0.1c0,0.2,0,0.3,0,0.5c0,0.3,0-0.9-0.1-0.4
							c0,0.2,0,0.7,0,0.4l0-0.4c0,0,0,0.6-0.1,0.3c0-0.2,0-0.1,0-0.2c0-0.3,0,0.2,0,0.2l0-0.3c0,0.1-0.1,0.3-0.1,0.4
							c0-0.1,0-0.2,0-0.3c0,0.2-0.1,0-0.1-0.2l0,0.3c0,0,0-0.1,0-0.2c0-0.1,0,0.2,0,0.3c0,0,0-0.2,0-0.3c0,0.2-0.1,0.5-0.1,0.2
							l0-0.1c0-0.1,0,0.6-0.1,0.3l0-0.1c-0.1-0.1-0.1,0.1-0.2-0.3c0,0.4-0.1-0.2-0.1,0.4c0-0.3,0-0.4-0.1-0.6c0,0,0,0.4,0,0.4l0-0.3
							l0,0.3l0-0.4l0,0.1c0,0,0,0.1,0,0.2c0,0.1-0.1-0.2-0.1-0.4l-0.1,0.3c0-0.1,0-0.2,0-0.2c0,0.3,0-0.3,0,0c0,0.1,0,0.2,0,0.2
							c0-0.2,0-0.2-0.1-0.1l0-0.2c0-0.1-0.1,0.1-0.1,0.1c0,0.1,0,0.5,0,0.5l0-0.3c0,0.2,0,0.1,0,0.4c0,0,0-0.4,0-0.5l0,0.1
							c0-0.1,0-0.1,0-0.3c0,0.2,0-0.3,0,0l0-0.1c0,0-0.1,0.1-0.1,0.1c0,0.3,0,0.2,0,0.4c0-0.1-0.1-0.3-0.1-0.3c0,0.1,0,0.2,0,0.4
							c0-0.3,0-0.2,0-0.4c0,0,0,0.1-0.1,0.3c0,0.1,0,0.2,0,0.2c0,0,0-0.1,0-0.2l0,0c-0.1,0.4-0.1-0.7-0.2-0.2l0,0l0,0.3
							c0,0,0-0.2,0-0.4c0,0.4-0.1-0.1-0.1,0.2c0-0.8-0.1,0.1-0.1-0.4l0,0.2c0,0.2,0-0.1,0-0.1c0,0.1,0,0.2,0,0.3
							c-0.1,0.2-0.2-0.3-0.3-0.4c0,0,0,0.9-0.1,0.5l0-0.3c-0.1,0.4-0.1,0-0.2,0.3c0-0.1,0-0.2,0-0.2c0-0.2-0.1,0-0.1,0.2
							c0,0,0-0.2,0-0.3c0-0.1,0,0.3,0,0.1c0,0,0-0.1,0-0.1c0,0.1,0,0,0,0.2c0-0.1,0,0.1-0.1,0c0,0.3,0-0.1,0,0.3
							c0-0.5,0-0.4-0.1-0.2c0-0.1,0-0.1,0-0.3c0,0,0,0.1,0,0.3c0-0.5-0.1,0.4-0.1-0.3c-0.1,0.2-0.1,0.4-0.1,0.5c0-0.5,0.1,0,0.1-0.5
							c0,0.2-0.1,0.6-0.1,0.5c0-0.1,0-0.2,0-0.3c0,0.2-0.1,0-0.1,0.2c0,0,0-0.1,0-0.1c0,0,0-0.1,0,0.1l0-0.1c0,0.3,0,0.6,0,0.8
							c0-0.6,0-0.1,0-0.9c0,0,0,0.1,0,0.3c0,0,0-0.1,0-0.3c0,0.1,0,0.3,0,0.3c0-0.1,0-0.1,0-0.3c0,0.2,0,0.4,0,0.3
							c0-0.1,0-0.1,0-0.1c0,0-0.1,0.5-0.1,0.3c0-0.4,0-0.1,0-0.5l0,0.1l0,0.2c0,0,0,0.3-0.1,0.1l0-0.2l0,0.1l0,0.1
							c0,0.2,0,0.5,0,0.4c0,0,0,0,0-0.2c0,0,0,0,0,0c0,0.1,0,0.2,0,0.2c0-0.1,0-0.4,0-0.5c0,0.3,0,0.1-0.1,0.4c0-0.1,0-0.3,0-0.3
							l0,0.3c0-0.1,0-0.1,0-0.3c0,0,0,0.5,0,0.3c0,0,0-0.1,0-0.1c0-0.1-0.1,0.2-0.1,0c0-0.4,0-0.1,0-0.4c0,0.1-0.1,0.5-0.1,0.4l0,0
							c0,0.5,0-0.3-0.1,0c0,0,0-0.3,0-0.2c0-0.1-0.1,0.1-0.1,0.3l0-0.1c0-0.1,0-0.1-0.1-0.1c0,0.1,0,0.1,0,0.3
							c-0.1-0.8-0.1,0.4-0.2-0.2c0,0,0-0.1,0-0.1l0,0.1c0,0.2,0,0.1,0,0.3c0,0.1,0,0.2,0,0.2c0-0.2,0-0.4,0-0.5c0,0.1,0,0.1,0,0.2
							c0-0.4,0,0.5,0,0.2l0-0.1c0,0.1,0,0.2,0,0.2c0-0.3,0-0.1,0-0.3c0,0,0,0.5,0,0.2c0-0.1,0-0.1,0-0.1c0-0.3,0-0.2,0-0.3l0,0
							l0-0.1l0,0.1c0,0.7,0,0.1-0.1,0.6c0-0.4,0-0.2,0-0.6c0-0.1,0-0.2,0-0.3c0,0.2,0-0.2,0,0.2c0-0.1,0,0,0-0.3c0,0.1,0,0.2,0,0.3
							c0,0.3-0.1-0.4-0.1,0.1c0,0.2,0,0.5-0.1,0.7c0-0.2,0-0.4,0-0.4c0-0.1,0-0.1,0,0c0-0.1,0-0.2,0-0.3c0,0,0,0.4,0,0.2
							c0-0.1,0-0.3,0-0.4c0,0.1,0,0.3,0,0.4c0-0.2,0-0.3,0-0.4c0,0.1,0,0.2-0.1,0.4l0,0.1c0,0,0-0.2,0-0.3c0-0.2,0,0.1,0,0.2l0,0.1
							c0,0.6,0-0.1,0.1-0.1l0,0.4l0-0.3c0,0.1,0,0.3,0,0.4c0,0.2,0-0.1,0,0.1c0,0,0,0.1,0,0.1l0-0.1c0,0.1,0,0.3,0,0.2
							c0,0.2,0-0.3,0.1,0l0,0c0-0.1,0-0.3,0-0.7l0,0.8l0-0.3c0,0,0,0,0,0.2c0-0.2,0-0.1,0-0.3c0,0.3,0.1-0.1,0.1,0.4
							c0-0.2,0-0.2,0-0.3c0,0.5,0-0.1,0,0.2c0,0.3,0,0.1,0,0.4c0-0.5,0,0.1,0,0c0-0.4,0-0.2,0.1-0.3c0,0.1,0,0.2,0.1,0.3l0,0.1
							c0-0.4,0-0.3,0-0.4c0,0.2,0,0.3,0,0.4l0,0c0-0.1,0-0.2,0-0.2l0,0.3c0,0,0-0.3,0.1-0.1c0-0.3,0-0.7,0-0.9c0,0.1,0,0.4,0,0.4
							c0,0,0-0.1,0-0.1l0,0.2c0,0.1,0-0.2,0-0.2c0,0.2,0,0.1,0,0.3c0,0,0-0.1,0,0c0,0,0,0.2,0,0.3c0-0.1,0-0.3,0-0.3
							c0,0,0,0.2,0,0.3c0-0.1,0,0,0-0.3c0,0,0,0.1,0,0.2c0-0.1,0.1,0,0-0.4l0,0c0,0,0,0,0,0c0,0,0,0,0,0h0c0-0.3,0.1,0.2,0.1,0
							l0,0.1c0-0.1,0-0.1,0.1-0.3c0,0,0,0.2,0,0.3c0-0.1,0-0.2,0,0c0,0.2,0,0.2,0,0.1c0,0.1,0,0.2,0.1,0c0,0.3,0,0.3,0,0.2l0-0.2
							c0,0,0,0,0,0l0,0.3c0,0.4,0.1-0.7,0.1,0c0-0.2,0-0.2,0-0.4c0,0,0,0.5,0,0.5c0,0.2,0-0.5,0.1-0.4c0-0.1,0-0.4,0-0.5
							c0,0,0,0.5,0,0.6c0,0,0,0,0-0.1c0,0,0,0.1,0,0.2l0-0.1c0,0.1,0,0.1,0,0.3c0-0.1,0-0.2,0-0.3c0,0.2,0,0,0.1,0.1
							c0-0.1,0-0.2,0-0.2c0,0.1,0-0.2,0-0.3c0,0.2,0,0.4,0,0.3c0,0.1,0,0.3,0,0.4c0-0.2,0,0.2,0.1,0.2l0,0.1c0-0.1,0-0.1,0-0.1
							l0-0.2c0,0,0,0,0,0.1c0-0.2,0-0.4,0-0.6c0,0.1,0-0.1,0,0.2c0-0.1,0,0.3,0,0.4c0,0,0,0,0,0c0,0,0,0.1,0,0.1c0,0.3,0-0.4,0-0.3
							c0,0.2,0,0.3,0,0.3c0,0,0-0.3,0-0.4c0,0.1,0-0.1,0-0.1l0-0.1c0-0.2,0-0.2,0-0.2c0,0.1,0,0.1,0,0.2c0-0.3,0,0.3,0.1,0.1
							c0,0.1,0,0.3,0,0.4c0-0.2,0,0.2,0.1,0.1c0-0.2,0-0.2,0-0.4l0,0.2l0-0.3c0,0,0,0.1,0,0.1c0-0.2,0-0.1,0-0.3c0,0.4,0-0.2,0.1,0
							l0,0.6c0,0.3,0.1-0.3,0.1-0.2l0-0.1c0-0.2,0,0,0-0.1c0,0.2,0,0.3,0,0.4c0-0.1,0,0,0-0.4l0,0.3c0,0.1,0-0.6,0.1-0.5
							c0,0.2,0,0.4,0,0.5c0,0,0,0,0-0.1c0,0.1,0-0.3,0-0.1c0-0.1,0-0.3,0-0.3c0,0,0,0.1,0,0.1c0-0.1,0-0.1,0-0.4
							c0,0.6,0.1,0,0.1,0.5c0-0.1,0-0.1,0.1-0.1c0,0.1,0,0.1,0,0.1c0,0.2,0-0.6,0-0.4c0,0.3,0,0.2,0,0.3c0,0.6,0-0.1,0.1,0.3l0,0
							c0,0.2,0-0.2,0.1-0.2c0,0,0,0.1,0,0.1c0-0.3,0.1-0.4,0.1-0.5c0,0.3,0,0.1,0,0.4c0,0,0-0.4,0-0.5c0,0.1,0,0.3,0,0.5l0,0
							c0,0.4,0,0,0,0l0,0.2c0-0.1,0-0.4,0.1-0.4l0-0.1c0-0.4,0,0.2,0-0.1l0,0.4c0-0.1,0-0.4,0.1-0.5c0,0.3,0,0.4-0.1,0.6
							c0,0,0,0,0.1-0.2c0,0,0,0.1,0,0.1c0-0.3,0-0.5,0.1-0.5c0,0.8,0.1,0.2,0.1,0.8c0-0.3,0.1,0.1,0.1,0.1c0-0.6,0,0,0-0.6
							c0,0,0,0,0,0l0,0.4c0,0.2,0,0.1,0,0.3c0,0,0,0.3,0,0.4c0-0.2,0-0.3,0-0.2l0-0.3c0-0.3,0,0.5,0.1,0.2l0,0.2
							c0-0.1,0.1,0,0.1-0.5c0,0.1,0,0.2,0,0.3c0,0.1,0.1-0.5,0.1-0.2l0,0.1c0,0,0-0.3,0-0.1c0,0.1,0,0.1,0,0.2c0-0.1,0-0.3,0-0.2
							l0,0.2c0,0.2,0.1-0.4,0.1-0.5c0,0.4,0,0.6,0.1,0.7l0,0.1c0.1,0.1,0.1-0.4,0.1-0.5c0,0.5,0.1,0.2,0.2,0.5c0-0.1,0-0.3,0-0.4
							c0,0.1,0-0.3,0,0.1l0,0c0,0.4,0,0.3,0.1,0.3l0-0.5c0,0.8,0.1-0.3,0.2,0.4c0-0.1,0-0.1,0-0.3l0,0.3c0,0.1,0,0.1,0.1,0l0,0.2
							c0,0,0-0.8,0-0.8l0,0.4c0,0,0.1,0.4,0.1,0c0,0.1,0,0.2,0,0.2c0,0,0.1,0.3,0.1-0.3c0,0.4,0,0,0.1-0.1l0,0.3c0-0.4,0-0.5,0-0.6
							c0,0,0,0.2,0,0.2c0,0.1,0-0.3,0-0.1l0,0.2c0,0,0-0.1,0-0.3c0-0.1,0,0.1,0,0.3c0-0.2,0-0.4,0-0.3c0,0.1,0,0.2,0,0.2
							c0,0.2,0.1-0.3,0.1-0.1c0,0.1,0,0.1,0,0.2c0,0,0,0,0,0c0,0.3,0,0.3,0,0.7c0-0.2,0-0.6,0.1-0.5c0,0,0,0,0,0.1l0,0c0,0,0,0,0,0
							c0,0,0,0.1,0,0.1c0,0.2,0,0.1,0,0.1c0-0.3,0-0.2,0-0.5c0,0,0,0,0,0c0,0,0,0,0,0c0,0,0,0,0,0c0,0,0,0,0,0c0-0.1,0-0.3,0-0.1
							c0-0.2,0-0.4,0-0.5c0,0.4,0,0.6,0,0.8c0-0.2,0.1-0.1,0.1-0.6c0-0.1,0,0.2,0,0.2c0,0.1,0,0,0,0.1c0-0.1,0.1-0.1,0.1-0.4
							c0,0.2,0,0.3,0,0.3l0,0.1c0.1,0.6,0.1-0.9,0.2-0.2c0,0,0-0.1,0-0.1c0.1,0.3,0.2-0.3,0.2,0.2c0,0.1,0-0.1,0-0.3l0,0.3l0-0.3
							c0-0.3,0.1,0.7,0.1,0.3l0-0.2c0,0,0-0.1,0,0.1c0,0,0-0.2,0-0.1l0,0.2l0-0.3c0,0.1,0,0.6,0,0.7c0-0.1,0-0.5,0-0.6
							c0,0,0-0.1,0-0.3l0-0.1c0-0.5,0-0.9,0-1.3l0,0.3l0-0.2l0,0c0-0.2,0,0,0,0.1c0-0.1,0-0.2,0-0.2l0,0.4c0-0.2,0-0.4,0-0.5
							c0,0.2,0,0.4,0,0.5c0-0.2,0-0.4,0-0.2c0-0.1,0-0.2,0-0.2c0,0.1,0,0.1,0,0.3c0-0.3,0,0.1,0-0.4c0,0.1,0,0.3,0,0.4
							c0-0.5,0,0,0-0.6c0,0.5-0.1,0.2-0.1,0.5c0,0,0-0.1,0-0.1c0,0,0-0.2,0-0.3c0,0.4,0,0.5,0,0.7c0-0.4,0-0.5,0-0.8
							c0,0.3,0,0.3,0,0.6c0-0.2,0-0.1,0-0.4c0,0.5,0,0.1,0,0.4c0-0.2,0-0.5,0-0.3C464.7,153.6,464.7,153.4,464.7,153.4z
							 M464.2,154.3C464.2,154.3,464.2,154.3,464.2,154.3C464.2,154.3,464.2,154.3,464.2,154.3C464.2,154.3,464.2,154.3,464.2,154.3
							z M464.1,154.3C464.1,154.3,464.1,154.3,464.1,154.3c0,0.1,0,0.2,0,0.2C464.1,154.4,464.1,154.4,464.1,154.3z M464.2,156.2
							C464.2,156.3,464.2,156.2,464.2,156.2c0-0.1,0-0.1,0-0.1c0,0,0,0,0,0C464.2,156.2,464.2,156.2,464.2,156.2z"/>
						<path class="st0" d="M464.2,155.9C464.2,155.9,464.2,155.9,464.2,155.9C464.2,155.8,464.2,155.8,464.2,155.9
							C464.2,155.8,464.2,155.9,464.2,155.9C464.2,155.9,464.2,155.9,464.2,155.9z"/>
						<path class="st0" d="M460.1,155.5L460.1,155.5C460.1,155.5,460.1,155.4,460.1,155.5C460.1,155.4,460.1,155.5,460.1,155.5z"/>
						<polygon class="st0" points="463.5,153.8 463.5,153.8 463.5,153.8 						"/>
						<path class="st0" d="M459.9,154.5C459.9,154.5,459.9,154.4,459.9,154.5C459.9,154.4,459.9,154.5,459.9,154.5z"/>
						<path class="st0" d="M459.8,154.4l0-0.1C459.7,154.4,459.7,154.4,459.8,154.4z"/>
						<path class="st0" d="M459.7,154.3c0,0,0,0.1,0,0.1c0,0,0,0,0,0L459.7,154.3z"/>
						<path class="st0" d="M461,154C461,154,461,154,461,154C461,153.9,461,153.9,461,154z"/>
						<path class="st0" d="M460.6,154.6c0-0.1,0-0.1,0-0.1C460.6,154.5,460.6,154.5,460.6,154.6z"/>
						<polygon class="st0" points="461.4,153.6 461.4,153.6 461.4,153.6 						"/>
						<path class="st0" d="M460.6,154.5C460.6,154.4,460.6,154.4,460.6,154.5C460.6,154.5,460.6,154.5,460.6,154.5z"/>
						<path class="st0" d="M459.3,154.2L459.3,154.2C459.3,154.2,459.3,154.2,459.3,154.2L459.3,154.2z"/>
						<path class="st0" d="M459.3,154.2L459.3,154.2C459.3,154.2,459.3,154.2,459.3,154.2z"/>
						<path class="st0" d="M459.3,154.3L459.3,154.3C459.3,154.2,459.3,154.2,459.3,154.3z"/>
						<path class="st0" d="M459.4,154.3l0-0.1C459.4,154.2,459.4,154.2,459.4,154.3z"/>
						<path class="st0" d="M459.5,154.3c0,0,0-0.2,0-0.2L459.5,154.3C459.4,154,459.4,154.4,459.5,154.3z"/>
						<path class="st0" d="M459.6,155.5L459.6,155.5c0,0,0,0.2,0,0.2C459.6,156.1,459.6,155.5,459.6,155.5z"/>
						<path class="st0" d="M459.7,155.7c0,0.1,0,0.2,0,0.2C459.7,155.8,459.7,155.8,459.7,155.7z"/>
						<path class="st0" d="M460.3,155.7l0,0.3C460.3,155.9,460.3,155.8,460.3,155.7z"/>
						<polygon class="st0" points="460.4,154.4 460.4,154.2 460.4,154.4 						"/>
						<polygon class="st0" points="460.5,156.2 460.5,156.2 460.5,156.1 						"/>
						<path class="st0" d="M461.6,156.1l0-0.3C461.5,155.8,461.5,156.2,461.6,156.1z"/>
						<path class="st0" d="M462,155.8c0,0.2,0,0.3,0,0.1C462,155.9,462,155.7,462,155.8z"/>
						<polygon class="st0" points="463.4,156.3 463.4,156.4 463.4,156.3 						"/>
					</g>
				</g>
			</g>
		</g>
	</g>
	<g>
		<g>
			<g>
				<g>
					<g>
						<path class="st0" d="M459.2,80.4c0,0.1,0,0.3,0,0.2L459.2,80.4L459.2,80.4z"/>
						<path class="st0" d="M459.3,81c0-0.2,0-0.4,0-0.7c0,0.3,0,0.2,0,0.6c0,0,0-0.1,0-0.2c0,0.1,0-0.1,0,0.1c0,0.3,0,0.3,0,0.1
							C459.3,80.8,459.3,80.9,459.3,81z"/>
						<path class="st0" d="M460.1,81.5L460.1,81.5C460.1,81.5,460.1,81.5,460.1,81.5z"/>
						<path class="st0" d="M460.6,81.7C460.6,81.7,460.6,81.7,460.6,81.7C460.6,81.7,460.6,81.7,460.6,81.7z"/>
						<path class="st0" d="M460.7,82.1C460.7,82,460.7,82,460.7,82.1C460.7,82.1,460.7,82.1,460.7,82.1z"/>
						<path class="st0" d="M460.1,81.5l0,0.1C460.1,81.5,460.1,81.5,460.1,81.5z"/>
						<path class="st0" d="M459.4,80.2C459.4,80.2,459.4,80.2,459.4,80.2C459.4,80.3,459.4,80.3,459.4,80.2
							C459.4,80.2,459.4,80.2,459.4,80.2z"/>
						<path class="st0" d="M459.9,81.8L459.9,81.8c0,0,0,0.1,0,0.1L459.9,81.8z"/>
						<path class="st0" d="M459.7,81.8c0,0,0-0.3,0-0.4c0,0.1,0,0.2,0,0.2C459.7,81.7,459.7,81.7,459.7,81.8z"/>
						<path class="st0" d="M459.4,81.3L459.4,81.3C459.4,81.4,459.4,81.3,459.4,81.3z"/>
						<path class="st0" d="M460,81.8c0,0,0,0.1,0,0.1C460,81.9,460,81.9,460,81.8z"/>
						<path class="st0" d="M465,79.7C465,79.7,465,79.8,465,79.7C465,79.7,465,79.7,465,79.7z"/>
						<path class="st0" d="M465.2,81.1L465.2,81.1c0,0.1,0,0.1,0,0.2L465.2,81.1z"/>
						<path class="st0" d="M460.9,82.4C460.9,82.4,460.9,82.4,460.9,82.4C460.9,82.4,460.9,82.4,460.9,82.4z"/>
						<path class="st0" d="M462.4,82.2c0-0.3,0-0.3,0-0.6C462.4,81.7,462.4,82,462.4,82.2z"/>
						<path class="st0" d="M459.4,80.2C459.4,80.2,459.4,80.2,459.4,80.2C459.4,80.2,459.4,80.2,459.4,80.2z"/>
						<path class="st0" d="M462.4,81.6C462.4,81.6,462.4,81.6,462.4,81.6L462.4,81.6C462.4,81.6,462.4,81.6,462.4,81.6z"/>
						<path class="st0" d="M461.3,82.2c0,0,0-0.1,0-0.1C461.3,82.2,461.3,82.2,461.3,82.2z"/>
						<path class="st0" d="M461,81.8L461,81.8C461,81.9,461,81.8,461,81.8z"/>
						<path class="st0" d="M461.4,81.8C461.4,81.9,461.4,81.9,461.4,81.8C461.4,81.9,461.4,81.8,461.4,81.8
							C461.4,81.9,461.4,81.9,461.4,81.8z"/>
						<path class="st0" d="M461.6,81.8C461.6,81.8,461.6,81.8,461.6,81.8C461.6,81.8,461.6,81.8,461.6,81.8L461.6,81.8z"/>
						<path class="st0" d="M464.5,79.9c0,0.1,0,0.2,0,0.3C464.5,79.9,464.6,79.8,464.5,79.9z"/>
						<path class="st0" d="M459.4,80.4c0-0.1,0-0.1,0-0.1c0,0,0,0,0,0C459.4,80.3,459.4,80.3,459.4,80.4z"/>
						<path class="st0" d="M461.4,79.6L461.4,79.6C461.5,79.6,461.4,79.6,461.4,79.6z"/>
						<path class="st0" d="M463.4,79.9L463.4,79.9C463.4,79.9,463.4,79.9,463.4,79.9z"/>
						<path class="st0" d="M461.5,79.6c0,0.1,0,0.2,0,0.2c0,0,0,0,0-0.1L461.5,79.6z"/>
						<path class="st0" d="M464.5,80.1C464.5,80.1,464.5,80.1,464.5,80.1C464.5,80.1,464.5,80.1,464.5,80.1z"/>
						<path class="st0" d="M464.7,79.4c0,0,0,0.4,0,0.6c0,0.1,0-0.3,0-0.5c0,0.1,0,0.4,0,0.4c0-0.1,0-0.1,0-0.2c0,0.3-0.1,0-0.1,0.4
							c0,0,0-0.1,0-0.1c0,0.2,0,0.4,0,0.5c0,0,0,0.2,0,0c0,0,0-0.1,0-0.2l0,0.1c0-0.3,0-0.1,0-0.4c0,0.1,0,0.4-0.1,0.3
							c0-0.3,0-0.1,0-0.4l0,0.1c0-0.5,0,0,0-0.5c0-0.1,0,0.2-0.1,0.1c0,0.2,0,0.3,0,0.5c0,0.3,0-0.9-0.1-0.4c0,0.2,0,0.7,0,0.4
							l0-0.4c0,0,0,0.6-0.1,0.3c0-0.2,0-0.1,0-0.2c0-0.3,0,0.2,0,0.2l0-0.3c0,0.1-0.1,0.3-0.1,0.4c0-0.1,0-0.2,0-0.3
							c0,0.2-0.1,0-0.1-0.2l0,0.3c0,0,0-0.1,0-0.2c0-0.1,0,0.2,0,0.3c0,0,0-0.2,0-0.3c0,0.2-0.1,0.5-0.1,0.2l0-0.1
							c0-0.1,0,0.6-0.1,0.3l0-0.1c-0.1-0.1-0.1,0.1-0.2-0.3c0,0.4-0.1-0.2-0.1,0.4c0-0.3,0-0.4-0.1-0.6c0,0,0,0.4,0,0.4l0-0.3l0,0.3
							l0-0.4l0,0.1c0,0,0,0.1,0,0.2c0,0.1-0.1-0.2-0.1-0.4l-0.1,0.3c0-0.1,0-0.2,0-0.2c0,0.3,0-0.3,0,0c0,0.1,0,0.2,0,0.2
							c0-0.2,0-0.2-0.1-0.1l0-0.2c0-0.1-0.1,0.1-0.1,0.1c0,0.1,0,0.5,0,0.5l0-0.3c0,0.2,0,0.1,0,0.4c0,0,0-0.4,0-0.5l0,0.1
							c0-0.1,0-0.1,0-0.3c0,0.2,0-0.3,0,0l0-0.1c0,0-0.1,0.1-0.1,0.1c0,0.3,0,0.2,0,0.4c0-0.1-0.1-0.3-0.1-0.3c0,0.1,0,0.2,0,0.4
							c0-0.3,0-0.2,0-0.4c0,0,0,0.1-0.1,0.3c0,0.1,0,0.2,0,0.2c0,0,0-0.1,0-0.2l0,0c-0.1,0.4-0.1-0.7-0.2-0.2l0,0l0,0.3
							c0,0,0-0.2,0-0.4c0,0.4-0.1-0.1-0.1,0.2c0-0.8-0.1,0.1-0.1-0.4l0,0.2c0,0.2,0-0.1,0-0.1c0,0.1,0,0.2,0,0.3
							c-0.1,0.2-0.2-0.3-0.3-0.4c0,0,0,0.9-0.1,0.5l0-0.3c-0.1,0.4-0.1,0-0.2,0.3c0-0.1,0-0.2,0-0.2c0-0.2-0.1,0-0.1,0.2
							c0,0,0-0.2,0-0.3c0-0.1,0,0.3,0,0.1c0,0,0-0.1,0-0.1c0,0.1,0,0,0,0.2c0-0.1,0,0.1-0.1,0c0,0.3,0-0.1,0,0.3
							c0-0.5,0-0.4-0.1-0.2c0-0.1,0-0.1,0-0.3c0,0,0,0.1,0,0.3c0-0.5-0.1,0.4-0.1-0.3c-0.1,0.2-0.1,0.4-0.1,0.5c0-0.5,0.1,0,0.1-0.5
							c0,0.2-0.1,0.6-0.1,0.5c0-0.1,0-0.2,0-0.3c0,0.2-0.1,0-0.1,0.2c0,0,0-0.1,0-0.1c0,0,0-0.1,0,0.1l0-0.1c0,0.3,0,0.6,0,0.8
							c0-0.6,0-0.1,0-0.9c0,0,0,0.1,0,0.3c0,0,0-0.1,0-0.3c0,0.1,0,0.3,0,0.3c0-0.1,0-0.1,0-0.3c0,0.2,0,0.4,0,0.3
							c0-0.1,0-0.1,0-0.1c0,0-0.1,0.5-0.1,0.3c0-0.4,0-0.1,0-0.5l0,0.1l0,0.2c0,0,0,0.3-0.1,0.1l0-0.2l0,0.1l0,0.1
							c0,0.2,0,0.5,0,0.4c0,0,0,0,0-0.2c0,0,0,0,0,0c0,0.1,0,0.2,0,0.2c0-0.1,0-0.4,0-0.5c0,0.3,0,0.1-0.1,0.4c0-0.1,0-0.3,0-0.3
							l0,0.3c0-0.1,0-0.1,0-0.3c0,0,0,0.5,0,0.3c0,0,0-0.1,0-0.1c0-0.1-0.1,0.2-0.1,0c0-0.4,0-0.1,0-0.4c0,0.1-0.1,0.5-0.1,0.4l0,0
							c0,0.5,0-0.3-0.1,0c0,0,0-0.3,0-0.2c0-0.1-0.1,0.1-0.1,0.3l0-0.1c0-0.1,0-0.1-0.1-0.1c0,0.1,0,0.1,0,0.3
							c-0.1-0.8-0.1,0.4-0.2-0.2c0,0,0-0.1,0-0.1l0,0.1c0,0.2,0,0.1,0,0.3c0,0.1,0,0.2,0,0.2c0-0.2,0-0.4,0-0.5c0,0.1,0,0.1,0,0.2
							c0-0.4,0,0.5,0,0.2l0-0.1c0,0.1,0,0.2,0,0.2c0-0.3,0-0.1,0-0.3c0,0,0,0.5,0,0.2c0-0.1,0-0.1,0-0.1c0-0.3,0-0.2,0-0.3l0,0
							l0-0.1l0,0.1c0,0.7,0,0.1-0.1,0.6c0-0.4,0-0.2,0-0.6c0-0.1,0-0.2,0-0.3c0,0.2,0-0.2,0,0.2c0-0.1,0,0,0-0.3c0,0.1,0,0.2,0,0.3
							c0,0.3-0.1-0.4-0.1,0.1c0,0.2,0,0.5-0.1,0.7c0-0.2,0-0.4,0-0.4c0-0.1,0-0.1,0,0c0-0.1,0-0.2,0-0.3c0,0,0,0.4,0,0.2
							c0-0.1,0-0.3,0-0.4c0,0.1,0,0.3,0,0.4c0-0.2,0-0.3,0-0.4c0,0.1,0,0.2-0.1,0.4l0,0.1c0,0,0-0.2,0-0.3c0-0.2,0,0.1,0,0.2l0,0.1
							c0,0.6,0-0.1,0.1-0.1l0,0.4l0-0.3c0,0.1,0,0.3,0,0.4c0,0.2,0-0.1,0,0.1c0,0,0,0.1,0,0.1l0-0.1c0,0.1,0,0.3,0,0.2
							c0,0.2,0-0.3,0.1,0l0,0c0-0.1,0-0.3,0-0.7l0,0.8l0-0.3c0,0,0,0,0,0.2c0-0.2,0-0.1,0-0.3c0,0.3,0.1-0.1,0.1,0.4
							c0-0.2,0-0.2,0-0.3c0,0.5,0-0.1,0,0.2c0,0.3,0,0.1,0,0.4c0-0.5,0,0.1,0,0c0-0.4,0-0.2,0.1-0.3c0,0.1,0,0.2,0.1,0.3l0,0.1
							c0-0.4,0-0.3,0-0.4c0,0.2,0,0.3,0,0.4l0,0c0-0.1,0-0.2,0-0.2l0,0.3c0,0,0-0.3,0.1-0.1c0-0.3,0-0.7,0-0.9c0,0.1,0,0.4,0,0.4
							c0,0,0-0.1,0-0.1l0,0.2c0,0.1,0-0.2,0-0.2c0,0.2,0,0.1,0,0.3c0,0,0-0.1,0,0c0,0,0,0.2,0,0.3c0-0.1,0-0.3,0-0.3
							c0,0,0,0.2,0,0.3c0-0.1,0,0,0-0.3c0,0,0,0.1,0,0.2c0-0.1,0.1,0,0-0.4l0,0c0,0,0,0,0,0c0,0,0,0,0,0h0c0-0.3,0.1,0.2,0.1,0
							l0,0.1c0-0.1,0-0.1,0.1-0.3c0,0,0,0.2,0,0.3c0-0.1,0-0.2,0,0c0,0.2,0,0.2,0,0.1c0,0.1,0,0.2,0.1,0c0,0.3,0,0.3,0,0.2l0-0.2
							c0,0,0,0,0,0l0,0.3c0,0.4,0.1-0.7,0.1,0c0-0.2,0-0.2,0-0.4c0,0,0,0.5,0,0.5c0,0.2,0-0.5,0.1-0.4c0-0.1,0-0.4,0-0.5
							c0,0,0,0.5,0,0.6c0,0,0,0,0-0.1c0,0,0,0.1,0,0.2l0-0.1c0,0.1,0,0.1,0,0.3c0-0.1,0-0.2,0-0.3c0,0.2,0,0,0.1,0.1
							c0-0.1,0-0.2,0-0.2c0,0.1,0-0.2,0-0.3c0,0.2,0,0.4,0,0.3c0,0.1,0,0.3,0,0.4c0-0.2,0,0.2,0.1,0.2l0,0.1c0-0.1,0-0.1,0-0.1
							l0-0.2c0,0,0,0,0,0.1c0-0.2,0-0.4,0-0.6c0,0.1,0-0.1,0,0.2c0-0.1,0,0.3,0,0.4c0,0,0,0,0,0c0,0,0,0.1,0,0.1c0,0.3,0-0.4,0-0.3
							c0,0.2,0,0.3,0,0.3c0,0,0-0.3,0-0.4c0,0.1,0-0.1,0-0.1l0-0.1c0-0.2,0-0.2,0-0.2c0,0.1,0,0.1,0,0.2c0-0.3,0,0.3,0.1,0.1
							c0,0.1,0,0.3,0,0.4c0-0.2,0,0.2,0.1,0.1c0-0.2,0-0.2,0-0.4l0,0.2l0-0.3c0,0,0,0.1,0,0.1c0-0.2,0-0.1,0-0.3c0,0.4,0-0.2,0.1,0
							l0,0.6c0,0.3,0.1-0.3,0.1-0.2l0-0.1c0-0.2,0,0,0-0.1c0,0.2,0,0.3,0,0.4c0-0.1,0,0,0-0.4l0,0.3c0,0.1,0-0.6,0.1-0.5
							c0,0.2,0,0.4,0,0.5c0,0,0,0,0-0.1c0,0.1,0-0.3,0-0.1c0-0.1,0-0.3,0-0.3c0,0,0,0.1,0,0.1c0-0.1,0-0.1,0-0.4
							c0,0.6,0.1,0,0.1,0.5c0-0.1,0-0.1,0.1-0.1c0,0.1,0,0.1,0,0.1c0,0.2,0-0.6,0-0.4c0,0.3,0,0.2,0,0.3c0,0.6,0-0.1,0.1,0.3l0,0
							c0,0.2,0-0.2,0.1-0.2c0,0,0,0.1,0,0.1c0-0.3,0.1-0.4,0.1-0.5c0,0.3,0,0.1,0,0.4c0,0,0-0.4,0-0.5c0,0.1,0,0.3,0,0.5l0,0
							c0,0.4,0,0,0,0l0,0.2c0-0.1,0-0.4,0.1-0.4l0-0.1c0-0.4,0,0.2,0-0.1l0,0.4c0-0.1,0-0.4,0.1-0.5c0,0.3,0,0.4-0.1,0.6
							c0,0,0,0,0.1-0.2c0,0,0,0.1,0,0.1c0-0.3,0-0.5,0.1-0.5c0,0.8,0.1,0.2,0.1,0.8c0-0.3,0.1,0.1,0.1,0.1c0-0.6,0,0,0-0.6
							c0,0,0,0,0,0l0,0.4c0,0.2,0,0.1,0,0.3c0,0,0,0.3,0,0.4c0-0.2,0-0.3,0-0.2l0-0.3c0-0.3,0,0.5,0.1,0.2l0,0.2
							c0-0.1,0.1,0,0.1-0.5c0,0.1,0,0.2,0,0.3c0,0.1,0.1-0.5,0.1-0.2l0,0.1c0,0,0-0.3,0-0.1c0,0.1,0,0.1,0,0.2c0-0.1,0-0.3,0-0.2
							l0,0.2c0,0.2,0.1-0.4,0.1-0.5c0,0.4,0,0.6,0.1,0.7l0,0.1c0.1,0.1,0.1-0.4,0.1-0.5c0,0.5,0.1,0.2,0.2,0.5c0-0.1,0-0.3,0-0.4
							c0,0.1,0-0.3,0,0.1l0,0c0,0.4,0,0.3,0.1,0.3l0-0.5c0,0.8,0.1-0.3,0.2,0.4c0-0.1,0-0.1,0-0.3l0,0.3c0,0.1,0,0.1,0.1,0l0,0.2
							c0,0,0-0.8,0-0.8l0,0.4c0,0,0.1,0.4,0.1,0c0,0.1,0,0.2,0,0.2c0,0,0.1,0.3,0.1-0.3c0,0.4,0,0,0.1-0.1l0,0.3c0-0.4,0-0.5,0-0.6
							c0,0,0,0.2,0,0.2c0,0.1,0-0.3,0-0.1l0,0.2c0,0,0-0.1,0-0.3c0-0.1,0,0.1,0,0.3c0-0.2,0-0.4,0-0.3c0,0.1,0,0.2,0,0.2
							c0,0.2,0.1-0.3,0.1-0.1c0,0.1,0,0.1,0,0.2c0,0,0,0,0,0c0,0.3,0,0.3,0,0.7c0-0.2,0-0.6,0.1-0.5c0,0,0,0,0,0.1l0,0c0,0,0,0,0,0
							c0,0,0,0.1,0,0.1c0,0.2,0,0.1,0,0.1c0-0.3,0-0.2,0-0.5c0,0,0,0,0,0c0,0,0,0,0,0c0,0,0,0,0,0c0,0,0,0,0,0c0-0.1,0-0.3,0-0.1
							c0-0.2,0-0.4,0-0.5c0,0.4,0,0.6,0,0.8c0-0.2,0.1-0.1,0.1-0.6c0-0.1,0,0.2,0,0.2c0,0.1,0,0,0,0.1c0-0.1,0.1-0.1,0.1-0.4
							c0,0.2,0,0.3,0,0.3l0,0.1c0.1,0.6,0.1-0.9,0.2-0.2c0,0,0-0.1,0-0.1c0.1,0.3,0.2-0.3,0.2,0.2c0,0.1,0-0.1,0-0.3l0,0.3l0-0.3
							c0-0.3,0.1,0.7,0.1,0.3l0-0.2c0,0,0-0.1,0,0.1c0,0,0-0.2,0-0.1l0,0.2l0-0.3c0,0.1,0,0.6,0,0.7c0-0.1,0-0.5,0-0.6
							c0,0,0-0.1,0-0.3l0-0.1c0-0.5,0-0.9,0-1.3l0,0.3l0-0.2l0,0c0-0.2,0,0,0,0.1c0-0.1,0-0.2,0-0.2l0,0.4c0-0.2,0-0.4,0-0.5
							c0,0.2,0,0.4,0,0.5c0-0.2,0-0.4,0-0.2c0-0.1,0-0.2,0-0.2c0,0.1,0,0.1,0,0.3c0-0.3,0,0.1,0-0.4c0,0.1,0,0.3,0,0.4
							c0-0.5,0,0,0-0.6c0,0.5-0.1,0.2-0.1,0.5c0,0,0-0.1,0-0.1c0,0,0-0.2,0-0.3c0,0.4,0,0.5,0,0.7c0-0.4,0-0.5,0-0.8
							c0,0.3,0,0.3,0,0.6c0-0.2,0-0.1,0-0.4c0,0.5,0,0.1,0,0.4c0-0.2,0-0.5,0-0.3C464.7,79.6,464.7,79.4,464.7,79.4z M464.2,80.3
							C464.2,80.3,464.2,80.3,464.2,80.3C464.2,80.3,464.2,80.3,464.2,80.3C464.2,80.3,464.2,80.3,464.2,80.3z M464.1,80.3
							C464.1,80.3,464.1,80.3,464.1,80.3c0,0.1,0,0.2,0,0.2C464.1,80.4,464.1,80.4,464.1,80.3z M464.2,82.2
							C464.2,82.3,464.2,82.2,464.2,82.2c0-0.1,0-0.1,0-0.1c0,0,0,0,0,0C464.2,82.2,464.2,82.2,464.2,82.2z"/>
						<path class="st0" d="M464.2,81.9C464.2,81.9,464.2,81.9,464.2,81.9C464.2,81.8,464.2,81.8,464.2,81.9
							C464.2,81.8,464.2,81.9,464.2,81.9C464.2,81.9,464.2,81.9,464.2,81.9z"/>
						<path class="st0" d="M460.1,81.5L460.1,81.5C460.1,81.5,460.1,81.4,460.1,81.5C460.1,81.4,460.1,81.5,460.1,81.5z"/>
						<polygon class="st0" points="463.5,79.8 463.5,79.8 463.5,79.8 						"/>
						<path class="st0" d="M459.9,80.5C459.9,80.5,459.9,80.4,459.9,80.5C459.9,80.4,459.9,80.5,459.9,80.5z"/>
						<path class="st0" d="M459.8,80.4l0-0.1C459.7,80.4,459.7,80.4,459.8,80.4z"/>
						<path class="st0" d="M459.7,80.3c0,0,0,0.1,0,0.1c0,0,0,0,0,0L459.7,80.3z"/>
						<path class="st0" d="M461,80C461,80,461,80,461,80C461,79.9,461,79.9,461,80z"/>
						<path class="st0" d="M460.6,80.6c0-0.1,0-0.1,0-0.1C460.6,80.5,460.6,80.5,460.6,80.6z"/>
						<polygon class="st0" points="461.4,79.6 461.4,79.6 461.4,79.6 						"/>
						<path class="st0" d="M460.6,80.5C460.6,80.4,460.6,80.4,460.6,80.5C460.6,80.5,460.6,80.5,460.6,80.5z"/>
						<path class="st0" d="M459.3,80.2L459.3,80.2C459.3,80.2,459.3,80.2,459.3,80.2L459.3,80.2z"/>
						<path class="st0" d="M459.3,80.2L459.3,80.2C459.3,80.2,459.3,80.2,459.3,80.2z"/>
						<path class="st0" d="M459.3,80.3L459.3,80.3C459.3,80.2,459.3,80.2,459.3,80.3z"/>
						<path class="st0" d="M459.4,80.3l0-0.1C459.4,80.2,459.4,80.2,459.4,80.3z"/>
						<path class="st0" d="M459.5,80.3c0,0,0-0.2,0-0.2L459.5,80.3C459.4,80,459.4,80.4,459.5,80.3z"/>
						<path class="st0" d="M459.6,81.5L459.6,81.5c0,0,0,0.2,0,0.2C459.6,82.1,459.6,81.5,459.6,81.5z"/>
						<path class="st0" d="M459.7,81.7c0,0.1,0,0.2,0,0.2C459.7,81.8,459.7,81.8,459.7,81.7z"/>
						<path class="st0" d="M460.3,81.7l0,0.3C460.3,81.9,460.3,81.8,460.3,81.7z"/>
						<polygon class="st0" points="460.4,80.4 460.4,80.2 460.4,80.4 						"/>
						<polygon class="st0" points="460.5,82.2 460.5,82.2 460.5,82.1 						"/>
						<path class="st0" d="M461.6,82.1l0-0.3C461.5,81.8,461.5,82.2,461.6,82.1z"/>
						<path class="st0" d="M462,81.8c0,0.2,0,0.3,0,0.1C462,81.9,462,81.7,462,81.8z"/>
						<polygon class="st0" points="463.4,82.3 463.4,82.4 463.4,82.3 						"/>
					</g>
				</g>
			</g>
		</g>
	</g>
	<rect x="154.2" y="80.9" class="st1" width="37.5" height="73.8"/>
	<text transform="matrix(1 0 0 1 154.1564 120.6237)" class="st2 st3 st4">S</text>
	<text transform="matrix(0.583 0 0 0.583 162.192 125.2859)" class="st2 st3 st4">1</text>
	<text transform="matrix(1 0 0 1 167.0241 120.6237)" class="st2 st3 st4 st5">	</text>
	<text transform="matrix(1 0 0 1 190.1564 120.6237)" class="st2 st3 st4 st6">	</text>
	<text transform="matrix(1 0 0 1 154.1564 137.424)" class="st2 st3 st4 st6">	</text>
	<polygon class="st1" points="500.2,78.7 218.1,78.7 217.8,61.9 500,61.9 	"/>
	<text transform="matrix(1 0 0 1 217.9733 72.466)" class="st3 st7">   </text>
	<text transform="matrix(1 0 0 1 228.6286 72.466)" class="st2 st3 st4">S</text>
	<text transform="matrix(0.583 0 0 0.583 236.6642 77.1281)" class="st2 st3 st4">1</text>
	<text transform="matrix(1 0 0 1 241.4963 72.466)" class="st2 st3 st4 st8">	</text>
	<text transform="matrix(1 0 0 1 253.8249 72.466)" class="st2 st3 st4">               S</text>
	<text transform="matrix(0.583 0 0 0.583 324.0212 77.1281)" class="st2 st3 st4">2</text>
	<text transform="matrix(1 0 0 1 328.8532 72.466)" class="st2 st3 st4">  </text>
	<text transform="matrix(1 0 0 1 337.1413 72.466)" class="st2 st3 st4 st9">	</text>
	<text transform="matrix(1 0 0 1 361.8278 72.466)" class="st2 st3 st4">          S</text>
	<text transform="matrix(0.583 0 0 0.583 411.3039 77.1281)" class="st2 st3 st4">3</text>
	<rect x="204" y="117.8" class="st1" width="64.8" height="19.2"/>
	<text transform="matrix(1 0 0 1 203.9708 128.378)"><tspan x="0" y="0" class="st3 st7">   </tspan><tspan x="10.7" y="0" class="st10 st11 st4">0.74</tspan><tspan x="43.1" y="0" class="st2 st3 st4 st12">	</tspan></text>
	<rect x="295.3" y="117.8" class="st1" width="64.8" height="19.2"/>
	<text transform="matrix(1 0 0 1 295.3232 128.378)"><tspan x="0" y="0" class="st3 st7">   </tspan><tspan x="10.7" y="0" class="st10 st11 st4">0.53</tspan><tspan x="43.1" y="0" class="st2 st3 st4 st12">	</tspan></text>
	<rect x="386.1" y="117.8" class="st1" width="64.8" height="19.2"/>
	<text transform="matrix(1 0 0 1 386.0547 128.378)"><tspan x="0" y="0" class="st3 st7">   </tspan><tspan x="10.7" y="0" class="st10 st11 st4">0.12</tspan><tspan x="43.1" y="0" class="st2 st3 st4 st12">	</tspan></text>
</g>
<g id="Layer_2">
	<rect x="53.5" y="104.4" class="st1" width="84.1" height="54.5"/>
	<text transform="matrix(1 0 0 1 53.497 126.1043)" class="st13 st14">M</text>
	<text transform="matrix(0.583 0 0 0.583 81.871 136.0946)" class="st13 st14">12   </text>
	<text transform="matrix(1 0 0 1 112.4789 126.1043)" class="st13 st14">=</text>
</g>
</svg>
